<?xml version="1.0" encoding="utf-8"?>
<!-- Generator: Adobe Illustrator 19.2.1, SVG Export Plug-In . SVG Version: 6.00 Build 0)  -->
<svg version="1.1" id="Слой_1" xmlns="http://www.w3.org/2000/svg" xmlns:xlink="http://www.w3.org/1999/xlink" x="0px" y="0px"
	 viewBox="0 0 169.4 169.4" style="enable-background:new 0 0 169.4 169.4;" xml:space="preserve">
<style type="text/css">
	.st0{clip-path:url(#SVGID_2_);}
	.st1{fill:#F1DDCA;}
	.st2{fill:#B1C86F;}
	.st3{clip-path:url(#SVGID_4_);}
	.st4{fill:#FFFFFF;}
	.st5{fill:#87CDD9;}
	.st6{clip-path:url(#SVGID_2_);fill:#F1DDCA;}
	.st7{clip-path:url(#SVGID_2_);fill:url(#SVGID_5_);}
	.st8{fill:#EBEBEB;}
	.st9{fill:#D93D4A;}
	.st10{fill:none;stroke:#FFFFFF;stroke-miterlimit:10;}
	.st11{fill:none;stroke:#FFFFFF;stroke-width:2;stroke-miterlimit:10;}
	.st12{fill:none;stroke:#F8994B;stroke-miterlimit:10;}
	.st13{fill:#F8994B;}
	.st14{fill:none;stroke:#F8994B;stroke-width:2;stroke-miterlimit:10;}
</style>
<g>
	<g>
		<defs>
			<path id="SVGID_1_" d="M64.2,160.9L8.5,105.2c-11.3-11.3-11.3-29.7,0-41L64.2,8.5c11.3-11.3,29.7-11.3,41,0l55.7,55.7
				c11.3,11.3,11.3,29.7,0,41l-55.7,55.7C93.9,172.2,75.5,172.2,64.2,160.9z"/>
		</defs>
		<clipPath id="SVGID_2_">
			<use xlink:href="#SVGID_1_"  style="overflow:visible;"/>
		</clipPath>
		<g class="st0">
			<rect x="-68.1" y="-28.6" class="st1" width="300" height="225.3"/>
			<polygon class="st2" points="31.9,63.2 33.4,86.7 49.4,80.8 40.1,59.1 			"/>
			<polygon class="st2" points="190.7,57.2 196.9,72.2 156.7,84.7 154.6,60.9 			"/>
			<polygon class="st2" points="176.7,-11.5 179.5,21.9 231.9,36.3 231.9,1.4 			"/>
			<polygon class="st2" points="24.3,-16.2 18,11 29,16.7 41.2,9.9 55.1,11.1 64.5,16.7 63.3,-7 			"/>
			<polygon class="st2" points="-44.5,32.1 -40.6,60.8 -5.8,60.8 -7.8,28.1 -31.8,28.1 			"/>
			<polygon class="st2" points="-35.9,108.2 -16.6,132.1 -61.1,144.7 -68.1,118.5 			"/>
			<polygon class="st2" points="49.5,150.1 56.6,155.7 76.9,147.7 60.1,135.9 			"/>
			<g>
				<defs>
					<rect id="SVGID_3_" x="-68.1" y="-28.6" width="300" height="225.3"/>
				</defs>
				<clipPath id="SVGID_4_">
					<use xlink:href="#SVGID_3_"  style="overflow:visible;"/>
				</clipPath>
				<g class="st3">
					<g>
						
							<rect x="-8" y="-47.4" transform="matrix(0.998 -6.342036e-02 6.342036e-02 0.998 -4.8887 -0.1729)" class="st4" width="5.7" height="248.7"/>
					</g>
					<g>
						<polygon class="st4" points="42.2,208.2 -37.8,110.8 -37.9,110 -57.2,-46.8 -51.6,-47.5 -32.4,108.5 46.6,204.6 						"/>
					</g>
					<g>
						
							<rect x="-83.2" y="98" transform="matrix(0.9551 -0.2963 0.2963 0.9551 -30.4067 1.1478)" class="st4" width="143.6" height="5.7"/>
					</g>
					<g>
						
							<rect x="-7.9" y="-22.3" transform="matrix(0.1447 -0.9895 0.9895 0.1447 39.82 7.0656)" class="st4" width="63.8" height="5.7"/>
					</g>
					<g>
						
							<rect x="61.2" y="-53.2" transform="matrix(0.9986 -5.249056e-02 5.249056e-02 0.9986 -9.482826e-02 3.3655)" class="st4" width="5.7" height="113.4"/>
					</g>
					<g>
						
							<rect x="-23.2" y="74.2" transform="matrix(5.340648e-02 -0.9986 0.9986 5.340648e-02 22.5605 177.8579)" class="st4" width="256.5" height="5.7"/>
					</g>
					<g>
						
							<rect x="33.4" y="46.4" transform="matrix(0.9977 -6.714092e-02 6.714092e-02 0.9977 -8.2922 2.7153)" class="st4" width="5.7" height="156.7"/>
					</g>
					<g>
						
							<rect x="63.6" y="-86" transform="matrix(2.287430e-03 -1 1 2.287430e-03 5.7862 126.6818)" class="st4" width="5.7" height="292.8"/>
					</g>
					<g>
						
							<rect x="211" y="-47.4" transform="matrix(0.9982 -6.005296e-02 6.005296e-02 0.9982 -4.356 12.9858)" class="st4" width="5.7" height="252.7"/>
					</g>
					<g>
						
							<rect x="-85.9" y="146.3" transform="matrix(0.9533 -0.302 0.302 0.9533 -41.338 30.9306)" class="st4" width="330.6" height="5.7"/>
					</g>
					<g>
						
							<rect x="137.7" y="-47.4" transform="matrix(0.9979 -6.413428e-02 6.413428e-02 0.9979 -4.7036 9.1716)" class="st4" width="5.7" height="250.6"/>
					</g>
					<g>
						
							<rect x="127.4" y="-136.5" transform="matrix(0.2416 -0.9704 0.9704 0.2416 121.8843 108.3191)" class="st4" width="5.7" height="225.4"/>
					</g>
					<g>
						
							<rect x="176.2" y="-51.2" transform="matrix(0.9976 -6.925535e-02 6.925535e-02 0.9976 -1.5275 12.4677)" class="st4" width="5.7" height="159"/>
					</g>
					<g>
						<g>
							<g>
								<path class="st5" d="M147.4,137.2c-8,0-16.1-0.8-24.3-2.4c-22.3-4.4-39.8-13.2-53.4-27.1C57.9,95.6,51,82.2,44.3,69.2
									C34,49.1,26.5,34.5,5.4,30.1c-8.3-1.7-16.4-2.6-24.2-2.6c-12.2,0-23.7,2.1-34.4,6.4C-65.9,39-72.8,45.5-72.8,45.6l-2-2l-2,2
									l-12.5-12.6l2-2c0.4-0.4,9.2-9,25.6-15.8c9.4-3.9,19.6-6.4,30.2-7.5C-27.3,7.2-23,7-18.7,7C-9.5,7,0,8,9.6,10
									c13.8,2.9,25,9.3,34.1,19.6c8,9,13.5,19.8,18.9,30.2c11.8,23.1,24.1,47,64.4,54.9c6.9,1.4,13.8,2,20.5,2
									c23.3,0,45-8.3,64.8-24.6c19.2-15.8,29.2-33.7,29.3-33.9l1.4-2.5l2.5,1.4l15.5,8.6l-1.4,2.5c-0.5,0.9-11.9,21.3-34.2,39.8
									c-13.2,10.9-27.6,18.9-42.7,23.8C171.3,135.4,159.4,137.2,147.4,137.2L147.4,137.2z"/>
							</g>
							<g>
								<path class="st4" d="M-18.7,9.9c9,0,18.3,1,27.7,2.9c29.4,6.1,40.4,27.6,51,48.3c12.2,23.7,24.7,48.2,66.4,56.3
									c7.2,1.4,14.2,2.1,21.1,2.1c24,0,46.3-8.4,66.6-25.2c19.7-16.3,29.9-34.5,30-34.7l13,7.2c-0.5,0.8-11.6,20.9-33.5,39
									c-13,10.7-27,18.5-41.8,23.2c-11.1,3.6-22.7,5.3-34.5,5.3c0,0,0,0,0,0c-7.8,0-15.7-0.8-23.8-2.4
									c-21.7-4.3-38.7-12.9-51.9-26.3C60.2,94,53.4,80.7,46.8,67.9C36.5,47.8,28.4,32,6,27.4c-8.5-1.8-16.8-2.7-24.8-2.7
									c-12.6,0-24.4,2.2-35.4,6.6c-13.4,5.4-20.5,12.2-20.6,12.2l0,0L-85.3,33c0.4-0.3,8.8-8.6,24.7-15.2
									c9.2-3.8,19.1-6.2,29.4-7.3C-27.1,10.1-22.9,9.9-18.7,9.9 M-18.7,4.2c-4.4,0-8.7,0.2-13,0.7C-42.6,6-53,8.6-62.7,12.6
									C-79.4,19.4-88.3,28-89.2,28.9l-4,4l4,4l10.5,10.6l4-3.9l4,4l0,0c0.1-0.1,6.6-6.2,18.8-11.1c10.3-4.1,21.5-6.2,33.3-6.2
									c7.6,0,15.5,0.9,23.6,2.5c19.8,4.1,27,18.1,37,37.5c6.8,13.2,13.8,26.9,25.9,39.2c14,14.3,32,23.5,54.9,27.9
									c8.3,1.6,16.7,2.5,24.8,2.5c12.4,0,24.5-1.9,36.2-5.6c15.4-4.9,30.1-13.1,43.6-24.3c22.7-18.8,34.4-39.7,34.9-40.6l2.7-5
									l-4.9-2.7l-13-7.2l-4.9-2.7l-2.7,4.9c-0.1,0.2-9.9,17.6-28.6,33c-19.2,15.9-40.4,23.9-63,23.9c-6.5,0-13.2-0.7-20-2
									c-39-7.6-50.4-29.9-62.5-53.4C59.6,47.9,54,36.9,45.8,27.7C36.2,16.9,24.6,10.3,10.1,7.3C0.4,5.2-9.3,4.2-18.7,4.2
									L-18.7,4.2z"/>
							</g>
						</g>
					</g>
					<g>
						<circle class="st2" cx="136.2" cy="11.3" r="18.3"/>
						<path class="st4" d="M136.2-4.1c-8.5,0-15.4,6.9-15.4,15.4c0,8.5,6.9,15.4,15.4,15.4c8.5,0,15.4-6.9,15.4-15.4
							C151.7,2.8,144.7-4.1,136.2-4.1z"/>
					</g>
					<g>
						<circle class="st2" cx="105.1" cy="60.4" r="11.2"/>
						<path class="st4" d="M105.1,74.5c-7.7,0-14-6.3-14-14c0-7.7,6.3-14,14-14c7.7,0,14,6.3,14,14
							C119.1,68.2,112.8,74.5,105.1,74.5z M105.1,52.1c-4.6,0-8.4,3.8-8.4,8.4c0,4.6,3.8,8.4,8.4,8.4c4.6,0,8.4-3.8,8.4-8.4
							C113.5,55.8,109.7,52.1,105.1,52.1z"/>
					</g>
					<g>
						<circle class="st2" cx="38.3" cy="160.1" r="17.1"/>
						<path class="st4" d="M38.3,145.8c-7.9,0-14.3,6.4-14.3,14.3s6.4,14.3,14.3,14.3c7.9,0,14.3-6.4,14.3-14.3
							S46.2,145.8,38.3,145.8z"/>
					</g>
					<g>
						<circle class="st1" cx="-11.4" cy="-27.3" r="13.6"/>
						<path class="st4" d="M-11.4-10.9c-9,0-16.4-7.4-16.4-16.4c0-9,7.4-16.4,16.4-16.4c9,0,16.4,7.4,16.4,16.4
							C5-18.2-2.4-10.9-11.4-10.9z M-11.4-38c-5.9,0-10.7,4.8-10.7,10.7c0,5.9,4.8,10.7,10.7,10.7c5.9,0,10.7-4.8,10.7-10.7
							C-0.7-33.2-5.5-38-11.4-38z"/>
					</g>
					<g>
						<polygon class="st4" points="-77,4.8 -79.3,2 -52.1,-20.9 -34.2,-32.4 -32.3,-29.4 -49.9,-18.1 						"/>
					</g>
					<g>
						
							<rect x="18.9" y="-32.4" transform="matrix(0.3727 -0.928 0.928 0.3727 50.6011 13.6137)" class="st4" width="33" height="3.6"/>
					</g>
					<g>
						<rect x="31" y="-29" transform="matrix(0.1042 -0.9946 0.9946 0.1042 69.5615 22.886)" class="st4" width="33" height="3.6"/>
					</g>
					<g>
						<path class="st4" d="M94.6,35.5c-1.1,0-2.3-0.1-3.6-0.2c-6.4-0.6-13.2-6-20.3-11.7c-6.7-5.4-13.7-10.9-20-12
							c-12.4-2.1-20,6.4-20,6.5l-2.7-2.3c0.4-0.4,9-10.1,23.3-7.6c7.3,1.2,14.6,7.1,21.6,12.7c6.7,5.4,13,10.4,18.4,11
							c10.7,1.1,14.9-3.2,15-3.4l2.6,2.4C108.8,31,104.6,35.5,94.6,35.5z"/>
					</g>
					<g>
						
							<rect x="66.1" y="41.7" transform="matrix(0.9885 -0.1515 0.1515 0.9885 -5.5799 13.6281)" class="st4" width="41.2" height="3.6"/>
					</g>
					<g>
						
							<rect x="104.7" y="79.9" transform="matrix(0.9974 -7.191940e-02 7.191940e-02 0.9974 -5.5569 9.0318)" class="st4" width="35.8" height="3.6"/>
					</g>
					<g>
						
							<rect x="121.2" y="79.1" transform="matrix(6.306022e-02 -0.998 0.998 6.306022e-02 17.354 214.5765)" class="st4" width="3.6" height="37.9"/>
					</g>
					<g>
						<polygon class="st4" points="156.6,115.3 155,95.6 152.7,60.9 156.3,60.7 158.6,95.4 160.1,115 						"/>
					</g>
					<g>
						<path class="st4" d="M141.8,91.4l-1.2-3.4c15.6-5.3,39.2-13.4,40.8-14.2c-0.5,0.2-1.1,1-0.9,2l1.7-0.4l-0.1-1.8l1.8,1.5
							c0.3,1.5-1.1,2-1.5,2.2c-0.3,0.1-0.8,0.3-1.3,0.5c-1.1,0.4-2.6,1-4.7,1.7c-3.4,1.2-8.2,2.9-14.1,4.9
							C152.2,87.9,141.9,91.4,141.8,91.4z"/>
					</g>
					<g>
						<path class="st4" d="M206.4-17.4c0,0-2.2-3.8-13.3-7.2c-11.5-3.5-17.6-2.2-17.6-2.1l-0.9-3.5c0.3-0.1,6.9-1.7,19.5,2.2
							c12.7,3.9,15.2,8.6,15.4,9.1L206.4-17.4C206.4-17.5,206.4-17.4,206.4-17.4z"/>
					</g>
					<g>
						<polygon class="st4" points="179.8,61.7 163.5,35.2 145.4,28.5 146.6,25.1 165.9,32.3 182.8,59.8 						"/>
					</g>
					<g>
						
							<rect x="180" y="42.5" transform="matrix(3.711884e-02 -0.9993 0.9993 3.711884e-02 145.94 239.9857)" class="st4" width="35" height="3.6"/>
					</g>
					<g>
						
							<rect x="207.5" y="-15.5" transform="matrix(0.8278 -0.5611 0.5611 0.8278 46.4438 123.9255)" class="st4" width="35.1" height="3.6"/>
					</g>
					<g>
						
							<rect x="217.4" y="-57.7" transform="matrix(0.6508 -0.7592 0.7592 0.6508 103.5346 154.0366)" class="st4" width="3.6" height="44.3"/>
					</g>
					<g>
						<polygon class="st4" points="87.5,33.6 79.8,-2.4 84.9,-14 82.4,-49.8 85.9,-50.1 88.5,-13.4 83.5,-2.1 91,32.9 						"/>
					</g>
					<g>
						
							<rect x="-28" y="59.8" transform="matrix(0.9844 -0.1759 0.1759 0.9844 -14.8627 -3.3229)" class="st4" width="3.6" height="44.8"/>
					</g>
					<g>
						
							<rect x="11.8" y="52.8" transform="matrix(1.255377e-02 -0.9999 0.9999 1.255377e-02 -58.434 84.5722)" class="st4" width="3.6" height="38.2"/>
					</g>
					<g>
						
							<rect x="6.4" y="72.9" transform="matrix(0.2517 -0.9678 0.9678 0.2517 -77.4349 72.5461)" class="st4" width="3.6" height="26.8"/>
					</g>
					<g>
						<path class="st4" d="M-40.3,52.9C-40.3,52.8-40.3,52.8-40.3,52.9l-3.5-0.5c0.1-0.7,1.2-7,15-11.8c14-4.9,22.8,4.3,23.1,4.7
							l-2.6,2.4c-0.3-0.3-7.6-7.9-19.3-3.8C-39.3,48-40.3,52.8-40.3,52.9z"/>
					</g>
					<g>
						
							<rect x="-80.4" y="85.5" transform="matrix(3.480505e-02 -0.9994 0.9994 3.480505e-02 -138.8925 30.8444)" class="st4" width="53.8" height="3.6"/>
					</g>
					<g>
						
							<rect x="-67.8" y="60.1" transform="matrix(0.9875 -0.1577 0.1577 0.9875 -14.6667 -9.313)" class="st4" width="3.6" height="55.4"/>
					</g>
					<g>
						<polygon class="st4" points="-38.2,186.8 -63.3,145 -71.2,119.4 -67.8,118.4 -60,143.5 -35.1,185 						"/>
					</g>
					<g>
						
							<rect x="-76.7" y="138.9" transform="matrix(0.961 -0.2765 0.2765 0.961 -40.69 -7.2532)" class="st4" width="61.4" height="3.6"/>
					</g>
					<g>
						<path class="st4" d="M-33.9,186.8L-37,185c0.1-0.1,6.4-11.1,12.8-22.1c13.2-22.6,13.6-22.8,14.3-23.1l1.7,3.1
							c0.3-0.1,0.4-0.3,0.4-0.3C-9.2,144.3-24.2,170-33.9,186.8z"/>
					</g>
					<g>
						
							<rect x="14.2" y="93.7" transform="matrix(0.9717 -0.2364 0.2364 0.9717 -28.7383 7.2786)" class="st4" width="3.6" height="59.5"/>
					</g>
					<g>
						
							<rect x="-2.3" y="119.7" transform="matrix(0.9969 -7.849734e-02 7.849734e-02 0.9969 -9.5143 0.8862)" class="st4" width="17.7" height="3.6"/>
					</g>
					<g>
						
							<rect x="56.4" y="107" transform="matrix(0.5604 -0.8283 0.8283 0.5604 -85.4111 107.1316)" class="st4" width="3.6" height="54"/>
					</g>
					<g>
						
							<rect x="42.7" y="129.6" transform="matrix(0.6595 -0.7517 0.7517 0.6595 -76.8521 93.086)" class="st4" width="43.3" height="3.6"/>
					</g>
					<g>
						<path class="st4" d="M60.5,188.7c-13.3,0-19.5-3.2-19.8-3.4l1.7-3.2c0.1,0.1,10,5.1,31.8,1.9c21.3-3.1,24.4-18.2,24.4-18.4
							l3.5,0.7c0,0.2-0.9,4.6-4.8,9.4c-3.5,4.4-10.3,10-22.6,11.8C69.3,188.4,64.5,188.7,60.5,188.7z"/>
					</g>
					<g>
						
							<rect x="111.4" y="139" transform="matrix(0.998 -6.318411e-02 6.318411e-02 0.998 -10.6472 7.4976)" class="st4" width="3.6" height="66.2"/>
					</g>
					<g>
						<path class="st4" d="M100.2,187.4l-1.8-3.1c0,0,11.6-6.7,23.2-13.5c6.7-3.9,12.1-7,16-9.3c2.2-1.3,4-2.3,5.3-3
							c0.6-0.4,1.2-0.7,1.5-0.9c0.7-0.4,1.4-0.8,2.3-0.3l0.9,1.5l-3.6,0.2l1.8-0.1l-0.9,1.5c0.6,0.4,1.3,0.3,1.6,0.1
							C145.2,161.2,118.1,177,100.2,187.4z"/>
					</g>
					<g>
						
							<rect x="189.9" y="118" transform="matrix(0.3318 -0.9433 0.9433 0.3318 -9.98 278.6284)" class="st4" width="3.6" height="56.8"/>
					</g>
					<g>
						
							<rect x="146.3" y="171" transform="matrix(0.9778 -0.2095 0.2095 0.9778 -32.1371 42.1299)" class="st4" width="73" height="3.6"/>
					</g>
				</g>
			</g>
		</g>
		<ellipse class="st6" cx="-44.5" cy="102.8" rx="8.6" ry="2"/>
		<ellipse class="st6" cx="9.1" cy="179.7" rx="8.6" ry="2"/>
		<ellipse class="st6" cx="84.7" cy="135.2" rx="8.6" ry="2"/>
		<ellipse class="st6" cx="0.3" cy="35.5" rx="8.6" ry="2"/>
		<ellipse class="st6" cx="182.3" cy="165.3" rx="8.6" ry="2"/>
		<ellipse class="st6" cx="204.2" cy="33.1" rx="8.6" ry="2"/>
		<g class="st0">
			<path class="st4" d="M231.9-28.6v225.3h-300V-28.6H231.9 M231.9-34.6h-300c-3.3,0-6,2.7-6,6v225.3c0,3.3,2.7,6,6,6h300
				c3.3,0,6-2.7,6-6V-28.6C237.9-31.9,235.2-34.6,231.9-34.6L231.9-34.6z"/>
		</g>
		<linearGradient id="SVGID_5_" gradientUnits="userSpaceOnUse" x1="72.4651" y1="65.8333" x2="136.2746" y2="129.6428">
			<stop  offset="0" style="stop-color:#ADADAD"/>
			<stop  offset="1" style="stop-color:#FFFFFF"/>
		</linearGradient>
		<polyline class="st7" points="107.3,44.7 164.3,101.6 108.3,157.6 83.2,132.6 69.4,68.9 		"/>
		<g class="st0">
			<g>
				<path class="st8" d="M118.9,70.1c0,18.9-28.5,63.4-34.2,63.4c-5.7,0-34.2-44.6-34.2-63.4c0-18.9,15.3-34.2,34.2-34.2
					C103.6,35.9,118.9,51.2,118.9,70.1z"/>
				<g>
					<path class="st9" d="M98.8,65.6"/>
					<path class="st9" d="M81.7,70.4"/>
				</g>
			</g>
		</g>
	</g>
</g>
<path class="st4" d="M84.7,133.5c-5.7,0-34.2-44.6-34.2-63.4c0-18.9,15.3-34.2,34.2-34.2"/>
<g>
	<g>
		<line class="st10" x1="91.2" y1="53.1" x2="91.2" y2="63.1"/>
		<circle class="st4" cx="91.2" cy="53.4" r="2.3"/>
		<path class="st4" d="M96.7,72.1c0,1.1-0.9,2-2,2h-17c-1.1,0-2-0.9-2-2v-10c0-1.1,0.9-2,2-2h17c1.1,0,2,0.9,2,2V72.1z"/>
		<rect x="77.7" y="62.1" class="st4" width="17" height="10"/>
		<path class="st4" d="M96.7,105.1h-21V77c0-1.1,0.9-1.9,2-1.9h17c1.1,0,2,0.8,2,1.9V105.1z"/>
		<path class="st4" d="M99.7,105.1h-27v-2c0-1.1,1.2-2,2.3-2h22.4c1.1,0,2.3,0.9,2.3,2V105.1z"/>
		<rect x="78.7" y="78.1" class="st4" width="3" height="2"/>
		<rect x="90.7" y="78.1" class="st4" width="3" height="1"/>
		<rect x="83.7" y="78.1" class="st4" width="5" height="5"/>
		<polyline class="st11" points="82.5,66.6 85.1,69.3 89.8,64.6 		"/>
	</g>
	<g>
		<g>
			<g>
				<g>
					<line class="st12" x1="90.2" y1="52.1" x2="90.2" y2="62.1"/>
					<g>
						<circle class="st13" cx="90.2" cy="52.4" r="2.3"/>
					</g>
				</g>
			</g>
			<path class="st13" d="M95.7,71.1c0,1.1-0.9,2-2,2h-17c-1.1,0-2-0.9-2-2v-10c0-1.1,0.9-2,2-2h17c1.1,0,2,0.9,2,2V71.1z"/>
			<rect x="76.7" y="61.1" class="st4" width="17" height="10"/>
			<path class="st13" d="M95.7,104.1h-21V76c0-1.1,0.9-1.9,2-1.9h17c1.1,0,2,0.8,2,1.9V104.1z"/>
			<path class="st13" d="M98.7,104.1h-27v-2c0-1.1,1.2-2,2.3-2h22.4c1.1,0,2.3,0.9,2.3,2V104.1z"/>
			<rect x="77.7" y="77.1" class="st4" width="3" height="2"/>
			<rect x="89.7" y="77.1" class="st4" width="3" height="1"/>
			<rect x="82.7" y="77.1" class="st4" width="5" height="5"/>
			<polyline class="st14" points="81.5,65.6 84.1,68.3 88.8,63.6 			"/>
		</g>
	</g>
</g>
</svg>
