<?xml version="1.0" encoding="utf-8"?>
<!-- Generator: Adobe Illustrator 19.2.1, SVG Export Plug-In . SVG Version: 6.00 Build 0)  -->
<svg width="169" height="169" version="1.1" id="Слой_1" xmlns="http://www.w3.org/2000/svg" xmlns:xlink="http://www.w3.org/1999/xlink" x="0px" y="0px"
	 viewBox="0 0 169.4 169.4" style="enable-background:new 0 0 169.4 169.4;" xml:space="preserve">
<style type="text/css">
	.st0{clip-path:url(#SVGID_2_);}
	.st1{fill:#3779A2;}
	.st2{fill:#87CDD9;}
	.st3{fill:#3A89C5;}
	.st4{fill:#ABDAE3;}
	.st5{clip-path:url(#SVGID_4_);fill:#ADADAD;}
	.st6{clip-path:url(#SVGID_4_);fill:#AEAEAE;}
	.st7{clip-path:url(#SVGID_4_);fill:#AFAFAF;}
	.st8{clip-path:url(#SVGID_4_);fill:#B0AFAF;}
	.st9{clip-path:url(#SVGID_4_);fill:#B1B0B0;}
	.st10{clip-path:url(#SVGID_4_);fill:#B1B1B1;}
	.st11{clip-path:url(#SVGID_4_);fill:#B2B2B2;}
	.st12{clip-path:url(#SVGID_4_);fill:#B3B3B3;}
	.st13{clip-path:url(#SVGID_4_);fill:#B4B3B3;}
	.st14{clip-path:url(#SVGID_4_);fill:#B5B4B4;}
	.st15{clip-path:url(#SVGID_4_);fill:#B6B5B5;}
	.st16{clip-path:url(#SVGID_4_);fill:#B6B6B6;}
	.st17{clip-path:url(#SVGID_4_);fill:#B7B7B7;}
	.st18{clip-path:url(#SVGID_4_);fill:#B8B7B7;}
	.st19{clip-path:url(#SVGID_4_);fill:#B9B8B8;}
	.st20{clip-path:url(#SVGID_4_);fill:#BAB9B9;}
	.st21{clip-path:url(#SVGID_4_);fill:#BBBABA;}
	.st22{clip-path:url(#SVGID_4_);fill:#BCBBBB;}
	.st23{clip-path:url(#SVGID_4_);fill:#BDBCBC;}
	.st24{clip-path:url(#SVGID_4_);fill:#BEBDBD;}
	.st25{clip-path:url(#SVGID_4_);fill:#BFBEBE;}
	.st26{clip-path:url(#SVGID_4_);fill:#C0BFBF;}
	.st27{clip-path:url(#SVGID_4_);fill:#C1C0C0;}
	.st28{clip-path:url(#SVGID_4_);fill:#C2C1C1;}
	.st29{clip-path:url(#SVGID_4_);fill:#C3C2C1;}
	.st30{clip-path:url(#SVGID_4_);fill:#C4C2C2;}
	.st31{clip-path:url(#SVGID_4_);fill:#C4C3C3;}
	.st32{clip-path:url(#SVGID_4_);fill:#C5C4C4;}
	.st33{clip-path:url(#SVGID_4_);fill:#C6C5C5;}
	.st34{clip-path:url(#SVGID_4_);fill:#C7C6C6;}
	.st35{clip-path:url(#SVGID_4_);fill:#C8C7C6;}
	.st36{clip-path:url(#SVGID_4_);fill:#C9C8C7;}
	.st37{clip-path:url(#SVGID_4_);fill:#CAC8C8;}
	.st38{clip-path:url(#SVGID_4_);fill:#CBC9C9;}
	.st39{clip-path:url(#SVGID_4_);fill:#CCCACA;}
	.st40{clip-path:url(#SVGID_4_);fill:#CCCBCB;}
	.st41{clip-path:url(#SVGID_4_);fill:#CDCCCC;}
	.st42{clip-path:url(#SVGID_4_);fill:#CECDCC;}
	.st43{clip-path:url(#SVGID_4_);fill:#CFCECD;}
	.st44{clip-path:url(#SVGID_4_);fill:#D0CFCE;}
	.st45{clip-path:url(#SVGID_4_);fill:#D1D0CF;}
	.st46{clip-path:url(#SVGID_4_);fill:#D2D0D0;}
	.st47{clip-path:url(#SVGID_4_);fill:#D3D1D1;}
	.st48{clip-path:url(#SVGID_4_);fill:#D3D2D2;}
	.st49{clip-path:url(#SVGID_4_);fill:#D4D3D3;}
	.st50{clip-path:url(#SVGID_4_);fill:#D5D4D4;}
	.st51{clip-path:url(#SVGID_4_);fill:#D6D5D5;}
	.st52{clip-path:url(#SVGID_4_);fill:#D7D6D5;}
	.st53{clip-path:url(#SVGID_4_);fill:#D8D7D6;}
	.st54{clip-path:url(#SVGID_4_);fill:#D9D8D7;}
	.st55{clip-path:url(#SVGID_4_);fill:#DAD9D8;}
	.st56{clip-path:url(#SVGID_4_);fill:#DBDAD9;}
	.st57{clip-path:url(#SVGID_4_);fill:#DCDBDA;}
	.st58{clip-path:url(#SVGID_4_);fill:#DDDCDB;}
	.st59{clip-path:url(#SVGID_4_);fill:#DEDCDC;}
	.st60{clip-path:url(#SVGID_4_);fill:#DFDDDD;}
	.st61{clip-path:url(#SVGID_4_);fill:#E0DEDE;}
	.st62{clip-path:url(#SVGID_4_);fill:#E1DFDF;}
	.st63{clip-path:url(#SVGID_4_);fill:#E2E0E0;}
	.st64{clip-path:url(#SVGID_4_);fill:#E3E1E1;}
	.st65{clip-path:url(#SVGID_4_);fill:#E4E2E2;}
	.st66{clip-path:url(#SVGID_4_);fill:#E5E3E3;}
	.st67{clip-path:url(#SVGID_4_);fill:#E6E4E4;}
	.st68{clip-path:url(#SVGID_4_);fill:#E7E5E5;}
	.st69{clip-path:url(#SVGID_4_);fill:#E8E6E6;}
	.st70{clip-path:url(#SVGID_4_);fill:#E9E7E7;}
	.st71{clip-path:url(#SVGID_4_);fill:#EAE8E8;}
	.st72{clip-path:url(#SVGID_4_);fill:#EBE9E9;}
	.st73{clip-path:url(#SVGID_4_);fill:#ECEAEA;}
	.st74{clip-path:url(#SVGID_4_);fill:#EDEBEB;}
	.st75{clip-path:url(#SVGID_4_);fill:#EEECEC;}
	.st76{clip-path:url(#SVGID_4_);fill:#EFEDED;}
	.st77{clip-path:url(#SVGID_4_);fill:#F0EEEE;}
	.st78{clip-path:url(#SVGID_4_);fill:#F1EFEF;}
	.st79{clip-path:url(#SVGID_4_);fill:#F2F1F0;}
	.st80{clip-path:url(#SVGID_4_);fill:#F3F2F1;}
	.st81{clip-path:url(#SVGID_4_);fill:#F4F3F2;}
	.st82{clip-path:url(#SVGID_4_);fill:#F5F4F3;}
	.st83{clip-path:url(#SVGID_4_);fill:#F6F5F5;}
	.st84{clip-path:url(#SVGID_4_);fill:#F7F6F6;}
	.st85{clip-path:url(#SVGID_4_);fill:#F8F8F7;}
	.st86{clip-path:url(#SVGID_4_);fill:#FAF9F9;}
	.st87{clip-path:url(#SVGID_4_);fill:#FBFBFB;}
	.st88{clip-path:url(#SVGID_4_);fill:#FDFDFD;}
	.st89{clip-path:url(#SVGID_4_);fill:#FFFFFF;}
	.st90{fill:#F8994B;}
	.st91{fill:#FFFFFF;}
	.st92{fill:#EBEBEB;}
</style>
<g>
	<g>
		<defs>
			<path id="SVGID_1_" d="M64.2,160.9L8.5,105.2c-11.3-11.3-11.3-29.7,0-41L64.2,8.5c11.3-11.3,29.7-11.3,41,0l55.7,55.7
				c11.3,11.3,11.3,29.7,0,41l-55.7,55.7C93.9,172.2,75.5,172.2,64.2,160.9z"/>
		</defs>
		<clipPath id="SVGID_2_">
			<use xlink:href="#SVGID_1_"  style="overflow:visible;"/>
		</clipPath>
		<g class="st0">
			<circle class="st1" cx="9.7" cy="6.2" r="19"/>
		</g>
		<g class="st0">
			<circle class="st1" cx="47.6" cy="6.2" r="19"/>
		</g>
		<g class="st0">
			<circle class="st2" cx="85.5" cy="6.2" r="19"/>
		</g>
		<g class="st0">
			<circle class="st1" cx="123.4" cy="6.2" r="19"/>
		</g>
		<g class="st0">
			<circle class="st1" cx="161.4" cy="6.2" r="19"/>
		</g>
		<g class="st0">
			<circle class="st3" cx="-9.3" cy="21.9" r="19"/>
		</g>
		<g class="st0">
			<circle class="st3" cx="28.6" cy="21.9" r="19"/>
		</g>
		<g class="st0">
			<circle class="st4" cx="66.5" cy="21.9" r="19"/>
		</g>
		<g class="st0">
			<circle class="st4" cx="104.5" cy="21.9" r="19"/>
		</g>
		<g class="st0">
			<circle class="st3" cx="142.4" cy="21.9" r="19"/>
		</g>
		<g class="st0">
			<circle class="st3" cx="180.3" cy="21.9" r="19"/>
		</g>
		<g class="st0">
			<circle class="st1" cx="9.7" cy="40.9" r="19"/>
		</g>
		<g class="st0">
			<circle class="st2" cx="47.6" cy="40.9" r="19"/>
		</g>
		<g class="st0">
			<circle class="st2" cx="85.5" cy="40.9" r="19"/>
		</g>
		<g class="st0">
			<circle class="st2" cx="123.4" cy="40.9" r="19"/>
		</g>
		<g class="st0">
			<circle class="st1" cx="161.4" cy="40.9" r="19"/>
		</g>
		<g class="st0">
			<circle class="st3" cx="-9.3" cy="56.6" r="19"/>
		</g>
		<g class="st0">
			<circle class="st4" cx="28.6" cy="56.6" r="19"/>
		</g>
		<g class="st0">
			<circle class="st4" cx="66.5" cy="56.6" r="19"/>
		</g>
		<g class="st0">
			<circle class="st4" cx="104.5" cy="56.6" r="19"/>
		</g>
		<g class="st0">
			<circle class="st4" cx="142.4" cy="56.6" r="19"/>
		</g>
		<g class="st0">
			<circle class="st3" cx="180.3" cy="56.6" r="19"/>
		</g>
		<g class="st0">
			<circle class="st2" cx="9.7" cy="75.5" r="19"/>
		</g>
		<g class="st0">
			<circle class="st2" cx="47.6" cy="75.5" r="19"/>
		</g>
		<g class="st0">
			<circle class="st2" cx="85.5" cy="75.5" r="19"/>
		</g>
		<g class="st0">
			<circle class="st2" cx="123.4" cy="75.5" r="19"/>
		</g>
		<g class="st0">
			<circle class="st2" cx="161.4" cy="75.5" r="19"/>
		</g>
		<g class="st0">
			<circle class="st4" cx="-9.3" cy="91.2" r="19"/>
		</g>
		<g class="st0">
			<circle class="st4" cx="28.6" cy="91.2" r="19"/>
		</g>
		<g class="st0">
			<circle class="st4" cx="66.5" cy="91.2" r="19"/>
		</g>
		<g class="st0">
			<circle class="st4" cx="104.5" cy="91.2" r="19"/>
		</g>
		<g class="st0">
			<circle class="st4" cx="142.4" cy="91.2" r="19"/>
		</g>
		<g class="st0">
			<circle class="st4" cx="180.3" cy="91.2" r="19"/>
		</g>
		<g class="st0">
			<circle class="st2" cx="9.7" cy="110.2" r="19"/>
		</g>
		<g class="st0">
			<circle class="st2" cx="47.6" cy="110.2" r="19"/>
		</g>
		<g class="st0">
			<circle class="st2" cx="85.5" cy="110.2" r="19"/>
		</g>
		<g class="st0">
			<g>
				<defs>
					<polyline id="SVGID_3_" points="114,54.4 162.3,102.6 115.3,149.6 63.2,97.6 67.4,69.9 					"/>
				</defs>
				<clipPath id="SVGID_4_">
					<use xlink:href="#SVGID_3_"  style="overflow:visible;"/>
				</clipPath>
				<polygon class="st5" points="82.9,54.4 63.2,74.1 63.2,54.4 				"/>
				<polygon class="st5" points="84.4,54.4 63.2,75.5 63.2,74.1 82.9,54.4 				"/>
				<polygon class="st6" points="85.9,54.4 63.2,77 63.2,75.5 84.4,54.4 				"/>
				<polygon class="st7" points="87.3,54.4 63.2,78.5 63.2,77 85.9,54.4 				"/>
				<polygon class="st8" points="88.8,54.4 63.2,80 63.2,78.5 87.3,54.4 				"/>
				<polygon class="st9" points="90.3,54.4 63.2,81.5 63.2,80 88.8,54.4 				"/>
				<polygon class="st10" points="91.8,54.4 63.2,83 63.2,81.5 90.3,54.4 				"/>
				<polygon class="st11" points="93.3,54.4 63.2,84.4 63.2,83 91.8,54.4 				"/>
				<polygon class="st12" points="94.8,54.4 63.2,85.9 63.2,84.4 93.3,54.4 				"/>
				<polygon class="st13" points="96.2,54.4 63.2,87.4 63.2,85.9 94.8,54.4 				"/>
				<polygon class="st14" points="97.7,54.4 63.2,88.9 63.2,87.4 96.2,54.4 				"/>
				<polygon class="st15" points="99.2,54.4 63.2,90.4 63.2,88.9 97.7,54.4 				"/>
				<polygon class="st16" points="100.7,54.4 63.2,91.9 63.2,90.4 99.2,54.4 				"/>
				<polygon class="st17" points="102.2,54.4 63.2,93.3 63.2,91.9 100.7,54.4 				"/>
				<polygon class="st18" points="103.7,54.4 63.2,94.8 63.2,93.3 102.2,54.4 				"/>
				<polygon class="st19" points="105.2,54.4 63.2,96.3 63.2,94.8 103.7,54.4 				"/>
				<polygon class="st20" points="106.6,54.4 63.2,97.8 63.2,96.3 105.2,54.4 				"/>
				<polygon class="st21" points="108.1,54.4 63.2,99.3 63.2,97.8 106.6,54.4 				"/>
				<polygon class="st22" points="109.6,54.4 63.4,100.6 63.2,100.4 63.2,99.3 108.1,54.4 				"/>
				<polygon class="st23" points="111.1,54.4 64.1,101.3 63.4,100.6 109.6,54.4 				"/>
				<polygon class="st23" points="112.6,54.4 64.9,102.1 64.1,101.3 111.1,54.4 				"/>
				<polygon class="st24" points="114.1,54.4 65.6,102.8 64.9,102.1 112.6,54.4 				"/>
				<polygon class="st25" points="115.5,54.4 66.4,103.6 65.6,102.8 114.1,54.4 				"/>
				<polygon class="st26" points="116.9,54.4 116.9,54.5 67.1,104.3 66.4,103.6 115.5,54.4 				"/>
				
					<rect x="57.2" y="79.2" transform="matrix(0.7071 -0.7071 0.7071 0.7071 -29.3419 88.7016)" class="st27" width="70.5" height="1"/>
				
					<rect x="57.9" y="80" transform="matrix(0.7071 -0.7071 0.7071 0.7071 -29.6492 89.4436)" class="st28" width="70.5" height="1"/>
				
					<rect x="58.7" y="80.7" transform="matrix(0.7071 -0.7071 0.7071 0.7071 -29.9565 90.1856)" class="st29" width="70.5" height="1"/>
				
					<rect x="59.4" y="81.5" transform="matrix(0.7071 -0.7071 0.7071 0.7071 -30.2639 90.9276)" class="st30" width="70.5" height="1"/>
				
					<rect x="60.1" y="82.2" transform="matrix(0.7071 -0.7071 0.7071 0.7071 -30.5712 91.6695)" class="st31" width="70.5" height="1"/>
				
					<rect x="60.9" y="83" transform="matrix(0.7071 -0.7071 0.7071 0.7071 -30.8785 92.4115)" class="st32" width="70.5" height="1"/>
				
					<rect x="61.6" y="83.7" transform="matrix(0.7071 -0.7071 0.7071 0.7071 -31.1859 93.1535)" class="st33" width="70.5" height="1"/>
				
					<rect x="62.4" y="84.4" transform="matrix(0.7071 -0.7071 0.7071 0.7071 -31.4932 93.8954)" class="st34" width="70.5" height="1"/>
				
					<rect x="63.1" y="85.2" transform="matrix(0.7071 -0.7071 0.7071 0.7071 -31.8005 94.6374)" class="st35" width="70.5" height="1"/>
				
					<rect x="63.8" y="85.9" transform="matrix(0.7071 -0.7071 0.7071 0.7071 -32.1079 95.3794)" class="st36" width="70.5" height="1"/>
				
					<rect x="64.6" y="86.7" transform="matrix(0.7071 -0.7071 0.7071 0.7071 -32.4152 96.1213)" class="st37" width="70.5" height="1"/>
				
					<rect x="65.3" y="87.4" transform="matrix(0.7071 -0.7071 0.7071 0.7071 -32.7225 96.8633)" class="st38" width="70.5" height="1"/>
				
					<rect x="66.1" y="88.1" transform="matrix(0.7071 -0.7071 0.7071 0.7071 -33.0299 97.6053)" class="st39" width="70.5" height="1"/>
				
					<rect x="66.8" y="88.9" transform="matrix(0.7071 -0.7071 0.7071 0.7071 -33.3372 98.3473)" class="st40" width="70.5" height="1"/>
				
					<rect x="67.6" y="89.6" transform="matrix(0.7071 -0.7071 0.7071 0.7071 -33.6445 99.0892)" class="st41" width="70.5" height="1"/>
				
					<rect x="68.3" y="90.4" transform="matrix(0.7071 -0.7071 0.7071 0.7071 -33.9519 99.8312)" class="st42" width="70.5" height="1"/>
				
					<rect x="69" y="91.1" transform="matrix(0.7071 -0.7071 0.7071 0.7071 -34.2592 100.5732)" class="st43" width="70.5" height="1"/>
				
					<rect x="69.8" y="91.9" transform="matrix(0.7071 -0.7071 0.7071 0.7071 -34.5665 101.3151)" class="st44" width="70.5" height="1"/>
				
					<rect x="70.5" y="92.6" transform="matrix(0.7071 -0.7071 0.7071 0.7071 -34.8739 102.0571)" class="st45" width="70.5" height="1"/>
				
					<rect x="71.3" y="93.3" transform="matrix(0.7071 -0.7071 0.7071 0.7071 -35.1812 102.7991)" class="st46" width="70.5" height="1"/>
				
					<rect x="72" y="94.1" transform="matrix(0.7071 -0.7071 0.7071 0.7071 -35.4885 103.5411)" class="st47" width="70.5" height="1"/>
				
					<rect x="72.8" y="94.8" transform="matrix(0.7071 -0.7071 0.7071 0.7071 -35.7959 104.283)" class="st48" width="70.5" height="1"/>
				
					<rect x="73.5" y="95.6" transform="matrix(0.7071 -0.7071 0.7071 0.7071 -36.1032 105.025)" class="st49" width="70.5" height="1"/>
				
					<rect x="74.2" y="96.3" transform="matrix(0.7071 -0.7071 0.7071 0.7071 -36.4106 105.767)" class="st50" width="70.5" height="1"/>
				
					<rect x="75" y="97.1" transform="matrix(0.7071 -0.7071 0.7071 0.7071 -36.7179 106.5089)" class="st51" width="70.5" height="1"/>
				
					<rect x="75.7" y="97.8" transform="matrix(0.7071 -0.7071 0.7071 0.7071 -37.0252 107.2509)" class="st52" width="70.5" height="1"/>
				
					<rect x="76.5" y="98.5" transform="matrix(0.7071 -0.7071 0.7071 0.7071 -37.3326 107.9929)" class="st53" width="70.5" height="1"/>
				
					<rect x="77.2" y="99.3" transform="matrix(0.7071 -0.7071 0.7071 0.7071 -37.6399 108.7349)" class="st54" width="70.5" height="1"/>
				
					<rect x="77.9" y="100" transform="matrix(0.7071 -0.7071 0.7071 0.7071 -37.9472 109.4768)" class="st55" width="70.5" height="1"/>
				
					<rect x="78.7" y="100.8" transform="matrix(0.7071 -0.7071 0.7071 0.7071 -38.2546 110.2188)" class="st56" width="70.5" height="1"/>
				
					<rect x="79.4" y="101.5" transform="matrix(0.7071 -0.7071 0.7071 0.7071 -38.5619 110.9608)" class="st57" width="70.5" height="1"/>
				
					<rect x="80.2" y="102.2" transform="matrix(0.7071 -0.7071 0.7071 0.7071 -38.8692 111.7027)" class="st58" width="70.5" height="1"/>
				
					<rect x="80.9" y="103" transform="matrix(0.7071 -0.7071 0.7071 0.7071 -39.1766 112.4447)" class="st59" width="70.5" height="1"/>
				
					<rect x="81.7" y="103.7" transform="matrix(0.7071 -0.7071 0.7071 0.7071 -39.4839 113.1867)" class="st60" width="70.5" height="1"/>
				
					<rect x="82.4" y="104.5" transform="matrix(0.7071 -0.7071 0.7071 0.7071 -39.7912 113.9286)" class="st61" width="70.5" height="1"/>
				
					<rect x="83.1" y="105.2" transform="matrix(0.7071 -0.7071 0.7071 0.7071 -40.0986 114.6706)" class="st62" width="70.5" height="1"/>
				
					<rect x="83.9" y="106" transform="matrix(0.7071 -0.7071 0.7071 0.7071 -40.4059 115.4126)" class="st63" width="70.5" height="1"/>
				
					<rect x="84.6" y="106.7" transform="matrix(0.7071 -0.7071 0.7071 0.7071 -40.7132 116.1546)" class="st64" width="70.5" height="1"/>
				
					<rect x="85.4" y="107.4" transform="matrix(0.7071 -0.7071 0.7071 0.7071 -41.0206 116.8965)" class="st65" width="70.5" height="1"/>
				
					<rect x="86.1" y="108.2" transform="matrix(0.7071 -0.7071 0.7071 0.7071 -41.3279 117.6385)" class="st66" width="70.5" height="1"/>
				
					<rect x="86.8" y="108.9" transform="matrix(0.7071 -0.7071 0.7071 0.7071 -41.6352 118.3805)" class="st67" width="70.5" height="1"/>
				
					<rect x="87.6" y="109.7" transform="matrix(0.7071 -0.7071 0.7071 0.7071 -41.9426 119.1224)" class="st68" width="70.5" height="1"/>
				
					<rect x="88.3" y="110.4" transform="matrix(0.7071 -0.7071 0.7071 0.7071 -42.2499 119.8644)" class="st69" width="70.5" height="1"/>
				
					<rect x="89.1" y="111.1" transform="matrix(0.7071 -0.7071 0.7071 0.7071 -42.5572 120.6064)" class="st70" width="70.5" height="1"/>
				
					<rect x="89.8" y="111.9" transform="matrix(0.7071 -0.7071 0.7071 0.7071 -42.8646 121.3484)" class="st71" width="70.5" height="1"/>
				
					<rect x="90.6" y="112.6" transform="matrix(0.7071 -0.7071 0.7071 0.7071 -43.1719 122.0903)" class="st72" width="70.5" height="1"/>
				
					<rect x="91.3" y="113.4" transform="matrix(0.7071 -0.7071 0.7071 0.7071 -43.4792 122.8323)" class="st73" width="70.5" height="1"/>
				
					<rect x="92" y="114.1" transform="matrix(0.7071 -0.7071 0.7071 0.7071 -43.7866 123.5743)" class="st74" width="70.5" height="1"/>
				
					<rect x="92.8" y="114.9" transform="matrix(0.7071 -0.7071 0.7071 0.7071 -44.0939 124.3162)" class="st75" width="70.5" height="1"/>
				
					<rect x="93.5" y="115.6" transform="matrix(0.7071 -0.7071 0.7071 0.7071 -44.4012 125.0582)" class="st76" width="70.5" height="1"/>
				
					<rect x="94.3" y="116.3" transform="matrix(0.7071 -0.7071 0.7071 0.7071 -44.7086 125.8002)" class="st77" width="70.5" height="1"/>
				
					<rect x="95" y="117.1" transform="matrix(0.7071 -0.7071 0.7071 0.7071 -45.0159 126.5422)" class="st78" width="70.5" height="1"/>
				
					<rect x="95.8" y="117.8" transform="matrix(0.7071 -0.7071 0.7071 0.7071 -45.3232 127.2841)" class="st79" width="70.5" height="1"/>
				
					<rect x="96.5" y="118.6" transform="matrix(0.7071 -0.7071 0.7071 0.7071 -45.6306 128.0261)" class="st80" width="70.5" height="1"/>
				
					<rect x="97.2" y="119.3" transform="matrix(0.7071 -0.7071 0.7071 0.7071 -45.9379 128.7681)" class="st81" width="70.5" height="1"/>
				
					<rect x="98" y="120.1" transform="matrix(0.7071 -0.7071 0.7071 0.7071 -46.2453 129.51)" class="st82" width="70.5" height="1"/>
				
					<rect x="98.7" y="120.8" transform="matrix(0.7071 -0.7071 0.7071 0.7071 -46.5526 130.252)" class="st83" width="70.5" height="1"/>
				
					<rect x="99.5" y="121.5" transform="matrix(0.7071 -0.7071 0.7071 0.7071 -46.8599 130.994)" class="st84" width="70.5" height="1"/>
				
					<rect x="100.2" y="122.3" transform="matrix(0.7071 -0.7071 0.7071 0.7071 -47.1673 131.7359)" class="st85" width="70.5" height="1"/>
				
					<rect x="100.9" y="123" transform="matrix(0.7071 -0.7071 0.7071 0.7071 -47.4746 132.4779)" class="st86" width="70.5" height="1"/>
				
					<rect x="101.7" y="123.8" transform="matrix(0.7071 -0.7071 0.7071 0.7071 -47.7819 133.2199)" class="st87" width="70.5" height="1"/>
				<polygon class="st88" points="162.2,99.7 162.3,99.8 162.3,101.2 113.8,149.6 112.4,149.6 112.4,149.6 				"/>
				<polygon class="st89" points="162.3,102.6 115.3,149.6 113.8,149.6 162.3,101.2 				"/>
				<polygon class="st89" points="115.3,149.6 162.3,102.6 162.3,149.6 				"/>
			</g>
		</g>
		<g class="st0">
			<circle class="st2" cx="123.4" cy="110.2" r="19"/>
		</g>
		<g class="st0">
			<circle class="st2" cx="161.4" cy="110.2" r="19"/>
		</g>
		<g class="st0">
			<g>
				<path class="st90" d="M84.1,44.2c-22.4,0.3-40.2,18.7-39.9,41c0.3,22.4,18.7,40.2,41,39.9c22.4-0.3,40.2-18.7,40-41
					C124.9,61.8,106.5,43.9,84.1,44.2z M85,107.1c-12.4,0.2-22.5-9.7-22.7-22.1C62.1,72.6,72,62.5,84.4,62.3
					c12.4-0.2,22.5,9.7,22.7,22.1C107.2,96.8,97.3,106.9,85,107.1z"/>
			</g>
			<g>
				<g>
					<g>
						<path class="st91" d="M84.1,42.2c-23.5,0.3-42.2,19.6-41.9,43.1c0.3,23.5,19.6,42.2,43.1,41.9c23.5-0.3,42.2-19.6,41.9-43.1
							C126.9,60.6,107.6,41.9,84.1,42.2L84.1,42.2z M84.2,47.7c6.3-0.1,12.3,1.4,17.6,4.2L96,61.4c-3.4-1.7-7.3-2.6-11.3-2.6
							c-4.1,0-7.9,0.9-11.3,2.6l-5.7-9.5C72.6,49.3,78.2,47.8,84.2,47.7L84.2,47.7z M61.4,96l-9.5,5.7c-2.6-5-4.1-10.6-4.2-16.6
							c-0.1-6.3,1.4-12.3,4.2-17.6l9.5,5.7c-1.7,3.4-2.6,7.3-2.6,11.3C58.8,88.8,59.7,92.6,61.4,96L61.4,96z M84.7,105
							c-11.2,0-20.3-9.1-20.3-20.3c0-11.2,9.1-20.3,20.3-20.3S105,73.5,105,84.7C105,95.9,95.9,105,84.7,105L84.7,105z M107.9,96
							c1.7-3.4,2.6-7.3,2.6-11.3c0-4.1-0.9-7.9-2.6-11.3l9.5-5.7c2.6,5,4.1,10.6,4.2,16.6c0.1,6.3-1.4,12.3-4.2,17.6L107.9,96z
							 M107.9,96"/>
					</g>
				</g>
			</g>
			<g>
				<path class="st92" d="M84.7,42.5v20.6c0,0,0,0,0,0c11.2,0,20.2,9.8,20.2,21c0,11.2-9,21-20.2,21c0,0,0,0,0,0V127
					c0,0,0.4,0,0.6,0c23.3-0.3,42-19.5,41.7-42.8C126.6,61,107.7,42.5,84.7,42.5z"/>
			</g>
		</g>
		<g class="st0">
			<circle class="st3" cx="-9.3" cy="125.9" r="19"/>
		</g>
		<g class="st0">
			<circle class="st4" cx="28.6" cy="125.9" r="19"/>
		</g>
		<g class="st0">
			<circle class="st4" cx="66.5" cy="125.9" r="19"/>
		</g>
		<g class="st0">
			<circle class="st4" cx="104.5" cy="125.9" r="19"/>
		</g>
		<g class="st0">
			<circle class="st4" cx="142.4" cy="125.9" r="19"/>
		</g>
		<g class="st0">
			<circle class="st3" cx="180.3" cy="125.9" r="19"/>
		</g>
		<g class="st0">
			<circle class="st1" cx="9.7" cy="144.8" r="19"/>
		</g>
		<g class="st0">
			<circle class="st2" cx="47.6" cy="144.8" r="19"/>
		</g>
		<g class="st0">
			<circle class="st2" cx="85.5" cy="144.8" r="19"/>
		</g>
		<g class="st0">
			<circle class="st2" cx="123.4" cy="144.8" r="19"/>
		</g>
		<g class="st0">
			<circle class="st1" cx="161.4" cy="144.8" r="19"/>
		</g>
		<g class="st0">
			<circle class="st3" cx="-9.3" cy="160.5" r="19"/>
		</g>
		<g class="st0">
			<circle class="st3" cx="28.6" cy="160.5" r="19"/>
		</g>
		<g class="st0">
			<circle class="st4" cx="66.5" cy="160.5" r="19"/>
		</g>
		<g class="st0">
			<circle class="st4" cx="104.5" cy="160.5" r="19"/>
		</g>
		<g class="st0">
			<circle class="st3" cx="142.4" cy="160.5" r="19"/>
		</g>
		<g class="st0">
			<circle class="st3" cx="180.3" cy="160.5" r="19"/>
		</g>
		<g class="st0">
			<circle class="st1" cx="9.7" cy="179.5" r="19"/>
		</g>
		<g class="st0">
			<circle class="st1" cx="47.6" cy="179.5" r="19"/>
		</g>
		<g class="st0">
			<circle class="st2" cx="85.5" cy="179.5" r="19"/>
		</g>
		<g class="st0">
			<circle class="st1" cx="123.4" cy="179.5" r="19"/>
		</g>
		<g class="st0">
			<circle class="st1" cx="161.4" cy="179.5" r="19"/>
		</g>
	</g>
</g>
</svg>
