<?xml version="1.0" encoding="utf-8"?>
<!-- Generator: Adobe Illustrator 19.2.1, SVG Export Plug-In . SVG Version: 6.00 Build 0)  -->
<svg width="169" height="169" version="1.1" id="Слой_1" xmlns="http://www.w3.org/2000/svg" xmlns:xlink="http://www.w3.org/1999/xlink" x="0px" y="0px"
	 viewBox="0 0 169.4 169.4" style="enable-background:new 0 0 169.4 169.4;" xml:space="preserve">
<style type="text/css">
	.st0{fill:#B1C86F;}
	.st1{opacity:0.2;clip-path:url(#SVGID_2_);}
	.st2{fill:#FFFFFF;}
	.st3{clip-path:url(#SVGID_4_);fill:#E0E0DF;}
	.st4{clip-path:url(#SVGID_4_);fill:#E1E1E0;}
	.st5{clip-path:url(#SVGID_4_);fill:#E2E2E1;}
	.st6{clip-path:url(#SVGID_4_);fill:#E3E3E2;}
	.st7{clip-path:url(#SVGID_4_);fill:#E4E4E3;}
	.st8{clip-path:url(#SVGID_4_);fill:#E5E5E4;}
	.st9{clip-path:url(#SVGID_4_);fill:#E6E6E5;}
	.st10{clip-path:url(#SVGID_4_);fill:#E7E7E6;}
	.st11{clip-path:url(#SVGID_4_);fill:#E8E8E7;}
	.st12{clip-path:url(#SVGID_4_);fill:#E9E9E8;}
	.st13{clip-path:url(#SVGID_4_);fill:#EAEAE9;}
	.st14{clip-path:url(#SVGID_4_);fill:#EBEBEA;}
	.st15{clip-path:url(#SVGID_4_);fill:#ECECEB;}
	.st16{clip-path:url(#SVGID_4_);fill:#EDEDEC;}
	.st17{clip-path:url(#SVGID_4_);fill:#EEEEED;}
	.st18{clip-path:url(#SVGID_4_);fill:#EFEFEE;}
	.st19{clip-path:url(#SVGID_4_);fill:#F0F0EF;}
	.st20{clip-path:url(#SVGID_4_);fill:#F1F1F0;}
	.st21{clip-path:url(#SVGID_4_);fill:#F2F2F1;}
	.st22{clip-path:url(#SVGID_4_);fill:#F4F3F2;}
	.st23{clip-path:url(#SVGID_4_);fill:#F5F4F3;}
	.st24{clip-path:url(#SVGID_4_);fill:#F6F5F5;}
	.st25{clip-path:url(#SVGID_4_);fill:#F7F7F6;}
	.st26{clip-path:url(#SVGID_4_);fill:#F8F8F7;}
	.st27{clip-path:url(#SVGID_4_);fill:#FAF9F9;}
	.st28{clip-path:url(#SVGID_4_);fill:#FBFBFB;}
	.st29{clip-path:url(#SVGID_4_);fill:#FDFDFD;}
	.st30{clip-path:url(#SVGID_4_);fill:#FFFFFF;}
	.st31{fill:#EBEBEB;}
	.st32{fill-rule:evenodd;clip-rule:evenodd;fill:#FFFFFF;}
	.st33{fill-rule:evenodd;clip-rule:evenodd;fill:#F8994B;}
</style>
<g>
	<g>
		<path class="st0" d="M64.2,160.9L8.5,105.2c-11.3-11.3-11.3-29.7,0-41L64.2,8.5c11.3-11.3,29.7-11.3,41,0l55.7,55.7
			c11.3,11.3,11.3,29.7,0,41l-55.7,55.7C93.9,172.2,75.5,172.2,64.2,160.9z"/>
	</g>
</g>
<g>
	<defs>
		<path id="SVGID_1_" d="M64.2,160.9L8.5,105.2c-11.3-11.3-11.3-29.7,0-41L64.2,8.5c11.3-11.3,29.7-11.3,41,0l55.7,55.7
			c11.3,11.3,11.3,29.7,0,41l-55.7,55.7C93.9,172.2,75.5,172.2,64.2,160.9z"/>
	</defs>
	<clipPath id="SVGID_2_">
		<use xlink:href="#SVGID_1_"  style="overflow:visible;"/>
	</clipPath>
	<g class="st1">
		<g>
			<path class="st2" d="M115.2,148.2h-94c-2.2,0-4-1.8-4-4V139c0-2.2,1.8-4,4-4h94c2.2,0,4,1.8,4,4v5.1
				C119.2,146.4,117.4,148.2,115.2,148.2z"/>
		</g>
		<g>
			<path class="st2" d="M115.2,174.3H91c-2.2,0-4-1.8-4-4V157c0-2.2,1.8-4,4-4h24.2c2.2,0,4,1.8,4,4v13.4
				C119.2,172.6,117.4,174.3,115.2,174.3z"/>
		</g>
		<g>
			<path class="st2" d="M77.2,173.3H53c-2.2,0-4-1.8-4-4V156c0-2.2,1.8-4,4-4h24.2c2.2,0,4,1.8,4,4v13.4
				C81.2,171.6,79.4,173.3,77.2,173.3z"/>
		</g>
		<g>
			<path class="st2" d="M68.3,34H7.2c-2.2,0-4-1.8-4-4v-84.5c0-2.2,1.8-4,4-4h61.1c2.2,0,4,1.8,4,4V30C72.3,32.2,70.5,34,68.3,34z"
				/>
		</g>
		<g>
			<path class="st2" d="M41.8,131h-4c-2.2,0-4-1.8-4-4V42.4c0-2.2,1.8-4,4-4h4c2.2,0,4,1.8,4,4V127C45.8,129.2,44,131,41.8,131z"/>
		</g>
		<g>
			<path class="st2" d="M25.3,102.2h-43c-2.2,0-4-1.8-4-4V42.4c0-2.2,1.8-4,4-4h43c2.2,0,4,1.8,4,4v55.8
				C29.3,100.4,27.5,102.2,25.3,102.2z"/>
		</g>
		<g>
			<path class="st2" d="M25.3,170.4h-43c-2.2,0-4-1.8-4-4v-55.8c0-2.2,1.8-4,4-4h43c2.2,0,4,1.8,4,4v55.8
				C29.3,168.6,27.5,170.4,25.3,170.4z"/>
		</g>
		<g>
			<path class="st2" d="M149.7,75.2h-22.5c-2.2,0-4-1.8-4-4V42.4c0-2.2,1.8-4,4-4h22.5c2.2,0,4,1.8,4,4v28.8
				C153.7,73.4,151.9,75.2,149.7,75.2z"/>
		</g>
		<g>
			<path class="st2" d="M188.3,149.2h-61.1c-2.2,0-4-1.8-4-4V83.7c0-2.2,1.8-4,4-4h61.1c2.2,0,4,1.8,4,4v61.4
				C192.3,147.4,190.5,149.2,188.3,149.2z"/>
		</g>
		<g>
			<path class="st2" d="M141.7,34H80.7c-2.2,0-4-1.8-4-4v-3.4c0-2.2,1.8-4,4-4h61.1c2.2,0,4,1.8,4,4V30
				C145.7,32.2,143.9,34,141.7,34z"/>
		</g>
		<g>
			<path class="st2" d="M141.7,17.9H80.7c-2.2,0-4-1.8-4-4V-1.6c0-2.2,1.8-4,4-4h61.1c2.2,0,4,1.8,4,4v15.5
				C145.7,16.1,143.9,17.9,141.7,17.9z"/>
		</g>
	</g>
</g>
<g>
	<g>
		<defs>
			<path id="SVGID_3_" d="M120.7,40.9l43.8,43.8c4.7,4.7,4.7,12.3,0,17l-62,62c-4.7,4.7-12.3,4.7-17,0l-32-32"/>
		</defs>
		<clipPath id="SVGID_4_">
			<use xlink:href="#SVGID_3_"  style="overflow:visible;"/>
		</clipPath>
		<polygon class="st3" points="120.7,40.9 53.4,108.2 53.4,40.9 		"/>
		<polygon class="st3" points="123.5,40.9 124,41.4 53.4,111.9 53.4,108.2 120.7,40.9 		"/>
		<polygon class="st4" points="124,41.4 125.8,43.3 53.4,115.7 53.4,111.9 		"/>
		<polygon class="st5" points="125.8,43.3 127.7,45.1 53.4,119.4 53.4,115.7 		"/>
		<polygon class="st6" points="127.7,45.1 129.6,47 53.4,123.1 53.4,119.4 		"/>
		<polygon class="st7" points="129.6,47 131.4,48.9 53.4,126.9 53.4,123.1 		"/>
		<polygon class="st8" points="131.4,48.9 133.3,50.7 53.4,130.6 53.4,126.9 		"/>
		<polygon class="st9" points="133.3,50.7 135.2,52.6 53.4,134.3 53.4,130.6 		"/>
		<polygon class="st10" points="135.2,52.6 137,54.5 55.2,136.3 53.4,134.5 53.4,134.3 		"/>
		
			<rect x="39.2" y="95" transform="matrix(0.7071 -0.7071 0.7071 0.7071 -39.6768 96.8255)" class="st11" width="115.7" height="2.6"/>
		
			<rect x="41" y="96.9" transform="matrix(0.7071 -0.7071 0.7071 0.7071 -40.45 98.6923)" class="st12" width="115.7" height="2.6"/>
		
			<rect x="42.9" y="98.7" transform="matrix(0.7071 -0.7071 0.7071 0.7071 -41.2233 100.559)" class="st13" width="115.7" height="2.6"/>
		
			<rect x="44.8" y="100.6" transform="matrix(0.7071 -0.7071 0.7071 0.7071 -41.9965 102.4258)" class="st14" width="115.7" height="2.6"/>
		
			<rect x="46.6" y="102.5" transform="matrix(0.7071 -0.7071 0.7071 0.7071 -42.7697 104.2925)" class="st15" width="115.7" height="2.6"/>
		
			<rect x="48.5" y="104.3" transform="matrix(0.7071 -0.7071 0.7071 0.7071 -43.543 106.1593)" class="st16" width="115.7" height="2.6"/>
		
			<rect x="50.4" y="106.2" transform="matrix(0.7071 -0.7071 0.7071 0.7071 -44.3162 108.026)" class="st17" width="115.7" height="2.6"/>
		
			<rect x="52.2" y="108.1" transform="matrix(0.7071 -0.7071 0.7071 0.7071 -45.0894 109.8928)" class="st18" width="115.7" height="2.6"/>
		
			<rect x="54.1" y="109.9" transform="matrix(0.7071 -0.7071 0.7071 0.7071 -45.8627 111.7596)" class="st19" width="115.7" height="2.6"/>
		
			<rect x="56" y="111.8" transform="matrix(0.7071 -0.7071 0.7071 0.7071 -46.6359 113.6263)" class="st20" width="115.7" height="2.6"/>
		
			<rect x="57.8" y="113.7" transform="matrix(0.7071 -0.7071 0.7071 0.7071 -47.4091 115.4931)" class="st21" width="115.7" height="2.6"/>
		
			<rect x="59.7" y="115.5" transform="matrix(0.7071 -0.7071 0.7071 0.7071 -48.1824 117.3598)" class="st22" width="115.7" height="2.6"/>
		
			<rect x="61.6" y="117.4" transform="matrix(0.7071 -0.7071 0.7071 0.7071 -48.9556 119.2266)" class="st23" width="115.7" height="2.6"/>
		
			<rect x="63.4" y="119.3" transform="matrix(0.7071 -0.7071 0.7071 0.7071 -49.7288 121.0933)" class="st24" width="115.7" height="2.6"/>
		
			<rect x="65.3" y="121.1" transform="matrix(0.7071 -0.7071 0.7071 0.7071 -50.5021 122.9601)" class="st25" width="115.7" height="2.6"/>
		
			<rect x="67.2" y="123" transform="matrix(0.7071 -0.7071 0.7071 0.7071 -51.2753 124.8268)" class="st26" width="115.7" height="2.6"/>
		
			<rect x="69" y="124.9" transform="matrix(0.7071 -0.7071 0.7071 0.7071 -52.0485 126.6936)" class="st27" width="115.7" height="2.6"/>
		<polygon class="st28" points="168.8,86.2 169.1,86.6 169.1,89.5 90.3,168.4 87.3,168.4 86.9,168 		"/>
		<polygon class="st29" points="169.1,93.3 94,168.4 90.3,168.4 169.1,89.5 		"/>
		<polygon class="st30" points="169.1,97 97.7,168.4 94,168.4 169.1,93.3 		"/>
		<polygon class="st30" points="97.7,168.4 169.1,97 169.1,168.4 		"/>
	</g>
</g>
<g>
	<g>
		<path class="st31" d="M115.2,131H54.1c-2.2,0-4-1.8-4-4V42.4c0-2.2,1.8-4,4-4h61.1c2.2,0,4,1.8,4,4V127
			C119.2,129.2,117.4,131,115.2,131z"/>
	</g>
</g>
<g>
	<path class="st2" d="M85,38.1H54.1c-2.2,0-4.1,2.1-4.1,4.3V127c0,2.2,1.9,4.2,4.1,4.2H85V38.1z"/>
</g>
<g>
	<g>
		<g>
			<path class="st32" d="M91.6,62c0,3.3-2.7,5.9-5.9,5.9c-3.3,0-5.9-2.7-5.9-5.9c0-3.3,2.7-5.9,5.9-5.9C88.9,56.1,91.6,58.8,91.6,62
				L91.6,62z M91.6,62"/>
		</g>
		<g>
			<path class="st32" d="M97.1,110.1h-3.9c-0.9,0-1.2-0.3-1.2-1.2V74.3c0-0.9-1.1-1.2-2-1.2H74.3c-0.9,0-1.3,0.3-1.3,1.2v1.5
				c0,0.9,0.4,1.3,1.3,1.3h3.9c0.9,0,1.9,1,1.9,1.9v29.9c0,0.9-1,1.2-1.9,1.2h-3.9c-0.9,0-1.3,1.1-1.3,2v1.5c0,0.9,0.4,1.5,1.3,1.5
				h22.8c0.9,0,1.9-0.6,1.9-1.5v-1.5C99,111.2,98,110.1,97.1,110.1z M98.7,110.5"/>
		</g>
	</g>
	<g>
		<g>
			<path class="st33" d="M90.6,61c0,3.3-2.7,5.9-5.9,5.9c-3.3,0-5.9-2.7-5.9-5.9c0-3.3,2.7-5.9,5.9-5.9C87.9,55.1,90.6,57.8,90.6,61
				L90.6,61z M90.6,61"/>
		</g>
		<g>
			<path class="st33" d="M96.1,109.1h-3.9c-0.9,0-1.2-0.3-1.2-1.2V73.3c0-0.9-1.1-1.2-2-1.2H73.3c-0.9,0-1.3,0.3-1.3,1.2v1.5
				c0,0.9,0.4,1.3,1.3,1.3h3.9c0.9,0,1.9,1,1.9,1.9v29.9c0,0.9-1,1.2-1.9,1.2h-3.9c-0.9,0-1.3,1.1-1.3,2v1.5c0,0.9,0.4,1.5,1.3,1.5
				h22.8c0.9,0,1.9-0.6,1.9-1.5v-1.5C98,110.2,97,109.1,96.1,109.1z M97.7,109.5"/>
		</g>
	</g>
</g>
</svg>
