<?xml version="1.0" encoding="utf-8"?>
<!-- Generator: Adobe Illustrator 19.0.0, SVG Export Plug-In . SVG Version: 6.00 Build 0)  -->
<svg version="1.1" id="Слой_1" xmlns="http://www.w3.org/2000/svg" xmlns:xlink="http://www.w3.org/1999/xlink" x="0px" y="0px"
	 viewBox="0 0 93.5 21.6" style="enable-background:new 0 0 93.5 21.6;" xml:space="preserve">
<style type="text/css">
	.st0{fill:#FFFFFF;}
</style>
<g>
	<g>
		<path class="st0" d="M14.5,11.5c0-2.7,2.2-4,2.3-4.1c-1.3-1.8-3.2-2.1-3.9-2.1c-1.6-0.2-3.2,1-4.1,1c-0.9,0-2.1-1-3.5-0.9
			c-1.8,0-3.5,1.1-4.4,2.7c-1.9,3.3-0.5,8.1,1.3,10.8c0.9,1.3,2,2.8,3.4,2.7c1.4-0.1,1.9-0.9,3.5-0.9c1.6,0,2.1,0.9,3.5,0.8
			c1.5,0,2.4-1.3,3.3-2.6c1.1-1.5,1.5-3,1.5-3C17.3,15.9,14.5,14.8,14.5,11.5z"/>
		<path class="st0" d="M11.8,3.6c0.7-0.9,1.2-2.2,1.1-3.4c-1.1,0-2.4,0.7-3.1,1.6C9.1,2.6,8.5,3.9,8.7,5.1
			C9.8,5.2,11.1,4.5,11.8,3.6z"/>
	</g>
</g>
<g>
	<path class="st0" d="M33.3,17.1h-2l-1.1-3.4h-3.8l-1,3.4h-1.9l3.8-11.7h2.3L33.3,17.1z M29.9,12.2l-1-3c-0.1-0.3-0.3-1-0.6-2.2h0
		c-0.1,0.5-0.3,1.2-0.6,2.2l-1,3H29.9z"/>
	<path class="st0" d="M43,12.8c0,1.4-0.4,2.6-1.2,3.4c-0.7,0.7-1.6,1.1-2.6,1.1c-1.1,0-1.9-0.4-2.4-1.2h0v4.4h-1.9v-9.1
		c0-0.9,0-1.8-0.1-2.8h1.6l0.1,1.3h0c0.6-1,1.6-1.5,2.8-1.5c1,0,1.8,0.4,2.5,1.2C42.6,10.4,43,11.5,43,12.8z M41.1,12.8
		c0-0.8-0.2-1.5-0.6-2c-0.4-0.6-0.9-0.8-1.6-0.8c-0.5,0-0.9,0.2-1.3,0.5c-0.4,0.3-0.6,0.7-0.7,1.2c-0.1,0.2-0.1,0.4-0.1,0.6v1.4
		c0,0.6,0.2,1.1,0.6,1.6c0.4,0.4,0.9,0.6,1.5,0.6c0.7,0,1.3-0.3,1.6-0.8C40.9,14.4,41.1,13.7,41.1,12.8z"/>
	<path class="st0" d="M52.7,12.8c0,1.4-0.4,2.6-1.2,3.4c-0.7,0.7-1.6,1.1-2.6,1.1c-1.1,0-1.9-0.4-2.4-1.2h0v4.4h-1.9v-9.1
		c0-0.9,0-1.8-0.1-2.8h1.6l0.1,1.3h0c0.6-1,1.6-1.5,2.8-1.5c1,0,1.8,0.4,2.5,1.2C52.3,10.4,52.7,11.5,52.7,12.8z M50.7,12.8
		c0-0.8-0.2-1.5-0.6-2c-0.4-0.6-0.9-0.8-1.6-0.8c-0.5,0-0.9,0.2-1.3,0.5c-0.4,0.3-0.6,0.7-0.7,1.2c-0.1,0.2-0.1,0.4-0.1,0.6v1.4
		c0,0.6,0.2,1.1,0.6,1.6c0.4,0.4,0.9,0.6,1.5,0.6c0.7,0,1.3-0.3,1.6-0.8C50.6,14.4,50.7,13.7,50.7,12.8z"/>
	<path class="st0" d="M63.5,13.8c0,1-0.3,1.8-1,2.4c-0.8,0.7-1.8,1-3.2,1c-1.3,0-2.3-0.2-3-0.7l0.4-1.6c0.8,0.5,1.7,0.7,2.7,0.7
		c0.7,0,1.3-0.2,1.6-0.5c0.4-0.3,0.6-0.7,0.6-1.3c0-0.5-0.2-0.9-0.5-1.2c-0.3-0.3-0.9-0.6-1.6-0.9c-2-0.8-3.1-1.9-3.1-3.3
		c0-1,0.4-1.7,1.1-2.4c0.7-0.6,1.7-0.9,2.9-0.9c1.1,0,1.9,0.2,2.7,0.6l-0.5,1.5c-0.7-0.4-1.4-0.5-2.2-0.5c-0.7,0-1.2,0.2-1.5,0.5
		c-0.3,0.3-0.5,0.6-0.5,1.1c0,0.5,0.2,0.8,0.5,1.1c0.3,0.3,0.9,0.6,1.7,0.9c1,0.4,1.7,0.9,2.2,1.4C63.3,12.3,63.5,13,63.5,13.8z"/>
	<path class="st0" d="M69.7,10.1h-2.1v4.1c0,1,0.4,1.6,1.1,1.6c0.3,0,0.6,0,0.8-0.1l0.1,1.4c-0.4,0.1-0.9,0.2-1.5,0.2
		c-0.7,0-1.3-0.2-1.7-0.7c-0.4-0.5-0.6-1.2-0.6-2.3v-4.2h-1.2V8.7h1.2V7.1l1.8-0.6v2.1h2.1V10.1z"/>
	<path class="st0" d="M79,12.8c0,1.3-0.4,2.4-1.1,3.2c-0.8,0.9-1.8,1.3-3.1,1.3c-1.2,0-2.2-0.4-3-1.2c-0.7-0.8-1.1-1.9-1.1-3.1
		c0-1.3,0.4-2.4,1.1-3.2c0.8-0.8,1.8-1.2,3.1-1.2c1.2,0,2.2,0.4,3,1.2C78.6,10.5,79,11.5,79,12.8z M77,12.9c0-0.8-0.2-1.4-0.5-2
		c-0.4-0.7-1-1-1.7-1c-0.8,0-1.3,0.3-1.7,1c-0.3,0.6-0.5,1.2-0.5,2c0,0.8,0.2,1.4,0.5,2c0.4,0.7,1,1,1.7,1c0.7,0,1.3-0.3,1.7-1
		C76.9,14.3,77,13.6,77,12.9z"/>
	<path class="st0" d="M85.1,10.3c-0.2,0-0.4-0.1-0.6-0.1c-0.7,0-1.2,0.2-1.5,0.7c-0.3,0.4-0.5,1-0.5,1.7v4.4h-1.9l0-5.8
		c0-1,0-1.9-0.1-2.7h1.6l0.1,1.6h0.1c0.2-0.6,0.5-1,0.9-1.3c0.4-0.3,0.9-0.5,1.4-0.5c0.2,0,0.3,0,0.5,0V10.3z"/>
	<path class="st0" d="M93.4,12.5c0,0.3,0,0.6-0.1,0.8h-5.6c0,0.8,0.3,1.5,0.8,1.9c0.5,0.4,1.1,0.6,1.8,0.6c0.8,0,1.6-0.1,2.3-0.4
		l0.3,1.3c-0.8,0.3-1.7,0.5-2.8,0.5c-1.3,0-2.3-0.4-3.1-1.2c-0.7-0.8-1.1-1.8-1.1-3.1c0-1.3,0.3-2.3,1-3.2c0.7-0.9,1.7-1.4,2.9-1.4
		c1.2,0,2.1,0.5,2.8,1.4C93.2,10.5,93.4,11.4,93.4,12.5z M91.7,12c0-0.6-0.1-1-0.4-1.4C91,10,90.5,9.8,89.8,9.8
		c-0.6,0-1.1,0.3-1.5,0.8c-0.3,0.4-0.5,0.9-0.6,1.5H91.7z"/>
</g>
</svg>
