<?xml version="1.0" encoding="utf-8"?>
<!-- Generator: Adobe Illustrator 19.2.1, SVG Export Plug-In . SVG Version: 6.00 Build 0)  -->
<svg version="1.1" width="17" height="16" id="Слой_1" xmlns="http://www.w3.org/2000/svg" xmlns:xlink="http://www.w3.org/1999/xlink" x="0px" y="0px"
	 viewBox="0 0 17.4 16.6" style="enable-background:new 0 0 17.4 16.6;" xml:space="preserve">
<style type="text/css">
	.st0{fill:#F8994B;}
</style>
<g>
	<path class="st0" d="M17.4,7.9c0,0.4-0.1,0.7-0.4,1l-7.3,7.3c-0.3,0.3-0.6,0.4-1,0.4c-0.4,0-0.7-0.1-1-0.4L0.4,8.9
		C0.1,8.6,0,8.3,0,7.9c0-0.4,0.1-0.7,0.4-1L1.2,6c0.3-0.3,0.6-0.4,1-0.4c0.4,0,0.7,0.1,1,0.4l3.3,3.3V1.4c0-0.4,0.1-0.7,0.4-1
		C7.3,0.1,7.6,0,8,0h1.4c0.4,0,0.7,0.1,1,0.4c0.3,0.3,0.4,0.6,0.4,1v7.9L14.1,6c0.3-0.3,0.6-0.4,1-0.4c0.4,0,0.7,0.1,1,0.4L17,6.8
		C17.2,7.1,17.4,7.5,17.4,7.9z"/>
</g>
</svg>
