<?xml version="1.0" encoding="UTF-8" standalone="no"?>
<svg width="303px" height="253px" viewBox="0 0 303 253" version="1.1" xmlns="http://www.w3.org/2000/svg" xmlns:xlink="http://www.w3.org/1999/xlink" xmlns:sketch="http://www.bohemiancoding.com/sketch/ns">
    <!-- Generator: Sketch 3.4.4 (17249) - http://www.bohemiancoding.com/sketch -->
    <title>card-phone</title>
    <desc>Created with Sketch.</desc>
    <defs></defs>
    <g id="Page-1" stroke="none" stroke-width="1" fill="none" fill-rule="evenodd" sketch:type="MSPage">
        <g id="card-phone" sketch:type="MSLayerGroup">
            <g id="Group" sketch:type="MSShapeGroup">
                <g transform="translate(132.000000, 0.000000)">
                    <path d="M155.6,0.5 L15.4,0.5 C7.2,0.5 0.5,7.2 0.5,15.4 L0.5,237.5 C0.5,245.7 7.2,252.4 15.4,252.4 L155.6,252.4 C163.8,252.4 170.5,245.7 170.5,237.5 L170.5,15.4 C170.5,7.2 163.8,0.5 155.6,0.5 L155.6,0.5 Z" id="Shape" fill="#F3F3F3"></path>
                    <circle id="Oval" fill="#FFFFFF" cx="83.5" cy="30.9" r="7.5"></circle>
                    <circle id="Oval" fill="#FFFFFF" cx="83.6" cy="47.9" r="2.5"></circle>
                </g>
                <g>
                    <path d="M150.5,252.4 L20.5,252.4 C9.5,252.4 0.5,243.4 0.5,232.4 L0.5,20.5 C0.5,9.5 9.5,0.5 20.5,0.5 L150.5,0.5 C161.5,0.5 170.5,9.5 170.5,20.5 L170.5,232.4 C170.5,243.5 161.5,252.4 150.5,252.4 L150.5,252.4 Z" id="XMLID_36_" fill="#F3F3F4"></path>
                    <path d="M150.5,252.4 L20.5,252.4 C9.5,252.4 0.5,243.4 0.5,232.4 L0.5,20.5 C0.5,9.5 9.5,0.5 20.5,0.5 L150.5,0.5 C161.5,0.5 170.5,9.5 170.5,20.5 L170.5,232.4 C170.5,243.5 161.5,252.4 150.5,252.4 L150.5,252.4 Z" id="XMLID_18_" stroke="#CDCCCC"></path>
                </g>
                <path d="M149.3,250.4 L22.3,250.4 C11.3,250.4 2.3,241.4 2.3,230.4 L2.3,222.2 L169.3,222.2 L169.3,230.4 C169.3,241.5 160.3,250.4 149.3,250.4 L149.3,250.4 Z" id="Shape" fill="#E5E5E5"></path>
                <path d="M22.8,1.5 L148.8,1.5 C159.8,1.5 168.8,10.5 168.8,21.5 L168.8,34.2 L2.8,34.2 L2.8,21.5 C2.8,10.5 11.7,1.5 22.8,1.5 L22.8,1.5 Z" id="Shape" fill="#E5E5E5"></path>
                <circle id="Oval" fill="#F3F3F4" cx="84.8" cy="236.9" r="7.5"></circle>
                <path d="M96.8,20.4 L72.8,20.4 C71.4,20.4 70.3,19.3 70.3,17.9 L70.3,17.9 C70.3,16.5 71.4,15.4 72.8,15.4 L96.8,15.4 C98.2,15.4 99.3,16.5 99.3,17.9 L99.3,17.9 C99.3,19.3 98.2,20.4 96.8,20.4 L96.8,20.4 Z" id="Shape" fill="#F3F3F4"></path>
                <circle id="Oval" fill="#F3F3F4" cx="55.6" cy="17.9" r="2.5"></circle>
            </g>
        </g>
    </g>
</svg>