<?xml version="1.0" encoding="UTF-8" standalone="no"?>
<svg width="158px" height="104px" viewBox="0 0 158 104" version="1.1" xmlns="http://www.w3.org/2000/svg" xmlns:xlink="http://www.w3.org/1999/xlink" xmlns:sketch="http://www.bohemiancoding.com/sketch/ns">
    <!-- Generator: Sketch 3.4.4 (17249) - http://www.bohemiancoding.com/sketch -->
    <title>error-cvv</title>
    <desc>Created with Sketch.</desc>
    <defs></defs>
    <g id="Page-1" stroke="none" stroke-width="1" fill="none" fill-rule="evenodd" sketch:type="MSPage">
        <g id="error-cvv" sketch:type="MSLayerGroup" transform="translate(0.000000, -1.000000)">
            <g id="Group" fill="#CBCBCB" sketch:type="MSShapeGroup">
                <path d="M2.9,8.1 C6,3.6 11.4,0.9 16.8,1 L138.9,1 C141.7,0.9 144.7,1 147.3,2.1 C153.3,4.4 157.6,10.5 157.7,17 L157.7,88.5 C157.8,95.4 153.1,101.9 146.6,104 C143.5,105.1 140.1,104.8 136.9,104.9 L16.8,104.9 C13.1,105 9.4,103.8 6.5,101.5 C2.8,98.8 0.6,94.5 0.1,90 L0.1,15.9 C0.4,13.1 1.3,10.4 2.9,8.1 L2.9,8.1 Z M12.1,14.1 C11.2,15.2 11,16.7 11,18.1 L11,28.4 L146.8,28.4 L146.8,18.1 C146.8,16.8 146.6,15.6 145.9,14.5 C144.9,12.8 142.9,11.9 141,12 L16.8,12 C14.9,11.9 13.1,12.7 12.1,14.1 L12.1,14.1 Z M11,50.3 L11,88.6 C10.9,91.5 13.5,94.1 16.4,94 L141,94 C142.8,94.1 144.6,93.3 145.7,91.8 C146.7,90.6 146.9,89 146.8,87.5 L146.8,50.2 C104.8,50.3 52.9,50.2 11,50.3 L11,50.3 Z" id="Shape"></path>
                <path d="M27.8,61.2 C37.3,61.1 56.9,61.2 66.4,61.1 C74.8,61.2 83.2,61 91.6,61.2 C91.7,61.3 91.9,61.5 92,61.6 C92.1,63 92,64.5 92,66 C92.1,66.6 91.4,66.8 91,66.7 L28.7,66.7 C28.3,66.6 27.6,66.8 27.4,66.3 C27.3,64.8 27.3,63.2 27.4,61.7 C27.5,61.5 27.7,61.3 27.8,61.2 L27.8,61.2 Z" id="Shape"></path>
                <path d="M103.4,61.2 C111.9,61.1 120.5,61.2 129,61.1 C129.4,61.2 130.1,61 130.3,61.5 C130.4,63 130.4,64.6 130.3,66.1 C130.1,66.6 129.4,66.5 129,66.5 C120.5,66.4 111.9,66.6 103.4,66.4 C103.3,66.3 103.1,66.1 103,66 C102.9,64.5 102.9,62.9 103,61.4 C103.1,61.5 103.3,61.3 103.4,61.2 L103.4,61.2 Z" id="Shape"></path>
                <path d="M27.8,77.7 C58.1,77.6 48.4,77.7 78.7,77.6 C79.2,77.7 80,77.4 80.4,78 C80.5,79.4 80.4,80.9 80.4,82.4 C80.5,83 79.9,83.2 79.4,83.1 C57.4,83.1 85.4,83.1 63.4,83.1 C54.9,83.1 36.3,83.2 27.8,83.1 C27.7,83 27.5,82.8 27.4,82.7 C27.3,81.2 27.3,79.6 27.4,78.1 C27.5,77.9 27.7,77.7 27.8,77.7 L27.8,77.7 Z" id="Shape"></path>
            </g>
            <g id="Group" transform="translate(101.000000, 34.000000)">
                <g sketch:type="MSShapeGroup">
                    <circle id="XMLID_10_" fill="#FFFFFF" cx="25.4" cy="24.9" r="24.9"></circle>
                    <circle id="XMLID_9_" stroke="#ED4028" stroke-width="2" cx="25.4" cy="24.9" r="24.9"></circle>
                </g>
                <text id="CVV" fill="#ED4028" sketch:type="MSTextLayer" font-family="Helvetica" font-size="16" font-weight="normal">
                    <tspan x="10.1793" y="32.1803" fill="#000000">CVV</tspan>
                </text>
            </g>
        </g>
    </g>
</svg>