<?xml version="1.0" encoding="utf-8"?>
<!-- Generator: Adobe Illustrator 19.0.0, SVG Export Plug-In . SVG Version: 6.00 Build 0)  -->
<svg version="1.1" id="Слой_1" xmlns="http://www.w3.org/2000/svg" xmlns:xlink="http://www.w3.org/1999/xlink" x="0px" y="0px"
	 viewBox="0 0 50.8 23.1" style="enable-background:new 0 0 50.8 23.1;" xml:space="preserve">
<style type="text/css">
	.st0{fill:#FFFFFF;}
	.st1{font-family:'Roboto-Bold';}
	.st2{font-size:12px;}
	.st3{fill:#2D7DB3;}
</style>
<g>
	<text id="XMLID_83_" transform="matrix(1 0 0 1 29.9549 16.7882)" class="st0 st1 st2">Аpp</text>
</g>
<path class="st3" d="M23.2,21c0,1.1-0.9,2-2,2h-19c-1.1,0-2-0.9-2-2V2c0-1.1,0.9-2,2-2h19c1.1,0,2,0.9,2,2V21z"/>
<g>
	<g id="XMLID_18_">
		<path id="XMLID_19_" class="st0" d="M13.2,22V11h-2V8h2V6.2c0-1.7,1.3-3,2.3-3.9c1-0.9,2.8-1.4,4.6-1.4c0.7,0,1.6,0.1,2.3,0.3
			l0.1,3.4c-0.3-0.1-1.2-0.1-1.7-0.1c-1.4,0-2.6,0.6-2.6,1.8V8h4.1l-0.7,3h-3.4v11H13.2z"/>
	</g>
</g>
</svg>
