<?xml version="1.0" encoding="utf-8"?>
<!-- Generator: Adobe Illustrator 19.0.0, SVG Export Plug-In . SVG Version: 6.00 Build 0)  -->
<svg version="1.1" id="Слой_1" xmlns="http://www.w3.org/2000/svg" xmlns:xlink="http://www.w3.org/1999/xlink" x="0px" y="0px"
	 viewBox="0 0 88.8 18.2" style="enable-background:new 0 0 88.8 18.2;" xml:space="preserve">
<style type="text/css">
	.st0{fill-rule:evenodd;clip-rule:evenodd;fill:#FFFFFF;}
	.st1{fill-rule:evenodd;clip-rule:evenodd;fill:url(#SVGID_1_);}
	.st2{fill-rule:evenodd;clip-rule:evenodd;fill:url(#SVGID_2_);}
	.st3{fill-rule:evenodd;clip-rule:evenodd;fill:url(#SVGID_3_);}
	.st4{fill-rule:evenodd;clip-rule:evenodd;fill:url(#SVGID_4_);}
</style>
<path class="st0" d="M48.5,16.4c-0.4-0.3-0.7-0.9-0.9-1.3l1.3-0.6c0.1,0.2,0.2,0.4,0.4,0.6c0.3,0.4,0.8,0.6,1.4,0.6
	c0.5,0,1.1-0.2,1.4-0.7c0.3-0.4,0.4-0.9,0.4-1.4v-0.5c-1,1.2-3.1,1.1-4.2-0.2c-1.3-1.4-1.2-3.6,0-5c1.3-1.2,3.1-1.4,4.2-0.2
	c0,0,0,0,0,0V7.3H54v6.3c0,1.6-0.6,2.5-1.3,3.1c-0.5,0.4-1.3,0.6-2,0.6C49.8,17.2,49.1,16.9,48.5,16.4z M83.4,16.8l1.4-3.3l-2.5-5.8
	h1.4l1.8,4.1l1.7-4.1h1.4l-3.9,9.1H83.4z M76.7,13.6c-0.4-0.4-0.6-1-0.6-1.5c0-0.5,0.2-1,0.5-1.4c0.6-0.6,1.4-0.9,2.3-0.9
	c0.6,0,1.1,0.1,1.5,0.3c0-1-0.8-1.4-1.5-1.4c-0.6,0-1.2,0.3-1.4,0.9l-1.3-0.5c0.2-0.6,0.9-1.7,2.6-1.7c0.8,0,1.6,0.3,2.2,0.9
	c0.5,0.6,0.7,1.3,0.7,2.2V14h-1.4v-0.6c-0.2,0.2-0.5,0.5-0.8,0.6c-0.4,0.2-0.8,0.2-1.2,0.2C77.9,14.2,77.2,14,76.7,13.6z M32.2,10.6
	c0-1.7,1.3-3.5,3.5-3.5c2.2,0,3.5,1.8,3.5,3.5c0,1.7-1.3,3.5-3.5,3.5C33.5,14.1,32.2,12.2,32.2,10.6z M39.7,10.6
	c0-1.7,1.3-3.5,3.5-3.5c2.2,0,3.5,1.8,3.5,3.5c0,1.7-1.3,3.5-3.5,3.5C41,14.1,39.7,12.2,39.7,10.6z M22.8,12.4
	c-2.1-2.1-2-5.5,0.1-7.6c1.1-1.1,2.4-1.6,3.8-1.6c1.3,0,2.7,0.5,3.7,1.5l-1,1.1c-1.5-1.5-3.9-1.4-5.4,0.1c-1.5,1.5-1.5,4,0,5.6
	c1.5,1.5,4,1.6,5.5,0.1c0.5-0.5,0.7-1.2,0.8-1.9h-3.5V8.1h5c0.1,0.4,0.1,0.8,0.1,1.1c0,1.2-0.5,2.5-1.3,3.4c-0.9,1-2.2,1.5-3.6,1.4
	C25.3,14.1,23.9,13.5,22.8,12.4z M58.1,13c-1.2-1.4-1.2-3.6,0-5c1.2-1.4,3.4-1.4,4.6,0c0.4,0.4,0.7,1,0.9,1.6l-4.6,2
	c0.3,0.5,0.8,1.1,1.6,1.1c0.7,0,1.2-0.2,1.7-1l1.2,0.8h0c-0.1,0.2-0.3,0.4-0.4,0.5C61.8,14.4,59.3,14.4,58.1,13z M66.8,14V4.8h3
	c1.8,0,3.1,1.3,3.1,2.8s-1.3,2.8-2.9,2.8h-1.8V14H66.8z M73.8,14V4.8h1.4V14H73.8z M54.9,13.9V3.5h1.5v10.3H54.9z M80.4,11.3
	c-0.3-0.2-0.9-0.3-1.3-0.3c-1,0-1.6,0.5-1.6,1.1c0,0.6,0.6,0.9,1.1,0.9C79.5,13,80.4,12.3,80.4,11.3z M37.6,10.6
	c0-1-0.7-2.1-1.9-2.1s-1.9,1.1-1.9,2.1c0,1,0.7,2.1,1.9,2.1S37.6,11.6,37.6,10.6z M45.2,10.6c0-1-0.7-2.1-1.9-2.1s-1.9,1.1-1.9,2.1
	c0,1,0.7,2.1,1.9,2.1S45.2,11.6,45.2,10.6z M52.5,11.2c0,0,0-0.1,0.1-0.3c0,0,0,0,0,0c0-0.1,0-0.2,0-0.4c0-0.1,0-0.2,0-0.3
	c0,0,0,0,0,0c0-0.1,0-0.2-0.1-0.3c-0.3-0.8-1-1.4-1.8-1.4c-1,0-1.9,1-1.9,2.1c0,1.2,0.9,2.1,1.9,2.1C51.6,12.7,52.3,12.1,52.5,11.2z
	 M58.6,10.5l3.1-1.3c-0.3-0.6-0.8-0.7-1.3-0.7C59.3,8.4,58.5,9.8,58.6,10.5z M71.4,7.6c0-0.8-0.6-1.5-1.6-1.5h-1.7l0,0v2.9H70
	C70.8,9.1,71.4,8.4,71.4,7.6z"/>
<g>
	<linearGradient id="SVGID_1_" gradientUnits="userSpaceOnUse" x1="5.1386" y1="-1.0332" x2="9.5038" y2="16.8939">
		<stop  offset="0" style="stop-color:#136F8A"/>
		<stop  offset="1" style="stop-color:#90D4D3"/>
	</linearGradient>
	<path class="st1" d="M0.1,9.1V0.9c0-0.4,0.4-0.9,0.8-0.9c0.4,0,0.6,0.1,0.7,0.2l15,8.2c0.3,0.2,0.5,0.4,0.5,0.6
		c0,0.2-0.2,0.5-0.5,0.6L1.6,18c-0.2,0.1-0.4,0.2-0.7,0.2c-0.4,0-0.8-0.4-0.8-0.9V9.1z"/>
	<linearGradient id="SVGID_2_" gradientUnits="userSpaceOnUse" x1="-0.1844" y1="1.5174" x2="11.7115" y2="7.9484">
		<stop  offset="0" style="stop-color:#3CBFBA"/>
		<stop  offset="1" style="stop-color:#DBE797"/>
	</linearGradient>
	<path class="st2" d="M9.9,9.2L0.7,0.1c0,0,0.1,0,0.1,0c0.4,0,0.6,0.1,0.7,0.2l11.1,6.1L9.9,9.2z"/>
	<linearGradient id="SVGID_3_" gradientUnits="userSpaceOnUse" x1="13.5029" y1="12.259" x2="13.5029" y2="6.0613">
		<stop  offset="0" style="stop-color:#FDC479"/>
		<stop  offset="1" style="stop-color:#F68F64"/>
	</linearGradient>
	<path class="st3" d="M12.6,12L9.9,9.2l2.9-2.9l4,2.2c0.3,0.2,0.5,0.4,0.5,0.6c0,0.2-0.2,0.5-0.5,0.6L12.6,12z"/>
	<linearGradient id="SVGID_4_" gradientUnits="userSpaceOnUse" x1="2.1195" y1="19.7824" x2="11.5162" y2="10.2193">
		<stop  offset="0" style="stop-color:#783A96"/>
		<stop  offset="1" style="stop-color:#EA3039"/>
	</linearGradient>
	<path class="st4" d="M0.8,18.2L0.8,18.2l9-9l2.8,2.8l-11,6C1.4,18.1,1.3,18.2,0.8,18.2C0.9,18.2,0.9,18.2,0.8,18.2z"/>
</g>
</svg>
