<svg id="Layer_1" data-name="Layer 1" xmlns="http://www.w3.org/2000/svg" width="71" height="23" viewBox="0 0 61.29 19.85">
  <title>ibox</title>
  <g>
    <path d="M61.29,0.4a6.06,6.06,0,0,0-7.2,2.31h0L49.6,9.55s-6.46,9.88-6.46,9.91a6.07,6.07,0,0,0,7.2-2.31h0l1.92-2.89,1.92,3a6.06,6.06,0,0,0,7.12,2.19L55.09,10c1.14-1.76,6.2-9.56,6.2-9.59m-57,3.85A4.31,4.31,0,0,0,0,0V15.55a4.32,4.32,0,0,0,4.31,4.3V4.3s0,0,0-.06m12.07,11.3H11.19V12.08h5.19a1.73,1.73,0,1,1,0,3.46m2.21-7.38v0A6.05,6.05,0,0,0,13,0H6.88a4.3,4.3,0,0,0,4.28,4.31h1.76a1.73,1.73,0,1,1,0,3.46H9A2.15,2.15,0,0,0,6.88,9.87h0v0s0,0,0,0,0,0,0,0v5.57h0a4.31,4.31,0,0,0,4.26,4.31h5.44a6.05,6.05,0,0,0,2-11.68m15.48,7.37a5.61,5.61,0,1,1,5.61-5.61,5.61,5.61,0,0,1-5.61,5.61M34.07,0A9.92,9.92,0,1,0,44,9.93,9.92,9.92,0,0,0,34.07,0" fill="#464748" fill-rule="evenodd"/>
    <path d="M43.13,0.47a5.14,5.14,0,0,1,5.68,8.4Z" fill="#df408f" fill-rule="evenodd"/>
  </g>
</svg>
