<svg id="Слой_1" data-name="Слой 1" xmlns="http://www.w3.org/2000/svg" width="53.17" height="33" viewBox="0 0 53.17 33">
  <title>maestro-white</title>
  <g>
    <path d="M53.17,16.5A16.49,16.49,0,0,1,26.58,29.55,16.5,16.5,0,1,1,16.5,0,16.4,16.4,0,0,1,26.58,3.45,16.49,16.49,0,0,1,53.17,16.5Zm-16.5-15a15,15,0,0,0-8.93,2.95,16.51,16.51,0,0,1,4.74,7.93H30.94a15,15,0,0,0-4.36-7,15,15,0,0,0-4.36,7H20.7a16.53,16.53,0,0,1,4.74-7.93,15,15,0,1,0,0,24.15,16.54,16.54,0,0,1-4.59-7.39h1.55a15,15,0,0,0,4.19,6.45,15,15,0,0,0,4.19-6.45h1.55a16.57,16.57,0,0,1-4.59,7.39A15,15,0,1,0,36.67,1.48Zm13.49,19a0.53,0.53,0,1,0-.53-0.53A0.54,0.54,0,0,0,50.16,20.46Zm-0.41-.53a0.41,0.41,0,1,1,.41.4A0.41,0.41,0,0,1,49.75,19.93Zm0.34,0.23H50V19.7h0.2a0.21,0.21,0,0,1,.12,0,0.14,0.14,0,0,1,.06.12,0.13,0.13,0,0,1-.08.12l0.09,0.2H50.23L50.17,20H50.09v0.18Zm0-.26h0.13a0.06,0.06,0,0,0,0-.05,0.06,0.06,0,0,0,0,0H50.09V19.9ZM51,25.7a0.53,0.53,0,1,1,.53.53A0.54,0.54,0,0,1,51,25.7Zm0.53,0.4a0.41,0.41,0,1,0,0-.81A0.41,0.41,0,0,0,51.5,26.11Zm-0.07-.36h0.08l0.07,0.19H51.7l-0.09-.21a0.13,0.13,0,0,0,.08-0.12,0.16,0.16,0,0,0-.06-0.12,0.21,0.21,0,0,0-.12,0h-0.2v0.47h0.11V25.75Zm0-.2h0.13a0.07,0.07,0,0,1,0,0,0.07,0.07,0,0,1,0,.06H51.43V25.55Z" fill="#fff"/>
    <g>
      <path d="M27.29,19.8a6.25,6.25,0,0,1-1.65.22c-1.8,0-2.73-.82-2.73-2.39a2.92,2.92,0,0,1,2.81-3.17,1.92,1.92,0,0,1,2.17,1.94,5,5,0,0,1-.2,1.31h-3.2c-0.11.76,0.44,1.1,1.39,1.1a4.26,4.26,0,0,0,1.65-.33Zm-0.86-3.17a0.73,0.73,0,0,0-.75-1,1.06,1.06,0,0,0-1,1h1.77Z" fill="#fff"/>
      <path d="M28.37,16.27a1.59,1.59,0,0,0,1.24,1.49c0.66,0.27.76,0.35,0.76,0.59s-0.29.49-.94,0.49A5.34,5.34,0,0,1,28,18.63l-0.23,1.23a9.21,9.21,0,0,0,1.7.16c1.73,0,2.52-.57,2.52-1.79a1.47,1.47,0,0,0-1.15-1.49c-0.69-.27-0.77-0.33-0.77-0.58s0.27-.44.8-0.44a10.6,10.6,0,0,1,1.18.08l0.23-1.24a12.59,12.59,0,0,0-1.44-.11C29,14.46,28.37,15.28,28.37,16.27Z" fill="#fff"/>
      <path d="M22,19.93H20.69l0-.56A2.15,2.15,0,0,1,19,20a1.4,1.4,0,0,1-1.47-1.46c0-1.31,1-2.06,2.83-2.06a6.35,6.35,0,0,1,.66,0,1.15,1.15,0,0,0,.06-0.34c0-.36-0.28-0.49-1-0.49a6.2,6.2,0,0,0-1.71.24l0.23-1.2a7.32,7.32,0,0,1,1.93-.28c1.39,0,2.12.54,2.12,1.57a6.05,6.05,0,0,1-.13,1.06C22.46,17.43,22.07,19.45,22,19.93Zm-1.18-2.38-0.36,0c-0.91,0-1.38.27-1.38,0.81a0.53,0.53,0,0,0,.58.55A1.23,1.23,0,0,0,20.86,17.55Z" fill="#fff"/>
      <path d="M34.8,19.85a4.17,4.17,0,0,1-1.15.17,1.1,1.1,0,0,1-1.27-1.17,11.18,11.18,0,0,1,.22-1.42c0-.27.76-4.13,0.76-4.13h1.6l-0.24,1.28h0.82L35.3,15.89H34.48S34,18.15,34,18.33s0.17,0.39.55,0.39a1.51,1.51,0,0,0,.43,0Z" fill="#fff"/>
      <path d="M42.73,16.8c0,1.21-.49,1.92-1.28,1.92a1,1,0,0,1-.91-1.18,1.65,1.65,0,0,1,1.31-1.8A0.91,0.91,0,0,1,42.73,16.8Zm1.72,0a2.3,2.3,0,0,0-2.53-2.38,3,3,0,0,0-3.13,3.13A2.26,2.26,0,0,0,41.33,20,2.86,2.86,0,0,0,44.46,16.84Z" fill="#fff"/>
      <path d="M36.22,14.58c-0.2,1.65-.56,3.33-0.84,5l-0.07.36h1.61c0.58-3.2.78-4.11,2-3.79l0.59-1.51a1.56,1.56,0,0,0-1.89.77,3.73,3.73,0,0,0,.11-0.81h-1.5Z" fill="#fff"/>
      <polygon points="16.81 19.93 15.21 19.93 16.16 14.91 13.96 19.93 12.5 19.93 12.23 14.94 11.28 19.93 9.82 19.93 11.06 13.4 13.57 13.4 13.7 17.44 15.46 13.4 18.07 13.4 16.81 19.93" fill="#fff"/>
    </g>
  </g>
</svg>
