<?xml version="1.0" encoding="utf-8"?>
<!-- Generator: Adobe Illustrator 19.0.0, SVG Export Plug-In . SVG Version: 6.00 Build 0)  -->
<svg version="1.1" id="Слой_1" xmlns="http://www.w3.org/2000/svg" xmlns:xlink="http://www.w3.org/1999/xlink" x="0px" y="0px"
	 viewBox="0 0 147.7 40.2" style="enable-background:new 0 0 147.7 40.2;" xml:space="preserve">
<style type="text/css">
	.st0{fill:#2D7DB3;}
	.st1{font-family:'Roboto-BlackItalic';}
	.st2{font-size:5.7656px;}
</style>
<g id="logo_x5F_MasterCard_x5F_MoneySend">
	<g id="logo_x5F_MasterCard_x5F_MoneySend_2_">
		<g>
			<path class="st0" d="M7.8,0.7l2,9.2l5.2-9.2h1.9l-2,11h-1.4l0.8-4.5l0.9-4.5l-5.1,9H8.9l-2-9.2L6.2,7.4l-0.7,4.3H4l2-11H7.8z"/>
			<path class="st0" d="M22.4,11.7c0,0-0.1-0.4-0.1-0.5l0-0.5c-0.8,0.7-1.6,1-2.4,1c-0.7,0-1.3-0.3-1.8-0.7c-0.5-0.5-0.7-1-0.6-1.7
				c0.1-0.9,0.4-1.6,1.2-2.1c0.7-0.5,1.7-0.7,2.9-0.7l1.5,0L23,5.8c0.1-0.5,0-0.9-0.3-1.2c-0.2-0.3-0.6-0.4-1.1-0.5
				c-0.5,0-0.9,0.1-1.3,0.4c-0.4,0.2-0.6,0.6-0.7,1l-1.4,0c0-0.5,0.2-0.9,0.6-1.3c0.3-0.4,0.8-0.7,1.3-0.9C20.7,3.1,21.2,3,21.8,3
				c0.9,0,1.5,0.3,2,0.8c0.5,0.5,0.7,1.2,0.6,2L23.7,10l0,0.6c0,0.3,0,0.6,0.1,0.9l0,0.2H22.4z M20.2,10.5c0.4,0,0.9-0.1,1.3-0.3
				s0.7-0.5,1-0.9l0.3-1.7l-1.1,0c-0.9,0-1.6,0.1-2,0.4c-0.5,0.3-0.7,0.7-0.8,1.2c0,0.4,0,0.7,0.3,1C19.4,10.3,19.7,10.5,20.2,10.5z
				"/>
			<path class="st0" d="M30.8,9.3c0.1-0.6-0.2-1-0.9-1.2l-1.5-0.4c-1.2-0.4-1.8-1.1-1.8-2.1c0-0.7,0.4-1.3,1-1.8
				C28.3,3.3,29.1,3,29.9,3c0.8,0,1.5,0.3,2.1,0.7c0.5,0.5,0.8,1.1,0.8,1.9l-1.4,0c0-0.4-0.1-0.8-0.4-1c-0.3-0.3-0.6-0.4-1.1-0.4
				c-0.5,0-0.9,0.1-1.3,0.4c-0.3,0.2-0.5,0.5-0.6,0.9C28,6,28.3,6.3,28.9,6.5l0.7,0.2c1,0.2,1.6,0.6,2,1c0.4,0.4,0.6,0.9,0.6,1.5
				c0,0.5-0.2,1-0.5,1.4c-0.3,0.4-0.7,0.7-1.2,0.9c-0.5,0.2-1.1,0.3-1.6,0.3c-0.9,0-1.6-0.3-2.2-0.8c-0.6-0.5-0.9-1.2-0.8-2l1.4,0
				c0,0.5,0.1,0.8,0.4,1.1c0.3,0.3,0.7,0.4,1.2,0.4c0.5,0,1-0.1,1.3-0.3C30.6,10,30.8,9.7,30.8,9.3z"/>
			<path class="st0" d="M37.3,1.7l-0.4,2h1.5l-0.2,1h-1.5l-0.9,5c0,0.1,0,0.2,0,0.3c0,0.4,0.3,0.6,0.7,0.6c0.2,0,0.4-0.1,0.7-0.1
				l-0.1,1.1c-0.3,0.1-0.7,0.1-1,0.1c-0.6,0-1-0.2-1.3-0.6c-0.3-0.4-0.4-0.7-0.3-1.4l0.8-5h-1.5l0.2-1h1.5l0.4-2H37.3z"/>
			<path class="st0" d="M42.4,11.7c-1,0-1.9-0.4-2.4-1.2c-0.6-0.7-0.8-1.7-0.7-2.9l0-0.3c0.1-0.8,0.3-1.6,0.7-2.3
				c0.4-0.7,0.9-1.2,1.5-1.5C42,3.2,42.6,3,43.3,3c0.9,0,1.5,0.3,2,0.9c0.5,0.6,0.8,1.3,0.8,2.2c0,0.3,0,1.1,0,1.5L46,7.7h-5.5
				c-0.1,0-0.6,1.3,0.4,2.5c0.4,0.5,0.9,0.6,1.5,0.6c0.8,0,1.6-0.5,2.3-1.2l0.8,0.6c-0.3,0.5-0.8,0.9-1.4,1.2
				C43.7,11.6,43,11.7,42.4,11.7z M43.2,4.2c-0.6,0-1.1,0.2-1.5,0.6c-0.4,0.4-0.8,1-1,1.8l4.1,0l0-0.1c0.1-0.6,0-1.2-0.3-1.6
				C44.2,4.4,43.8,4.2,43.2,4.2z"/>
			<path class="st0" d="M52.1,4.5l-0.7-0.1c-0.9,0-1.6,0.5-2.1,1.3l-1,6h-1.4l1.5-8.4l1.4,0l-0.2,1C50.1,3.4,50.8,3,51.6,3
				c0.2,0,0.4,0,0.7,0.1L52.1,4.5z"/>
			<path class="st0" d="M61,8c-0.2,1.2-0.7,2.1-1.6,2.8c-0.8,0.7-1.8,1-3,1c-0.7,0-1.3-0.2-1.8-0.5c-0.5-0.3-0.9-0.8-1.2-1.4
				c-0.3-0.6-0.4-1.3-0.5-2c0-0.4,0-0.8,0.1-1.2l0.1-0.9c0.2-1.7,0.8-3,1.8-4c0.9-1,2.1-1.5,3.4-1.4c1.1,0,1.9,0.7,2.5,1.4
				c0.6,0.7,0.9,2.1,1,3.1h-1.4c-0.1-2-0.7-2.8-1.9-2.9l-0.3-0.2c-1,0-1.8,0.2-2.4,1c-0.7,0.7-1.1,1.7-1.3,3l-0.2,1.1l0,0.7
				c0,0.9,0.1,1.7,0.5,2.3c0.4,0.6,0.9,0.8,1.6,0.9c0.8,0,1.4-0.2,1.9-0.6c0.5-0.4,0.9-1,1.2-1.9L61,8z"/>
			<path class="st0" d="M67.4,11.7c0,0-0.1-0.4-0.1-0.5l0-0.5c-0.8,0.7-1.6,1-2.4,1c-0.7,0-1.3-0.3-1.8-0.7c-0.5-0.5-0.7-1-0.6-1.7
				c0.1-0.9,0.4-1.6,1.2-2.1s1.7-0.7,2.9-0.7l1.5,0l0.1-0.7c0.1-0.5,0-0.9-0.3-1.2c-0.2-0.3-0.6-0.4-1.1-0.5c-0.5,0-0.9,0.1-1.3,0.4
				c-0.4,0.2-0.6,0.6-0.7,1l-1.4,0c0-0.5,0.2-0.9,0.6-1.3c0.3-0.4,0.8-0.7,1.3-0.9C65.7,3.1,66.2,3,66.8,3c0.9,0,1.5,0.3,2,0.8
				c0.5,0.5,0.7,1.2,0.6,2L68.8,10l0,0.6c0,0.3,0,0.6,0.1,0.9l0,0.2H67.4z M65.2,10.5c0.4,0,0.9-0.1,1.3-0.3s0.7-0.5,1-0.9l0.3-1.7
				l-1.1,0c-0.9,0-1.6,0.1-2,0.4c-0.5,0.3-0.7,0.7-0.8,1.2c0,0.4,0,0.7,0.3,1C64.4,10.3,64.8,10.5,65.2,10.5z"/>
			<path class="st0" d="M75.9,4.5l-0.7-0.1c-0.9,0-1.6,0.5-2.1,1.3l-1,6h-1.4l1.5-8.4l1.4,0l-0.2,1C73.9,3.4,74.6,3,75.4,3
				c0.2,0,0.4,0,0.7,0.1L75.9,4.5z"/>
			<path class="st0" d="M76.2,7.4c0.1-0.8,0.3-1.6,0.7-2.3c0.4-0.7,0.8-1.2,1.4-1.5C78.8,3.2,79.4,3,80,3c0.9,0,1.6,0.9,2.1,1.5
				L83,0.7h1.4l-2.1,11h-1.3l0.1-1c-0.7,0.7-1.5,1-2.4,1c-0.8,0-1.4-0.3-1.8-0.9c-0.5-0.6-0.7-1.4-0.7-2.4
				C76.2,8.1,76.2,7.8,76.2,7.4z M77.6,8.2c0,0.7,0.1,1.3,0.4,1.7c0.3,0.4,0.7,0.6,1.2,0.6c0.8,0,1.5-0.4,2.2-1.2L82,5.4
				c-0.3-0.8-0.9-1.2-1.7-1.2c-0.6,0-1,0.2-1.5,0.5c-0.4,0.3-0.7,0.8-1,1.5C77.7,6.8,77.6,7.5,77.6,8.2z"/>
		</g>
		<g>
			<path class="st0" d="M6.6,15.7l3.3,15.4l8.7-15.4h3.2l-3.3,19h-2.4l1.3-7.6l1.5-7.5l-8.6,15.2H8.5L5.1,19.1l-1.2,8.2l-1.3,7.3
				H0.2l3.3-19H6.6z"/>
			<path class="st0" d="M30.3,20c1.2,0,2.2,0.3,3,1c0.8,0.6,1.5,1.5,1.9,2.6c0.4,1.1,0.5,2.3,0.4,3.6l0,0.3
				c-0.2,1.4-0.6,2.6-1.2,3.7c-0.6,1.1-1.5,2-2.5,2.6c-1,0.6-2.2,0.9-3.4,0.9c-1.2,0-2.2-0.3-3-1c-0.8-0.6-1.5-1.5-1.8-2.5
				s-0.5-2.3-0.4-3.5c0.1-1.5,0.5-2.8,1.2-3.9c0.7-1.2,1.5-2.1,2.5-2.7C27.9,20.3,29.1,20,30.3,20z M25.5,27.6
				c-0.1,0.5-0.1,1.1,0,1.7c0.1,1,0.4,1.8,0.9,2.4c0.5,0.6,1.2,0.9,2.1,0.9c0.8,0,1.5-0.2,2.2-0.6c0.7-0.4,1.2-1,1.7-1.9
				c0.4-0.8,0.7-1.8,0.9-2.8c0.1-0.8,0.1-1.5,0-2c-0.1-1-0.4-1.9-0.9-2.5c-0.5-0.6-1.2-0.9-2.1-1c-1.2,0-2.2,0.4-3.1,1.4
				c-0.8,1-1.4,2.3-1.6,3.8L25.5,27.6z"/>
			<path class="st0" d="M42,20.3l-0.3,1.8c1.3-1.4,2.7-2.1,4.3-2c1.3,0,2.3,0.5,2.9,1.4c0.6,0.9,0.9,2.3,0.7,3.9l-1.5,9.4h-2.3
				l1.5-9.4c0.1-0.4,0.1-0.9,0-1.3c-0.1-1.2-0.9-1.9-2.1-1.9c-1.4,0-2.6,0.9-3.7,2.4l-1.7,10.2h-2.3l2.4-14.2L42,20.3z"/>
			<path class="st0" d="M57.8,34.6c-1.7,0-3.1-0.7-4.1-1.9c-1-1.3-1.4-2.9-1.2-4.8l0.1-0.6c0.1-1.4,0.6-2.7,1.2-3.8
				c0.7-1.2,1.5-2,2.5-2.6c1-0.6,2-0.9,3.2-0.8c1.4,0,2.6,0.5,3.4,1.4c0.8,0.9,1.3,2.2,1.3,3.8c0,0.6,0,1.5-0.1,2l-0.1,1.4h-9.2
				c-0.2,1,0.1,2,0.6,2.9c0.6,0.9,1.4,1.2,2.6,1.2c1.4,0,2.7-0.7,3.8-2l1.3,1.1c-0.6,0.8-1.3,1.5-2.3,2
				C59.9,34.4,58.9,34.6,57.8,34.6z M59.3,22c-1,0-1.8,0.3-2.5,1c-0.7,0.7-1.3,1.7-1.7,3l6.8,0l0.1-0.2c0.1-1.1,0-2-0.5-2.7
				C60.9,22.4,60.2,22,59.3,22z"/>
			<path class="st0" d="M70.3,31.2l5-10.5h2.6l-8.3,16.2c-1.2,2.3-2.6,3.3-4.5,3.3c-0.3,0-0.8-0.1-1.4-0.3l0.2-2l0.6,0.1
				c0.7,0,1.4-0.1,1.9-0.5c0.5-0.4,1-1,1.4-1.8l0.8-1.4l-2.4-13.5h2.5L70.3,31.2z"/>
			<path class="st0" d="M87.9,29.3c0.2-1-0.3-1.8-1.5-2.4l-2.5-1c-2.9-1.3-4.3-3.1-4.1-5.4c0.1-1.1,0.4-2,1-2.8
				c0.6-0.8,1.5-1.5,2.7-1.9c1.1-0.5,2.4-0.7,3.7-0.7c1.8,0,3.3,0.9,4.4,2c1.1,1.1,1.7,2.5,1.7,4.5h-3.8c0-1-0.1-1.8-0.6-2.3
				s-1.1-0.9-2-0.9c-0.9,0-1.6,0.1-2.3,0.5c-0.6,0.4-1,0.9-1.1,1.7c-0.2,0.9,0.5,1.7,1.9,2.2l1.7,0.6l1,0.4c2.6,1.3,3.7,3,3.6,5.3
				c-0.1,1.1-0.4,2.1-1.1,2.9C90,32.9,89.1,33.6,88,34c-1.1,0.4-2.3,0.6-3.6,0.6c-1.3,0-2.5-0.3-3.6-0.8c-1-0.5-1.8-1.3-2.4-2.3
				c-0.5-0.9-0.7-1.9-0.7-3.1l3.8,0c-0.1,2.1,0.9,3.1,3,3.1c0.9,0,1.7-0.2,2.3-0.6C87.4,30.5,87.8,30,87.9,29.3z"/>
			<path class="st0" d="M99.9,34.6c-1.2,0-2.3-0.3-3.3-0.9c-0.9-0.6-1.7-1.4-2.1-2.4c-0.5-1-0.6-2.2-0.5-3.4l0-0.5
				c0.1-1.4,0.5-2.6,1.2-3.8c0.7-1.1,1.5-2,2.6-2.6c1-0.6,2.2-0.9,3.5-0.9c1.8,0,3.2,0.7,4.1,2c0.9,1.3,1.3,3,1.1,5l-0.2,1.7h-8.6
				c0,1,0.2,1.6,0.7,2.1c0.5,0.5,1.1,0.8,1.9,0.8c1.3,0,2.5-0.5,3.5-1.6l1.7,2.1c-0.5,0.8-1.3,1.4-2.3,1.9
				C102.1,34.4,101.1,34.6,99.9,34.6z M101.1,23.1c-0.7,0-1.3,0.5-1.8,1c-0.5,0.4-1,1.6-1.4,2.6h5L103,26c0.1-0.3,0.1-0.8,0-1.2
				c-0.1-0.5-0.3-1-0.6-1.3C102,23.3,101.6,23.1,101.1,23.1z"/>
			<path class="st0" d="M113.1,20.3l-0.3,1.7c1.1-1.3,2.5-1.9,4.1-1.9c1.3,0,2.3,0.5,2.9,1.5c0.6,0.9,0.9,2.4,0.7,4.1l-1.5,9.1h-3.7
				l1.5-9.2c0-0.3,0.1-0.7,0-1c-0.1-0.9-0.7-1.4-1.7-1.4c-1,0-1.8,0.6-2.6,1.5l-1.8,10.1h-3.7l2.4-14.2L113.1,20.3z"/>
			<path class="st0" d="M128.8,20c1.3,0,2.4,0.7,3.2,1.7l1.4-7h3.7l-3.5,20h-3.3l0.2-1.7c-1,1.2-2.3,1.7-3.7,1.7
				c-0.9,0-1.6-0.3-2.3-0.7c-0.7-0.4-1.2-1.1-1.5-2c-0.4-0.8-0.6-1.8-0.6-2.8c0-0.5,0-1.1,0-1.6l0.1-0.6c0.2-1.4,0.6-2.7,1.2-3.8
				c0.6-1.1,1.3-1.9,2.2-2.4C126.8,20.3,127.8,20,128.8,20z M126.2,27.6c-0.1,0.7-0.1,1.2-0.1,1.7c0.1,1.5,0.7,2.3,1.8,2.3
				c1,0,1.9-0.4,2.7-1.5l1-5.6c-0.3-0.9-1-1.4-2-1.5c-0.9,0-1.6,0.3-2.2,1C126.8,24.8,126.4,26,126.2,27.6z"/>
		</g>
	</g>
	<text transform="matrix(1 0 0 1 139.3783 19.6875)" class="st0 st1 st2">TM</text>
</g>
</svg>
