<?xml version="1.0" encoding="utf-8"?>
<!-- Generator: Adobe Illustrator 19.0.0, SVG Export Plug-In . SVG Version: 6.00 Build 0)  -->
<svg version="1.1" id="Слой_1" xmlns="http://www.w3.org/2000/svg" xmlns:xlink="http://www.w3.org/1999/xlink" x="0px" y="0px"
	 viewBox="0 0 117 39.8" style="enable-background:new 0 0 117 39.8;" xml:space="preserve">
<style type="text/css">
	.st0{fill:#2D7DB3;}
	.st1{font-family:'Roboto-BlackItalic';}
	.st2{font-size:5.7656px;}
</style>
<g id="logo_x5F_MasterCard_x5F_SecureCode">
	<g>
		<g id="logo_x5F_MasterCard_x5F_SecureCode_2_">
			<g>
				<g>
					<path class="st0" d="M102.8,13.2c0-2.4,1.9-4.4,4.1-4.4c2.3,0,4.1,1.9,4.1,4.4c0,2.4-1.8,4.4-4.1,4.4
						C104.7,17.6,102.8,15.6,102.8,13.2z M107,16.6c1.7,0,3.2-1.5,3.2-3.3c0-1.8-1.4-3.3-3.2-3.3c-1.7,0-3.2,1.5-3.2,3.3
						C103.8,15.1,105.2,16.6,107,16.6z M106.5,15.3h-1v-3.9l1.5,0c0.3,0,0.8,0.1,1.1,0.3c0.3,0.2,0.5,0.5,0.5,0.9
						c0,0.4-0.2,0.9-0.6,1l0.7,1.7h-0.9l-0.5-1.7l-0.6,0V15.3z M106.4,13h0.5c0.2,0,0.4,0,0.5-0.1c0.1-0.1,0.2-0.3,0.2-0.4
						c0-0.1-0.1-0.3-0.2-0.4c-0.1-0.1-0.4-0.1-0.5-0.1h-0.5V13z"/>
				</g>
				<path class="st0" d="M73.7,1.2l-0.6,3.6c-1.2-0.6-2.1-0.9-3.1-0.9c-2.5,0-4.3,2.6-4.3,6.3c0,2.5,1.2,4.1,3.2,4.1
					c0.8,0,1.8-0.3,2.9-0.9l-0.6,3.8c-1.3,0.4-2.1,0.5-3,0.5c-3.7,0-6-2.8-6-7.2c0-6,3.2-10.2,7.7-10.2c0.6,0,1.1,0.1,1.5,0.2
					l1.4,0.4C73.3,1,73.4,1.1,73.7,1.2z"/>
				<path class="st0" d="M62.4,3.7c-0.1,0-0.2,0-0.3,0c-1.1,0-1.8,0.4-2.8,2l0.3-2.3h-3.1l-2.1,14h3.4c1.2-8,1.5-9.7,3.2-9.7
					c0.1,0,0.1,0,0.2,0c0.3-1.6,0.7-2.8,1.3-3.9L62.4,3.7z"/>
				<path class="st0" d="M41.9,17.3c-0.9,0.3-1.7,0.4-2.4,0.4c-1.7,0-2.7-1.1-2.7-3c0-0.4,0-0.8,0.1-1.2l0.2-1.3l0.2-1.3l1.5-9.5
					h3.4l-0.4,2h1.7l-0.5,4h-1.7l-0.9,5.6c0,0.3-0.1,0.4-0.1,0.5c0,0.7,0.4,1,1.2,1c0.4,0,0.7-0.1,0.9-0.1L41.9,17.3z"/>
				<path class="st0" d="M28.5,8.1c0,1.7,0.8,2.9,2.6,3.8c1.4,0.7,1.6,0.9,1.6,1.5c0,0.8-0.6,1.2-2,1.2c-1,0-2-0.2-3.1-0.5l-0.5,3.1
					l0.2,0l0.6,0.1c0.2,0,0.5,0.1,0.9,0.1c0.8,0.1,1.4,0.1,1.9,0.1c3.6,0,5.2-1.4,5.2-4.5c0-1.9-0.7-3-2.4-3.8
					C32.1,8.6,32,8.5,32,7.8c0-0.7,0.6-1.1,1.7-1.1c0.7,0,1.6,0.1,2.4,0.2l0.5-3.1c-0.9-0.2-2.2-0.3-3-0.3
					C29.8,3.5,28.5,5.6,28.5,8.1z"/>
				<path class="st0" d="M100.9,17.3h-3.2l0.2-1.3c-0.9,1.1-1.9,1.5-3.2,1.5c-2.5,0-4.1-2.2-4.1-5.6c0-4.5,2.5-8.4,5.6-8.4
					c1.3,0,2.3,0.4,3.3,1.7l0.7-5h3.4L100.9,17.3z M95.8,14.2c1.6,0,2.7-1.9,2.7-4.6c0-1.7-0.6-2.7-1.8-2.7c-1.5,0-2.6,1.9-2.6,4.6
					C94.1,13.3,94.7,14.2,95.8,14.2z"/>
				<path class="st0" d="M52.7,17.1c-1.2,0.4-2.3,0.6-3.5,0.5c-3.8,0-5.8-2.1-5.8-6.1c0-4.7,2.5-8.1,6-8.1c2.8,0,4.6,2.2,4.6,5.2
					c0,1-0.1,1.6-0.4,3.6h-6.8c0,0,0,0,0,0.1c0,1.6,1,2.3,3,2.3c1.2,0,2.3-0.3,3.5-0.9L52.7,17.1z M50.8,9c0-0.3,0-0.5,0-0.7
					c0-1.1-0.6-1.8-1.6-1.8c-1.1,0-1.9,0.9-2.2,2.4L50.8,9z"/>
				<polygon class="st0" points="14.8,17.3 11.4,17.3 13.3,4.5 9,17.3 6.6,17.3 6.3,4.5 4.3,17.3 1.1,17.3 3.8,0.3 8.7,0.3 
					8.8,10.7 12.1,0.3 17.4,0.3 				"/>
				<path class="st0" d="M23.6,11.4c-0.4,0-0.5-0.1-0.8-0.1c-1.9,0-2.9,0.7-2.9,2.1c0,0.8,0.5,1.4,1.2,1.4
					C22.5,14.8,23.5,13.4,23.6,11.4z M26,17.3h-2.8l0.1-1.4c-0.9,1.1-2,1.7-3.6,1.7c-1.9,0-3.1-1.5-3.1-3.7c0-3.3,2.2-5.3,6-5.3
					c0.4,0,0.9,0,1.4,0.1c0.1-0.5,0.1-0.6,0.1-0.9c0-0.9-0.6-1.2-2.2-1.2c-1,0-2.1,0.1-2.8,0.4l-0.5,0.1l-0.3,0.1l0.5-3.1
					c1.7-0.5,2.8-0.7,4.1-0.7c2.9,0,4.5,1.4,4.5,4c0,0.7,0,1.2-0.3,2.7L26.3,15l-0.1,0.9l-0.1,0.7L26.1,17L26,17.3z"/>
				<path class="st0" d="M79.6,11.4c-0.4,0-0.5-0.1-0.8-0.1c-1.9,0-2.9,0.7-2.9,2.1c0,0.8,0.5,1.4,1.2,1.4
					C78.5,14.8,79.5,13.4,79.6,11.4z M82,17.3h-2.8l0.1-1.4c-0.9,1.1-2,1.7-3.6,1.7c-1.9,0-3.1-1.5-3.1-3.7c0-3.3,2.2-5.3,6-5.3
					c0.4,0,0.9,0,1.4,0.1c0.1-0.5,0.1-0.6,0.1-0.9c0-0.9-0.6-1.2-2.2-1.2c-1,0-2.1,0.1-2.8,0.4l-0.5,0.1l-0.3,0.1l0.5-3.1
					c1.7-0.5,2.8-0.7,4.1-0.7c2.9,0,4.5,1.4,4.5,4c0,0.7-0.1,1.2-0.3,2.7L82.3,15l-0.1,0.9l-0.1,0.7L82.1,17L82,17.3z"/>
				<path class="st0" d="M91.6,3.7c-0.1,0-0.2,0-0.3,0c-1.1,0-1.8,0.4-2.8,2l0.3-2.3h-3.1l-2.1,14H87c1.2-8,1.5-9.7,3.2-9.7
					c0.1,0,0.1,0,0.2,0c0.3-1.6,0.7-2.8,1.3-3.9L91.6,3.7z"/>
			</g>
		</g>
	</g>
	<g>
		<path class="st0" d="M80.1,31c0,3.2-1,5.1-2.6,5.1c-1.1,0-1.8-1.2-1.8-3.1c0-2.3,1-4.8,2.6-4.8C79.6,28.1,80.1,29.5,80.1,31z
			 M83.6,31c0-3.6-1.8-6.4-5.1-6.4c-3.8,0-6.3,3.4-6.3,8.4c0,3.6,1.5,6.5,5.1,6.5C80.9,39.5,83.6,36.9,83.6,31z"/>
		<path class="st0" d="M73.4,22.2l-0.5,3.8c-1.2-0.7-2-0.9-3-0.9c-2.5,0-4.2,2.7-4.2,6.5c0,2.6,1.2,4.3,3.1,4.3
			c0.8,0,1.7-0.3,2.8-0.9l-0.6,4c-1.2,0.4-2,0.5-2.9,0.5c-3.6,0-5.8-2.9-5.8-7.5c0-6.2,3.1-10.6,7.5-10.6c0.6,0,1.1,0.1,1.5,0.2
			l1.4,0.4C73,22,73.1,22,73.4,22.2z"/>
		<path class="st0" d="M51.4,24.8c-0.1,0-0.2,0-0.3,0c-1.1,0-1.7,0.8-2.7,2.5l0.3-1.9h-3l-2,14h3.3c1.2-8,1.5-10.3,3.1-10.3
			c0.1,0,0.1-0.1,0.2-0.1c0.3-1.7,0.7-3,1.3-4.2L51.4,24.8z"/>
		<path class="st0" d="M94.7,39.3h-3.1l0.2-1.6c-0.9,1.1-1.9,1.5-3.1,1.5c-2.4,0-4-2.4-4-5.9c0-4.7,2.5-8.7,5.4-8.7
			c1.3,0,2.3,1,3.2,2.4l0.7-4.6h3.3L94.7,39.3z M89.8,35.6c1.6,0,2.6-2,2.6-4.8c0-1.8-0.6-2.8-1.8-2.8c-1.5,0-2.6,2-2.6,4.8
			C88.1,34.6,88.7,35.6,89.8,35.6z"/>
		<path class="st0" d="M20.3,38.8c-1.1,0.4-2.2,0.6-3.4,0.6c-3.7,0-5.6-2.2-5.6-6.3c0-4.9,2.5-8.5,5.8-8.5c2.7,0,4.5,2,4.5,5.2
			c0,1-0.1,2.5-0.4,3.5h-6.6c0,1,0,0.3,0,0.4c0,1.7,1,2.5,2.9,2.5c1.2,0,2.3-0.3,3.4-0.9L20.3,38.8z M18.5,30.4c0-0.3,0-0.5,0-0.7
			c0-1.2-0.6-1.8-1.6-1.8c-1.1,0-1.8,0.9-2.1,2.5L18.5,30.4z"/>
		<path class="st0" d="M59.7,38.8c-1.1,0.4-2.2,0.6-3.4,0.6c-3.7,0-5.6-2.2-5.6-6.3c0-4.9,2.5-8.5,5.8-8.5c2.7,0,4.5,2,4.5,5.2
			c0,1-0.1,2.5-0.4,3.5H54c0,1,0,0.3,0,0.4c0,1.7,1,2.5,2.9,2.5c1.2,0,2.3-0.3,3.4-0.9L59.7,38.8z M57.9,30.4c0-0.3,0-0.5,0-0.7
			c0-1.2-0.6-1.8-1.6-1.8c-1.1,0-1.8,0.9-2.1,2.5L57.9,30.4z"/>
		<path class="st0" d="M106,38.8c-1.1,0.4-2.2,0.6-3.4,0.6c-3.7,0-5.6-2.2-5.6-6.3c0-4.9,2.5-8.5,5.8-8.5c2.7,0,4.5,2,4.5,5.2
			c0,1-0.1,2.5-0.4,3.5h-6.6c0,1,0,0.3,0,0.4c0,1.7,1,2.5,2.9,2.5c1.2,0,2.3-0.3,3.4-0.9L106,38.8z M104.2,30.4c0-0.3,0-0.5,0-0.7
			c0-1.2-0.6-1.8-1.6-1.8c-1.1,0-1.8,0.9-2.1,2.5L104.2,30.4z"/>
		<path class="st0" d="M10.5,25.4C9.8,25,9,24.6,7.7,24.6c-1.3,0-2.4,0.3-2.4,1.7c0,2.5,4.9,1.6,4.9,7c0,4.9-3.2,6.2-6.1,6.2
			c-1.3,0-2.8-0.4-3.9-0.9l0.8-3.6c0.7,0.6,2,1,3.1,1c1,0,2.7-0.3,2.7-2.1C6.7,31,1.8,32,1.8,27c0-4.6,2.9-6,5.6-6
			c1.6,0,3,0.2,3.9,0.8L10.5,25.4z"/>
		<path class="st0" d="M30,38.8c-0.7,0.3-1.6,0.5-2.9,0.5c-2.9,0-4.7-2.9-4.7-6.4c0-4.6,2.6-8.3,6.4-8.3c0.8,0,2.1,0.4,3.1,0.9
			L31.2,29c-0.7-0.5-1.5-0.8-2.2-0.8c-1.8,0-3,1.6-3,4.5c0,1.7,0.9,3.1,2.4,3.1c0.9,0,1.5-0.2,2.2-0.6L30,38.8z"/>
		<path class="st0" d="M42.4,35.7c-0.2,1.2-0.3,2.6-0.4,3.6h-3.2l0.3-2h0c-1,1-2,2.3-3.8,2.3c-2,0-3.1-2.3-3.1-5
			c0-0.9,0.1-1.4,0.3-2.8l0.9-6.4h3.6l-1,6.4c-0.1,0.7-0.2,1.3-0.2,2c0,0.8,0.4,1.6,1.3,1.6c1.5,0,2.3-1.6,2.6-3.7l1-6.3H44
			L42.4,35.7z"/>
	</g>
	<text transform="matrix(1 0 0 1 108.545 39.3333)" class="st0 st1 st2">TM</text>
</g>
</svg>
