<svg id="Слой_1" data-name="Слой 1" xmlns="http://www.w3.org/2000/svg" width="53.17" height="33" viewBox="0 0 53.17 33">
  <title>mc_white</title>
  <path d="M53.17,16.5A16.49,16.49,0,0,1,26.58,29.55,16.5,16.5,0,1,1,16.5,0,16.4,16.4,0,0,1,26.58,3.45,16.49,16.49,0,0,1,53.17,16.5Zm-16.5-15a15,15,0,0,0-8.93,2.95,16.51,16.51,0,0,1,4.74,7.93H30.94a15,15,0,0,0-4.36-7,15,15,0,0,0-4.36,7H20.7a16.53,16.53,0,0,1,4.74-7.93,15,15,0,1,0,0,24.15,16.54,16.54,0,0,1-4.59-7.39h1.55a15,15,0,0,0,4.19,6.45,15,15,0,0,0,4.19-6.45h1.55a16.57,16.57,0,0,1-4.59,7.39A15,15,0,1,0,36.67,1.48ZM10.42,12.92H8L6.51,17.4,6.45,12.92H4.22L3,20.16H4.46l0.93-5.53,0.13,5.53H6.58l2-5.57L7.67,20.16H9.22Zm2.88,4.62-0.35,0c-0.88,0-1.32.3-1.32,0.89a0.54,0.54,0,0,0,.55.6A1.3,1.3,0,0,0,13.3,17.53Zm1.13,2.62H13.14l0-.61a1.94,1.94,0,0,1-1.62.71,1.45,1.45,0,0,1-1.41-1.61c0-1.44,1-2.27,2.72-2.27a5.22,5.22,0,0,1,.63,0A1.46,1.46,0,0,0,13.55,16c0-.39-0.27-0.54-1-0.54a5.07,5.07,0,0,0-1.64.27l0.22-1.32A6.15,6.15,0,0,1,13,14.14c1.33,0,2,.6,2,1.73A7.79,7.79,0,0,1,14.89,17C14.76,17.89,14.47,19.71,14.43,20.16Zm20.24-7.42c-2.05,0-3.49,1.81-3.49,4.4,0,1.92,1,3.13,2.71,3.13A4.75,4.75,0,0,0,35.25,20l0.27-1.65a3,3,0,0,1-1.32.37A1.5,1.5,0,0,1,32.76,17c0-1.6.81-2.71,2-2.71a2.94,2.94,0,0,1,1.38.39l0.25-1.57A5.38,5.38,0,0,0,34.67,12.74Zm4.46,4.79-0.35,0c-0.88,0-1.32.3-1.32,0.89A0.54,0.54,0,0,0,38,19,1.3,1.3,0,0,0,39.13,17.53Zm1.13,2.62H39l0-.61a2,2,0,0,1-1.63.71A1.45,1.45,0,0,1,36,18.65c0-1.44,1-2.27,2.72-2.27a5.22,5.22,0,0,1,.63,0A1.46,1.46,0,0,0,39.37,16c0-.39-0.27-0.54-1-0.54a5.06,5.06,0,0,0-1.64.27L37,14.45a6.16,6.16,0,0,1,1.85-.31c1.33,0,2,.6,2,1.73A7.56,7.56,0,0,1,40.72,17C40.59,17.89,40.3,19.71,40.26,20.16ZM22,18.77a1.28,1.28,0,0,1-.42.06c-0.37,0-.53-0.13-0.53-0.44s0.26-1.58.44-2.7h0.8l0.21-1.42H21.74l0.18-.89H20.38s-0.58,3.47-.67,4A14,14,0,0,0,19.5,19a1.13,1.13,0,0,0,1.22,1.29,3.61,3.61,0,0,0,1.11-.19ZM26.78,20a5.31,5.31,0,0,1-1.58.24,2.34,2.34,0,0,1-2.62-2.63c0-2,1.14-3.49,2.7-3.49a2,2,0,0,1,2.08,2.13,6.41,6.41,0,0,1-.19,1.45H24.1c-0.1.85,0.44,1.21,1.34,1.21a3.64,3.64,0,0,0,1.6-.37Zm-0.87-3.49a0.8,0.8,0,0,0-.72-1.05,1.09,1.09,0,0,0-1,1.05h1.7Zm-10.3-.4a1.72,1.72,0,0,0,1.18,1.64c0.63,0.3.72,0.38,0.72,0.65S17.24,19,16.63,19a4.33,4.33,0,0,1-1.39-.23L15,20.09a7.26,7.26,0,0,0,1.61.17c1.63,0,2.39-.62,2.39-2a1.61,1.61,0,0,0-1.09-1.64c-0.65-.3-0.72-0.37-0.72-0.64s0.26-.48.76-0.48a8.5,8.5,0,0,1,1.11.09l0.22-1.37a10.69,10.69,0,0,0-1.36-.12C16.21,14.14,15.61,15,15.62,16.13Zm33.36,4H47.52l0.07-.55a1.83,1.83,0,0,1-1.43.65c-1.13,0-1.87-1-1.87-2.44,0-2,1.15-3.61,2.52-3.61a1.75,1.75,0,0,1,1.48.8l0.34-2.09h1.53ZM46.7,18.8c0.72,0,1.23-.82,1.23-2,0-.75-0.29-1.15-0.82-1.15-0.7,0-1.2.82-1.2,2C45.9,18.41,46.17,18.8,46.7,18.8Zm-4.78-4.53c-0.19,1.82-.54,3.67-0.81,5.49l-0.07.4h1.55c0.55-3.6.69-4.3,1.56-4.21a5.69,5.69,0,0,1,.59-1.71c-0.65-.14-1,0.23-1.48.93a5.19,5.19,0,0,0,.09-0.89H41.92Zm-13.54,0c-0.19,1.82-.54,3.67-0.81,5.49l-0.07.4H29c0.55-3.6.69-4.3,1.56-4.21a5.84,5.84,0,0,1,.59-1.71c-0.65-.14-1,0.23-1.49.93a5.37,5.37,0,0,0,.09-0.89H28.37Zm21.78,6.19a0.53,0.53,0,1,0-.53-0.53A0.54,0.54,0,0,0,50.16,20.46Zm-0.41-.53a0.41,0.41,0,1,1,.41.4A0.41,0.41,0,0,1,49.75,19.93Zm0.34,0.23H50V19.7h0.2a0.21,0.21,0,0,1,.12,0,0.14,0.14,0,0,1,.06.12,0.13,0.13,0,0,1-.08.12l0.09,0.2H50.23L50.17,20H50.09v0.18Zm0-.26h0.13a0.06,0.06,0,0,0,0-.05,0.06,0.06,0,0,0,0,0H50.09V19.9ZM51,25.7a0.53,0.53,0,1,1,.53.53A0.54,0.54,0,0,1,51,25.7Zm0.53,0.4a0.41,0.41,0,1,0,0-.81A0.41,0.41,0,0,0,51.5,26.11Zm-0.07-.36h0.08l0.07,0.19H51.7l-0.09-.21a0.13,0.13,0,0,0,.08-0.12,0.16,0.16,0,0,0-.06-0.12,0.21,0.21,0,0,0-.12,0h-0.2v0.47h0.11V25.75Zm0-.2h0.13a0.07,0.07,0,0,1,0,0,0.07,0.07,0,0,1,0,.06H51.43V25.55Z" fill="#fff"/>
</svg>
