<svg id="Layer_1" data-name="Layer 1" xmlns="http://www.w3.org/2000/svg" width="200" height="33" viewBox="0 0 254.52 42.1">
  <title>p2y-logo</title>
  <g>
    <g>
      <path d="M154.61,16.32A4,4,0,0,1,154.3,18a2.39,2.39,0,0,1-.9,1.07A2.47,2.47,0,0,1,149.8,18a3.79,3.79,0,0,1-.33-1.59V15.92a3.89,3.89,0,0,1,.32-1.63A2.37,2.37,0,0,1,152,12.83a2.49,2.49,0,0,1,1.36.37,2.39,2.39,0,0,1,.9,1.08,4,4,0,0,1,.32,1.64v0.4Zm-0.84-.41a2.87,2.87,0,0,0-.46-1.75,1.51,1.51,0,0,0-1.28-.61,1.49,1.49,0,0,0-1.26.61,2.82,2.82,0,0,0-.47,1.69v0.47a2.88,2.88,0,0,0,.46,1.73,1.62,1.62,0,0,0,2.54,0,2.86,2.86,0,0,0,.46-1.71V15.91Z" fill="#0092d4"/>
      <path d="M160.8,19.32h-0.85v-3h-3.23v3h-0.84v-6.4h0.84v2.75h3.23V12.92h0.85v6.4Z" fill="#0092d4"/>
      <path d="M167.21,12.92v6.4h-0.84V13.61h-2.29L164,16.15a8.53,8.53,0,0,1-.26,1.92,1.85,1.85,0,0,1-.57.94,1.61,1.61,0,0,1-1,.31h-0.28V18.63H162a0.92,0.92,0,0,0,.63-0.27A1.6,1.6,0,0,0,163,17.6a10.17,10.17,0,0,0,.16-1.58l0.13-3.1h3.94Z" fill="#0092d4"/>
      <path d="M172.35,17.64h-2.68l-0.6,1.67H168.2l2.44-6.4h0.74l2.45,6.4H173ZM169.92,17h2.18L171,14Z" fill="#0092d4"/>
      <path d="M178.72,12.92h0.84v6.4h-0.84V14.39l-3.15,4.93h-0.85v-6.4h0.85v4.93Zm-0.24-1.6a1.09,1.09,0,0,1-.36.86,1.56,1.56,0,0,1-1.91,0,1.09,1.09,0,0,1-.36-0.86h0.66a0.66,0.66,0,0,0,.17.48,0.64,0.64,0,0,0,.49.17,0.6,0.6,0,0,0,.66-0.65h0.66Z" fill="#0092d4"/>
      <path d="M186,19.32h-0.85v-3h-3.23v3H181.1v-6.4h0.84v2.75h3.23V12.92H186v6.4Z" fill="#0092d4"/>
      <path d="M194.45,17.29a2.35,2.35,0,0,1-.75,1.57,2.46,2.46,0,0,1-1.68.55,2.26,2.26,0,0,1-1.82-.81,3.27,3.27,0,0,1-.68-2.18V15.8a3.64,3.64,0,0,1,.32-1.57,2.38,2.38,0,0,1,.9-1,2.52,2.52,0,0,1,1.35-.36,2.31,2.31,0,0,1,1.63.57,2.38,2.38,0,0,1,.72,1.58h-0.85a1.84,1.84,0,0,0-.48-1.11,1.44,1.44,0,0,0-1-.34,1.51,1.51,0,0,0-1.27.6,2.75,2.75,0,0,0-.46,1.7v0.62a2.82,2.82,0,0,0,.44,1.66,1.4,1.4,0,0,0,1.22.62,1.62,1.62,0,0,0,1.08-.32,1.77,1.77,0,0,0,.5-1.11h0.85Z" fill="#0092d4"/>
      <path d="M199.22,16.36h-2.77v2.27h3.22v0.69h-4.07v-6.4h4v0.69h-3.18v2.06h2.77v0.69Z" fill="#0092d4"/>
      <path d="M201.57,16.81v2.5h-0.84v-6.4h2.36a2.37,2.37,0,0,1,1.65.54,1.82,1.82,0,0,1,.6,1.42,1.8,1.8,0,0,1-.58,1.44,2.48,2.48,0,0,1-1.67.5h-1.51Zm0-.69h1.52a1.52,1.52,0,0,0,1-.32,1.17,1.17,0,0,0,.36-0.92,1.21,1.21,0,0,0-.36-0.92,1.42,1.42,0,0,0-1-.36h-1.56v2.51Z" fill="#0092d4"/>
      <path d="M206.4,19.32v-6.4h2.09a2.43,2.43,0,0,1,1.57.43,1.55,1.55,0,0,1,.52,1.27,1.3,1.3,0,0,1-.25.79,1.66,1.66,0,0,1-.7.53,1.49,1.49,0,0,1,.82.55,1.58,1.58,0,0,1,.3,1,1.71,1.71,0,0,1-.56,1.35,2.31,2.31,0,0,1-1.58.49H206.4Zm0.84-3.67h1.28a1.33,1.33,0,0,0,.88-0.28,0.93,0.93,0,0,0,.33-0.75,0.91,0.91,0,0,0-.31-0.77,1.51,1.51,0,0,0-.94-0.24h-1.25v2Zm0,0.68v2.3h1.39a1.34,1.34,0,0,0,.93-0.31,1.17,1.17,0,0,0-.92-2h-1.41Z" fill="#0092d4"/>
      <path d="M216,12.92h0.84v6.4H216V14.39l-3.15,4.93H212v-6.4h0.85v4.93Z" fill="#0092d4"/>
      <path d="M223.12,17.29a2.35,2.35,0,0,1-.75,1.57,2.45,2.45,0,0,1-1.68.55,2.26,2.26,0,0,1-1.82-.81,3.27,3.27,0,0,1-.68-2.18V15.8a3.64,3.64,0,0,1,.32-1.57,2.38,2.38,0,0,1,.9-1,2.52,2.52,0,0,1,1.35-.36,2.31,2.31,0,0,1,1.63.57,2.38,2.38,0,0,1,.72,1.58h-0.85a1.84,1.84,0,0,0-.48-1.11,1.44,1.44,0,0,0-1-.34,1.51,1.51,0,0,0-1.27.6,2.75,2.75,0,0,0-.46,1.7v0.62a2.82,2.82,0,0,0,.44,1.66,1.4,1.4,0,0,0,1.22.62,1.62,1.62,0,0,0,1.08-.32,1.77,1.77,0,0,0,.5-1.11h0.85Z" fill="#0092d4"/>
      <path d="M155.45,31.48h-0.84V29.92H150v1.57h-0.84V29.23h0.52a3.36,3.36,0,0,0,.66-1.25,7.4,7.4,0,0,0,.31-1.72l0.14-2.74h3.83v5.71h0.83v2.26Zm-4.79-2.26h3.12v-5h-2.17l-0.09,1.88a8,8,0,0,1-.29,1.88A4.41,4.41,0,0,1,150.65,29.23Z" fill="#0092d4"/>
      <path d="M160.08,27H157.3v2.27h3.22v0.69h-4.07v-6.4h4v0.69H157.3v2.06h2.77V27Z" fill="#0092d4"/>
      <path d="M166.49,29.92h-0.85V27h-3.23v3h-0.84v-6.4h0.84v2.75h3.23V23.52h0.85v6.4Z" fill="#0092d4"/>
      <path d="M171.61,27h-2.77v2.27h3.22v0.69H168v-6.4h4v0.69h-3.18v2.06h2.77V27Z" fill="#0092d4"/>
      <path d="M177.6,27h-0.69v2.92h-0.84V27h-0.72l-1.81,2.92h-1.05l2.15-3.37-2-3h1l1.7,2.78h0.72V23.52h0.84v2.78h0.69l1.7-2.78h1l-2,3,2.15,3.38h-1Z" fill="#0092d4"/>
      <path d="M186.19,29.92h-0.85V27h-3.23v3h-0.84v-6.4h0.84v2.75h3.23V23.52h0.85v6.4Z" fill="#0092d4"/>
      <path d="M188.57,26.13h1.59a2.32,2.32,0,0,1,1.56.51,1.73,1.73,0,0,1,.56,1.36,1.77,1.77,0,0,1-.57,1.38,2.28,2.28,0,0,1-1.55.53h-2.45v-6.4h0.84v2.61Zm0,0.69v2.41h1.54a1.36,1.36,0,0,0,1-.33,1.19,1.19,0,0,0,.35-0.9,1.11,1.11,0,0,0-.34-0.85,1.38,1.38,0,0,0-1-.32h-1.58Zm5.33,3.1h-0.84v-6.4h0.84v6.4Z" fill="#0092d4"/>
      <path d="M197.56,26l1.53-2.45h1l-2,3.17,2.07,3.23h-1l-1.57-2.5L196,29.92h-1l2.07-3.23-2-3.17h1Z" fill="#0092d4"/>
      <path d="M208.23,29.92h-0.85V24.21h-3.16v5.71h-0.84v-6.4h4.85v6.4Z" fill="#0092d4"/>
      <path d="M213.38,27h-2.77v2.27h3.22v0.69h-4.07v-6.4h4v0.69h-3.18v2.06h2.77V27Z" fill="#0092d4"/>
      <path d="M215.72,27.41v2.5h-0.84v-6.4h2.36a2.37,2.37,0,0,1,1.65.54,1.82,1.82,0,0,1,.6,1.42,1.8,1.8,0,0,1-.58,1.44,2.48,2.48,0,0,1-1.67.5h-1.51Zm0-.69h1.52a1.52,1.52,0,0,0,1-.32,1.17,1.17,0,0,0,.36-0.92,1.21,1.21,0,0,0-.36-0.92,1.42,1.42,0,0,0-1-.36h-1.56v2.51Z" fill="#0092d4"/>
      <path d="M224.18,27H221.4v2.27h3.22v0.69h-4.07v-6.4h4v0.69H221.4v2.06h2.77V27Z" fill="#0092d4"/>
      <path d="M225.67,29.92v-6.4h2.09a2.43,2.43,0,0,1,1.57.43,1.55,1.55,0,0,1,.52,1.27,1.3,1.3,0,0,1-.25.79,1.66,1.66,0,0,1-.7.53,1.49,1.49,0,0,1,.82.55,1.59,1.59,0,0,1,.3,1,1.71,1.71,0,0,1-.56,1.35,2.31,2.31,0,0,1-1.58.49h-2.22Zm0.84-3.67h1.28a1.33,1.33,0,0,0,.88-0.28,0.93,0.93,0,0,0,.33-0.75,0.91,0.91,0,0,0-.31-0.77,1.51,1.51,0,0,0-.94-0.24h-1.25v2Zm0,0.68v2.3h1.39a1.34,1.34,0,0,0,.93-0.31,1.17,1.17,0,0,0-.92-2h-1.41Z" fill="#0092d4"/>
      <path d="M236.2,26.92a4,4,0,0,1-.32,1.64,2.4,2.4,0,0,1-.9,1.07,2.47,2.47,0,0,1-3.6-1.06,3.79,3.79,0,0,1-.33-1.59V26.52a3.9,3.9,0,0,1,.32-1.63,2.37,2.37,0,0,1,2.25-1.46,2.49,2.49,0,0,1,1.36.37,2.4,2.4,0,0,1,.9,1.08,4,4,0,0,1,.32,1.64v0.4Zm-0.84-.41a2.87,2.87,0,0,0-.46-1.75,1.51,1.51,0,0,0-1.28-.61,1.49,1.49,0,0,0-1.26.61,2.82,2.82,0,0,0-.47,1.69v0.47a2.88,2.88,0,0,0,.46,1.73,1.62,1.62,0,0,0,2.54,0,2.86,2.86,0,0,0,.46-1.71V26.51Z" fill="#0092d4"/>
      <path d="M243.08,31.48h-0.84V29.92h-4.59v1.57H236.8V29.23h0.52A3.36,3.36,0,0,0,238,28a7.39,7.39,0,0,0,.31-1.72l0.14-2.74h3.83v5.71h0.83v2.26Zm-4.79-2.26h3.12v-5h-2.17l-0.09,1.88a8,8,0,0,1-.29,1.88A4.41,4.41,0,0,1,238.28,29.23Z" fill="#0092d4"/>
      <path d="M248.9,26.92a4,4,0,0,1-.32,1.64,2.4,2.4,0,0,1-.9,1.07,2.47,2.47,0,0,1-3.6-1.06,3.79,3.79,0,0,1-.33-1.59V26.52a3.9,3.9,0,0,1,.32-1.63,2.37,2.37,0,0,1,2.25-1.46,2.49,2.49,0,0,1,1.36.37,2.4,2.4,0,0,1,.9,1.08,4,4,0,0,1,.32,1.64v0.4Zm-0.84-.41a2.87,2.87,0,0,0-.46-1.75,1.51,1.51,0,0,0-1.28-.61,1.49,1.49,0,0,0-1.26.61,2.82,2.82,0,0,0-.47,1.69v0.47a2.88,2.88,0,0,0,.46,1.73,1.62,1.62,0,0,0,2.54,0,2.86,2.86,0,0,0,.46-1.71V26.51Z" fill="#0092d4"/>
      <path d="M250.17,29.92v-6.4h2.09a2.43,2.43,0,0,1,1.57.43,1.55,1.55,0,0,1,.52,1.27,1.3,1.3,0,0,1-.25.79,1.66,1.66,0,0,1-.7.53,1.49,1.49,0,0,1,.82.55,1.59,1.59,0,0,1,.3,1,1.71,1.71,0,0,1-.56,1.35,2.31,2.31,0,0,1-1.58.49h-2.22ZM251,26.25h1.28a1.33,1.33,0,0,0,.88-0.28,0.93,0.93,0,0,0,.33-0.75,0.91,0.91,0,0,0-.31-0.77,1.51,1.51,0,0,0-.94-0.24H251v2Zm0,0.68v2.3h1.39a1.34,1.34,0,0,0,.93-0.31,1.17,1.17,0,0,0-.92-2H251Z" fill="#0092d4"/>
    </g>
    <g>
      <path d="M4.76,24.22v6.7H0V11.17H7.88a9.18,9.18,0,0,1,4,.83,6.29,6.29,0,0,1,2.7,2.37,6.49,6.49,0,0,1,1,3.49,5.72,5.72,0,0,1-2.07,4.62A8.58,8.58,0,0,1,7.8,24.22h-3Zm0-3.68H7.88A2.94,2.94,0,0,0,10,19.86a2.57,2.57,0,0,0,.73-2A3.18,3.18,0,0,0,10,15.69a2.64,2.64,0,0,0-2-.84H4.76v5.7Z" fill="#0092d4"/>
      <path d="M26.89,27.24H20.36l-1.14,3.69H14.14l7.24-19.75h4.48l7.3,19.75H28ZM21.5,23.56h4.25l-2.13-6.85Z" fill="#0092d4"/>
      <path d="M96.23,19.75l3.64-8.57H105L98.64,23.83v7.1H93.81v-7.1L87.46,11.17h5.11Z" fill="#0092d4"/>
      <path d="M122.78,21.46a11.65,11.65,0,0,1-1.07,5.11,7.92,7.92,0,0,1-3,3.43,8.48,8.48,0,0,1-4.5,1.2A8.6,8.6,0,0,1,109.68,30a7.91,7.91,0,0,1-3-3.32,11.31,11.31,0,0,1-1.15-5V20.66a11.7,11.7,0,0,1,1.07-5.12,7.9,7.9,0,0,1,3.05-3.43,9,9,0,0,1,9,0,8,8,0,0,1,3.06,3.4,11.38,11.38,0,0,1,1.11,5.05v0.91Zm-4.84-.83a8.3,8.3,0,0,0-1-4.47,3.15,3.15,0,0,0-2.81-1.53q-3.58,0-3.78,5.37v1.45a8.54,8.54,0,0,0,1,4.46,3.15,3.15,0,0,0,2.86,1.56,3.11,3.11,0,0,0,2.78-1.53,8.31,8.31,0,0,0,1-4.41V20.63Z" fill="#0092d4"/>
      <path d="M140.73,11.17V24.1a7.43,7.43,0,0,1-.94,3.81,6.06,6.06,0,0,1-2.69,2.45,9.46,9.46,0,0,1-4.14.84,8.18,8.18,0,0,1-5.68-1.87,6.68,6.68,0,0,1-2.12-5.13v-13H130V24.29q0.08,3.24,3,3.24a2.92,2.92,0,0,0,2.24-.81,3.8,3.8,0,0,0,.76-2.65V11.17h4.76Z" fill="#0092d4"/>
      <path d="M39.79,19.75l3.64-8.57h5.14L42.21,23.83v7.1H37.38v-7.1L31,11.17h5.11Z" fill="#0092d4"/>
      <path d="M86.92,15.67L73.48,2.22a7.64,7.64,0,0,0-10.77,0L49.26,15.67a7.64,7.64,0,0,0,0,10.77L62.71,39.88a7.64,7.64,0,0,0,10.77,0L86.92,26.43A7.64,7.64,0,0,0,86.92,15.67Z" fill="#0092d4"/>
    </g>
    <path d="M86.92,15.67L73.48,2.23S69-.49,68.16,3.63v6.43l5.63,4.58L68.16,26.45V36.94c0,6.26-5.45,2.94-5.45,2.94a7.66,7.66,0,0,0,10.77,0L86.92,26.43A7.64,7.64,0,0,0,86.92,15.67Z" fill="#0085b9"/>
    <g>
      <path d="M60.16,31.17V28.69a4.78,4.78,0,0,1,1-3l4.27-5.4q3-3.15,3-5a2.77,2.77,0,0,0-.7-2.29c-0.47-.35-2.55.61-3.33,3.78H59.61a1,1,0,0,1-1-1V14.6A7.59,7.59,0,0,1,63,7.53a10,10,0,0,1,4.56-1,10,10,0,0,1,6.23,1.74c2.19,1.68,3.76,3.13,3.76,7.11,0,0.92-1.76-.3-2.12.57a11.56,11.56,0,0,1-1.71,2.74,41.09,41.09,0,0,1-3.73,3.83L66.72,26" fill="#007eb0"/>
      <path d="M77.78,34.22H61.71a1.65,1.65,0,0,1-1.65-1.65h0L71.78,19.94C74.59,17,65.08,9,67.92,9a11.54,11.54,0,0,1,7.61,2.54,6.93,6.93,0,0,1,2,5,7.27,7.27,0,0,1-.51,2.68,11.73,11.73,0,0,1-1.59,2.74A40,40,0,0,1,72,25.77l-3,3.47,7.4-.44,1.38,1.38v4Z" fill="#009cdb"/>
      <path d="M76.38,32.57H60.06V29.08l7.51-7.87c1.85-2.1,2.78-3.77,2.78-5a3.48,3.48,0,0,0-.65-2.29,2.34,2.34,0,0,0-1.9-.78,2.37,2.37,0,0,0-2,1.05A4.18,4.18,0,0,0,65,16.8H59.61a7.75,7.75,0,0,1,1.07-4,7.52,7.52,0,0,1,3-2.84,8.84,8.84,0,0,1,4.26-1,8.69,8.69,0,0,1,5.82,1.74,6.22,6.22,0,0,1,2,5,7.27,7.27,0,0,1-.51,2.68,11.73,11.73,0,0,1-1.59,2.74,40.37,40.37,0,0,1-3.48,3.8l-3,3.44h9.2v4.19Z" fill="#fff"/>
    </g>
  </g>
</svg>
