<svg id="Слой_1" data-name="Слой 1" xmlns="http://www.w3.org/2000/svg" width="105" height="28" viewBox="0 0 105 28">
  <title>pay_search</title>
  <g>
    <path d="M7.31,15.23v4.12H5V8H9.38a4.49,4.49,0,0,1,3.09,1,3.35,3.35,0,0,1,1.13,2.63,3.32,3.32,0,0,1-1.13,2.63,4.52,4.52,0,0,1-3.09,1H7.31Zm0-1.76H9.38A1.9,1.9,0,0,0,10.83,13a1.85,1.85,0,0,0,.49-1.32,1.93,1.93,0,0,0-.49-1.36,1.87,1.87,0,0,0-1.45-.54H7.31v3.73Z" fill="#fff"/>
    <path d="M20.3,16.91H16.61l-0.77,2.45H13.46L17.3,8h2.34l3.82,11.37H21.07Zm-3.12-1.79h2.57l-1.26-4h0Z" fill="#fff"/>
    <path d="M27.29,13.23h0L29.82,8h2.5l-3.9,7.37v4H26.14V15.24L22.3,8h2.5Z" fill="#fff"/>
    <path d="M41,19.36H33.32V17.87l3.52-4A8.94,8.94,0,0,0,38,12.31a2.62,2.62,0,0,0,.33-1.18A1.7,1.7,0,0,0,37.95,10a1.29,1.29,0,0,0-1.05-.42,1.35,1.35,0,0,0-1.15.54,2.21,2.21,0,0,0-.41,1.37H33.12l0,0a3.38,3.38,0,0,1,1-2.57,3.75,3.75,0,0,1,2.79-1.05,3.86,3.86,0,0,1,2.72.89,3.11,3.11,0,0,1,1,2.4A3.38,3.38,0,0,1,40,13a21.07,21.07,0,0,1-1.87,2.34l-1.87,2.25,0,0H41v1.75Z" fill="#fff"/>
    <path d="M46.65,13.23h0L49.18,8h2.5l-3.9,7.37v4H45.5V15.24L41.66,8h2.5Z" fill="#fff"/>
    <path d="M61.55,14.69a4.78,4.78,0,0,1-1.32,3.46,5,5,0,0,1-6.86,0,4.8,4.8,0,0,1-1.31-3.46v-2a4.81,4.81,0,0,1,1.31-3.46,4.5,4.5,0,0,1,3.41-1.37,4.58,4.58,0,0,1,3.45,1.37,4.77,4.77,0,0,1,1.33,3.46v2Zm-2.27-2.06a3.44,3.44,0,0,0-.66-2.18,2.2,2.2,0,0,0-1.84-.85,2.13,2.13,0,0,0-1.8.85,3.51,3.51,0,0,0-.64,2.18v2.06A3.53,3.53,0,0,0,55,16.9a2.15,2.15,0,0,0,1.81.85,2.18,2.18,0,0,0,1.83-.85,3.51,3.51,0,0,0,.66-2.2V12.63Z" fill="#fff"/>
    <path d="M72.37,8v7.44a3.74,3.74,0,0,1-1.27,3,4.92,4.92,0,0,1-3.3,1.09,4.86,4.86,0,0,1-3.29-1.09,3.76,3.76,0,0,1-1.26-3V8h2.29v7.44a2.34,2.34,0,0,0,.61,1.74,2.24,2.24,0,0,0,1.65.6,2.29,2.29,0,0,0,1.67-.6,2.32,2.32,0,0,0,.62-1.74V8h2.29Z" fill="#fff"/>
  </g>
  <g opacity="0.3">
    <path d="M97.62,21a1.34,1.34,0,0,1-1.33,1.33,1.23,1.23,0,0,1-.93-0.39l-3.55-3.54a7.28,7.28,0,0,1-7,.71A7.13,7.13,0,0,1,81,15.23a7.27,7.27,0,0,1,0-5.66,7.14,7.14,0,0,1,3.88-3.88,7.27,7.27,0,0,1,5.66,0,7.14,7.14,0,0,1,3.88,3.88,7.28,7.28,0,0,1-.71,7l3.55,3.55A1.27,1.27,0,0,1,97.62,21ZM91,15.68a4.47,4.47,0,0,0,1.36-3.28,4.64,4.64,0,0,0-9.28,0A4.64,4.64,0,0,0,91,15.68Z" fill="#fff"/>
  </g>
  <g opacity="0.3">
    <path d="M102,28H3a3.27,3.27,0,0,1-3-3.43V21H1v3.57A2.3,2.3,0,0,0,3,27h99a2.34,2.34,0,0,0,2-2.43V21h1v3.57A3.32,3.32,0,0,1,102,28Z" fill="#fff"/>
    <path d="M105,7h-1V3.21A2,2,0,0,0,102.16,1h-99A2.2,2.2,0,0,0,1,3.21V6H0V3.21A3.21,3.21,0,0,1,3.13,0h99A3,3,0,0,1,105,3.21V7Z" fill="#fff"/>
  </g>
</svg>
