<?xml version="1.0" encoding="utf-8"?>
<!-- Generator: Adobe Illustrator 19.0.0, SVG Export Plug-In . SVG Version: 6.00 Build 0)  -->
<svg version="1.1" id="Слой_1" xmlns="http://www.w3.org/2000/svg" xmlns:xlink="http://www.w3.org/1999/xlink" x="0px" y="0px"
	 viewBox="0 0 153.6 42.4" style="enable-background:new 0 0 153.6 42.4;" xml:space="preserve">
<style type="text/css">
	.st0{fill:#2D7DB3;}
	.st1{fill:#3C97D3;}
	.st2{font-family:'Roboto-Bold';}
	.st3{font-size:10.7812px;}
	.st4{font-family:'Roboto-Black';}
	.st5{font-size:5.8807px;}
</style>
<g id="logo_x5F_PCI_x5F_DSS">
	<g id="logo_x5F_PCI_x5F_DSS_2_">
		<polyline class="st0" points="62.8,26.7 15.9,41.5 2.2,4.2 51.4,1.5 62.8,26.7 		"/>
		<path class="st1" d="M27.3,19.2c0,0.9-0.2,1.8-0.6,2.5c-0.4,0.7-1,1.3-1.8,1.8c-0.8,0.5-1.7,1-2.7,1.2c-1.1,0.2-2.2,0.5-3.5,0.5
			h-2.5v5h-6v-16h8.6c2.7,0,4.8,0.2,6.3,1.1C26.6,16.3,27.3,17.4,27.3,19.2 M21.5,19.3c0-1.4-1-2.1-3.1-2.1h-2.2v5h2.1
			c1,0,1.7-0.3,2.3-0.9C21.1,21,21.5,20.1,21.5,19.3z"/>
		<path class="st1" d="M42.4,29.8c-0.9,0.2-2,0.3-3.2,0.3c-1.7,0-3.2-0.2-4.5-0.6c-1.3-0.4-2.4-0.9-3.4-1.6
			c-0.9-0.7-1.6-1.6-2.1-2.6c-0.5-1-0.7-2.2-0.7-3.4c0-1.2,0.3-2.4,0.8-3.4c0.5-1,1.2-1.9,2.2-2.6c0.9-0.7,2-1.3,3.3-1.7
			c1.3-0.4,2.7-0.6,4.2-0.6c1.2,0,2.3,0,3.3,0.2c1,0.2,1,0.2,1.8,0.5l0,4.3c-0.6-0.3-1.3-0.6-2-0.8c-0.7-0.2-1.6-0.3-2.4-0.3
			c-1.4,0-2.5,0.4-3.4,1.1c-0.9,0.8-1.3,1.8-1.3,3.2c0,0.7,0.1,1.4,0.4,1.9c0.3,0.5,0.6,1,1.1,1.4c0.5,0.4,1,0.6,1.6,0.8
			c0.6,0.2,1.3,0.3,2,0.3c0.7,0,1.4-0.1,2.1-0.2c0.7-0.2,1.4-0.4,2.2-0.7l0,4C43.4,29.5,43.3,29.6,42.4,29.8"/>
		<rect x="46.2" y="14.3" class="st1" width="7" height="16"/>
		<path class="st1" d="M53.7,8.8c0,1.1-0.4,1.9-1.1,2.5c-0.7,0.6-1.6,0.9-2.6,0.9c-1,0-1.9-0.3-2.6-0.9c-0.7-0.6-1.1-1.5-1.1-2.5
			c0-1.1,0.4-2,1.1-2.6c0.7-0.6,1.6-0.9,2.6-0.9c1,0,1.9,0.3,2.6,0.9C53.3,6.8,53.7,7.7,53.7,8.8"/>
	</g>
	<text transform="matrix(1 0 0 1 65.3258 25.5025)"><tspan x="0" y="0" class="st0 st2 st3">Security</tspan><tspan x="0" y="9.6" class="st0 st2 st3">Standards Counsil</tspan></text>
	<text transform="matrix(1 0 0 1 144.5851 24.2291)" class="st0 st4 st5">TM</text>
</g>
</svg>
