<?xml version="1.0" encoding="UTF-8" standalone="no"?>
<svg width="592px" height="241px" viewBox="0 0 592 241" version="1.1" xmlns="http://www.w3.org/2000/svg" xmlns:xlink="http://www.w3.org/1999/xlink" xmlns:sketch="http://www.bohemiancoding.com/sketch/ns">
    <!-- Generator: Sketch 3.4.4 (17249) - http://www.bohemiancoding.com/sketch -->
    <title>receipt-bg</title>
    <desc>Created with Sketch.</desc>
    <defs></defs>
    <g id="Page-1" stroke="none" stroke-width="1" fill="none" fill-rule="evenodd" sketch:type="MSPage">
        <g id="receipt-bg" sketch:type="MSLayerGroup" fill="#FFFFFF">
            <g id="Group" sketch:type="MSShapeGroup">
                <path d="M543.1,106 C542.1,105.9 531.7,104.4 523.5,115 C522,115.1 518.9,115.7 517.2,116 C516.4,116.2 515.7,116.7 515.3,117.4 L512.6,122.6 C512.4,123 512.9,123.5 513.3,123.2 L516.1,121.4 C516.8,121 517.6,120.8 518.4,120.9 L519.8,121.1 L519.6,121.5 L521.9,124 L517.5,128.5 L518.9,130.1 L523.8,126.2 L525.9,128.4 L526.5,128.1 L526.6,129.7 C526.6,130.5 526.4,131.3 525.9,132 L523.9,134.7 C523.6,135.1 524,135.7 524.5,135.5 L530,133.1 C530.8,132.8 531.3,132.1 531.6,131.3 C532.1,129.4 532.9,126.1 533,124.8 C544.2,117.3 543.3,107.2 543.1,106 L543.1,106 L543.1,106 Z M537.3,114.5 C536.4,115.3 535,115.3 534.1,114.3 C533.3,113.4 533.3,112 534.3,111.1 C535.3,110.2 536.6,110.3 537.5,111.3 C538.3,112.2 538.2,113.6 537.3,114.5 L537.3,114.5 Z" id="Shape"></path>
                <path d="M591.8,22.7 L591.8,22.7 C590,22.3 572.1,18.4 556.4,35.7 C553.8,35.7 548.4,36.3 545.3,36.6 C543.8,36.8 542.5,37.6 541.8,38.8 L536.3,47.5 C535.8,48.2 536.6,49.1 537.4,48.7 L542.6,46 C543.8,45.4 545.3,45.2 546.6,45.4 L549,45.9 L548.6,46.6 L552.3,51.2 L544.1,58.4 L545.4,60 C519.9,75 495.4,91.6 472,109.7 C468.2,112.6 464.4,115.6 460.6,118.7 C473.9,70.6 498.4,42.2 502.3,37.9 L503.9,39.3 L510.5,32.9 L513.9,35.9 L514.8,35.4 L515.2,37.7 C515.4,38.9 515.2,40 514.6,41.1 L512.1,45.3 C511.7,45.9 512.4,46.7 513.1,46.3 L520.7,42.1 C521.8,41.5 522.5,40.4 522.7,39.2 C523.1,36.4 523.9,31.5 523.9,29.5 C539.1,17.1 536.4,2.5 535.9,0.9 L535.9,0.9 C534.4,0.9 519.1,0.2 508.7,16.8 C506.5,17.2 502.2,18.4 499.7,19.2 C498.5,19.5 497.6,20.4 497.1,21.5 L493.9,29.4 C493.6,30.1 494.4,30.7 495,30.2 L498.9,27.2 C499.8,26.5 501,26.1 502.1,26.1 L504.1,26.1 L503.8,26.7 L507.5,30 L501.8,37.1 L502.4,37.7 C483.5,53.9 465.7,71.2 449,89.5 C434.6,105.3 420.8,122.2 413.6,142.3 C408.3,157 406.9,172.6 407.7,187.6 L183.4,187.6 C182.4,182.6 181.1,178 179.4,173.3 C172.2,153.2 158.4,136.3 144,120.5 C127.3,102.1 109.4,84.8 90.6,68.7 L91.2,68.1 L85.5,61 L89.2,57.7 L89,57.3 L91,57.3 C92.2,57.3 93.3,57.7 94.2,58.4 L98.1,61.4 C98.7,61.8 99.5,61.3 99.2,60.6 L96,52.6 C95.5,51.5 94.6,50.6 93.4,50.3 C90.9,49.6 86.5,48.3 84.4,47.9 C74,31.3 58.8,32 57.2,32 L57.2,32 C56.7,33.7 54,48.2 69.2,60.6 C69.2,62.6 69.9,67.5 70.4,70.3 C70.6,71.5 71.3,72.6 72.4,73.2 L80,77.4 C80.6,77.8 81.3,77 81,76.4 L78.5,72.2 C77.9,71.2 77.7,70 77.9,68.8 L78.3,66.5 L79.2,67 L82.6,64 L89.2,70.4 L90.8,69 C94.7,73.3 119.3,101.7 132.5,149.8 C128.8,146.7 125,143.7 121.1,140.8 C97.7,122.8 73.1,106.2 47.7,91.1 L49,89.5 L40.8,82.3 L44.5,77.7 L44.1,77 L46.5,76.5 C47.9,76.2 49.3,76.4 50.5,77.1 L55.7,79.8 C56.5,80.2 57.3,79.4 56.8,78.6 L51.3,69.9 C50.5,68.7 49.2,67.9 47.8,67.7 C44.7,67.4 39.3,66.8 36.7,66.8 C20.7,49.4 2.8,53.4 1,53.7 C0.8,55.8 0.7,73.5 21.2,85 C21.6,87.4 23.5,93 24.6,96.2 C25.1,97.6 26.2,98.7 27.6,99.2 L37.5,102.6 C38.3,102.9 39,101.9 38.4,101.2 L34.6,96.7 C33.7,95.6 33.2,94.3 33.1,92.9 L33,90 L34.1,90.4 L37.4,86.2 L46.5,92.4 L47.4,91.3 C54.4,96.8 91.8,128 117.2,186.5 C116.8,186.2 116.4,185.9 115.9,185.6 C103.2,176.6 89.9,168.4 76.3,161.2 C76.3,161.2 104.1,187.4 124.4,240.4 C140.6,240.4 458.3,240.3 458.3,240.3 L516.4,130.2 C502.8,137.4 489.5,145.5 476.8,154.6 C476.4,154.9 476,155.2 475.5,155.5 C500.9,97 538.4,65.7 545.3,60.3 L546.2,61.4 L555.3,55.2 L558.6,59.4 L559.7,59 L559.6,61.8 C559.6,63.2 559.1,64.6 558.1,65.6 L554.3,70.1 C553.7,70.8 554.4,71.8 555.2,71.5 L565.1,68.1 C566.5,67.6 567.6,66.5 568.1,65.1 C569.2,61.9 571.1,56.3 571.5,53.9 C592.2,42.5 592.1,24.8 591.8,22.7 L591.8,22.7 Z M523.6,9.7 C524.8,8.4 526.9,8.3 528.2,9.5 C529.5,10.7 529.6,12.8 528.4,14.1 C527.2,15.4 525.1,15.5 523.8,14.3 C522.5,13.1 522.4,11.1 523.6,9.7 L523.6,9.7 Z M69,45.3 C67.7,46.5 65.6,46.4 64.4,45.1 C63.2,43.8 63.3,41.7 64.6,40.5 C65.9,39.3 68,39.4 69.2,40.7 C70.5,42.1 70.4,44.1 69,45.3 L69,45.3 Z M17.8,67 C16.5,68.7 14,69 12.3,67.7 C10.6,66.4 10.3,63.9 11.6,62.2 C12.9,60.5 15.4,60.2 17.1,61.5 C18.8,62.8 19.1,65.3 17.8,67 L17.8,67 Z M580.6,36.7 C578.9,38 576.4,37.7 575.1,36 C573.8,34.3 574.1,31.8 575.8,30.5 C577.5,29.2 580,29.5 581.3,31.2 C582.7,32.9 582.3,35.4 580.6,36.7 L580.6,36.7 Z" id="Shape"></path>
                <path d="M73.4,152.6 L73.2,152.2 L74.6,152 C75.4,151.9 76.2,152.1 76.9,152.5 L79.7,154.3 C80.1,154.6 80.6,154.1 80.4,153.7 L77.7,148.5 C77.3,147.8 76.6,147.2 75.8,147.1 C74,146.8 71,146.2 69.5,146.1 C61.3,135.5 50.9,137 49.9,137.1 C49.7,138.3 48.8,148.4 60,155.8 C60.1,157.2 61,160.5 61.4,162.3 C61.6,163.1 62.2,163.8 63,164.1 L68.5,166.5 C69,166.7 69.4,166.2 69.1,165.7 L67.1,163 C66.6,162.3 66.4,161.5 66.4,160.7 L66.5,159.1 L67.1,159.4 L69.2,157.2 L74.1,161.1 L75.5,159.5 L71.1,155 L73.4,152.6 L73.4,152.6 Z M58.8,145.3 C58,146.2 56.5,146.3 55.6,145.5 C54.7,144.7 54.6,143.2 55.4,142.3 C56.2,141.4 57.7,141.3 58.6,142.1 C59.5,142.9 59.6,144.4 58.8,145.3 L58.8,145.3 Z" id="Shape"></path>
            </g>
        </g>
    </g>
</svg>