<?xml version="1.0" encoding="UTF-8" standalone="no"?>
<svg width="31px" height="33px" viewBox="0 0 31 33" version="1.1" xmlns="http://www.w3.org/2000/svg" xmlns:xlink="http://www.w3.org/1999/xlink" xmlns:sketch="http://www.bohemiancoding.com/sketch/ns">
    <!-- Generator: Sketch 3.4.4 (17249) - http://www.bohemiancoding.com/sketch -->
    <title>recipient</title>
    <desc>Created with Sketch.</desc>
    <defs></defs>
    <g id="Page-1" stroke="none" stroke-width="1" fill="none" fill-rule="evenodd" sketch:type="MSPage">
        <g id="recipient" sketch:type="MSLayerGroup">
            <g id="Group" sketch:type="MSShapeGroup">
                <path d="M12.2,19.2 C5.6,22 3.6,23.7 2.8,24.4 C1.6,25.4 0.9,29.7 0.2,32.7 L15.2,32.7 L30.2,32.7 C29.5,29.7 28.8,25.4 27.6,24.4 C26.8,23.7 24.9,22.2 18.3,19.4 L12.2,19.2 L12.2,19.2 Z" id="Shape" fill="#7FC347"></path>
                <path d="M11.6,13.8 L11.6,18.4 L11.6,20.7 C13.6,22.7 16.6,22.8 18.6,20.7 L18.6,18.4 L18.6,13.8 C18.6,10.8 11.6,10.8 11.6,13.8 L11.6,13.8 Z" id="Shape" fill="#FEDABA"></path>
                <path d="M8.5,9.3 C9.1,9.1 9.8,9.7 10.1,10.7 C10.4,11.6 10.2,12.5 9.7,12.7 C9.1,12.9 8.4,12.3 8.1,11.3 C7.7,10.4 7.9,9.5 8.5,9.3 L8.5,9.3 Z" id="Shape" fill="#FEDABA"></path>
                <path d="M21.9,9.3 C21.3,9.1 20.6,9.7 20.3,10.7 C20,11.6 20.2,12.5 20.7,12.7 C21.3,12.9 22,12.3 22.3,11.3 C22.7,10.4 22.5,9.5 21.9,9.3 L21.9,9.3 Z" id="Shape" fill="#FEDABA"></path>
                <path d="M15.2,22.2 C15.2,22.2 10.7,23.5 10.7,23.8 C10.7,24.1 12.4,32.8 12.4,32.8 L18.5,32.8 L19.2,23.9 L15.2,22.2 L15.2,22.2 Z" id="Shape" fill="#FFFFFF"></path>
                <path d="M11.6,19.3 L11.6,20.7 L13.4,32.8 L11,32.8 L8.4,27.3 L10.9,25.6 L7.8,24.2 L10.4,19.9 L11.6,19.3 Z" id="Shape" fill="#3DB54A"></path>
                <path d="M18.6,19.3 L18.6,20.7 L17,32.8 L19.4,32.8 L22.1,27.3 L19.6,25.6 L22.6,24.2 L20.2,20.1 L18.6,19.3 Z" id="Shape" fill="#3DB54A"></path>
                <path d="M13.8,24.1 L14.6,25.7 L15.8,25.7 L16.6,24.1 L15.2,22.7 L13.8,24.1 L13.8,24.1 Z" id="Shape" fill="#C93938"></path>
                <path d="M14.6,25.8 L13.5,32.8 L16.9,32.8 L15.8,25.8 L14.6,25.8 Z" id="Shape" fill="#C93938"></path>
                <path d="M12,18.4 L11.7,19.4 L12.5,24.8 L15.2,22.2 L12,18.4 L12,18.4 Z" id="Shape" fill="#EDEDED"></path>
                <path d="M11.6,17.8 L11.6,17.4 C11.6,17.4 13.5,19.3 15.1,19.3 C16.7,19.4 18.6,17.5 18.6,17.5 L18.6,17.8" id="Shape" opacity="0.2" fill="#010101"></path>
                <g transform="translate(7.000000, 0.000000)">
                    <path d="M13.3,1.7 C14.8,1.9 15.6,2.9 15.9,4.2 C16.8,7.6 14.9,14.9 8.3,15 C4.9,15 2.5,14.2 1.6,11.6 C0.8,9 0.4,4.8 2.3,2.5 C4.8,-0.5 9.9,-0.5 13.3,1.7 L13.3,1.7 Z" id="Shape" fill="#765B49"></path>
                    <path d="M8.2,1.2 C-1.7,1.2 2.1,14.1 2.7,15.1 C3.4,16.2 6.6,18.6 8.2,18.6 C9.8,18.6 12.9,16.2 13.7,15.1 C14.3,14.1 18.1,1.2 8.2,1.2 L8.2,1.2 Z" id="Shape" fill="#FEDABA"></path>
                    <path d="M3.4,5.2 C5.2,6.2 6.5,4.7 8.1,5.4 C9.8,6 14.1,2.9 15,9.8 C16.5,4.8 14.2,1.2 8.5,1 C2.3,0.7 -0.1,6.1 1.6,11 C1.4,8.3 2.1,6.6 3.4,5.2 L3.4,5.2 Z" id="Shape" fill="#765B49"></path>
                    <g id="XMLID_11_" transform="translate(3.000000, 4.000000)" fill="#765B49">
                        <path d="M0.2,0.8 C1.33226763e-15,1.8 1.6,2.1 2.3,2.1 C3.6,2.2 5.9,1.9 6.6,0.7 C6.7,0.6 6.6,0.5 6.5,0.4 C5.4,-0.1 4.1,0.9 3,1 C2.1,1.1 1.2,0.8 0.3,0.6 C0.3,0.6 0.2,0.7 0.2,0.8 L0.2,0.8 L0.2,0.8 Z" id="XMLID_15_"></path>
                    </g>
                </g>
                <path d="M18.3,13.2 L18.5,13.2 C20.1,13.1 20.5,12.4 20.7,11.5 C20.9,10.5 20.9,10.2 21.2,10.1 C21.4,10 21.4,9.8 21.4,9.6 C21.4,9.4 21.4,9.3 21.1,9.2 C20.9,9.1 19.5,9 18.4,9.1 L18.4,9.4 C19.2,9.4 20,9.5 20.2,9.6 C20.7,9.9 20.6,11.5 20.1,12.2 C19.8,12.7 19,13 18.3,13 L18.3,13.2 L18.3,13.2 Z M15.3,9.6 C14.9,9.6 13.5,9.2 12.5,9.1 L12.3,9.1 L12.3,9.4 C13.1,9.4 14,9.6 14.3,10 C14.8,10.7 13.9,12.4 13.1,12.8 C12.9,12.9 12.5,13 12.2,13 L12.2,13.2 C13.6,13.2 14.1,12.2 14.3,11.9 C14.6,11.3 14.6,10.5 15.4,10.5 C16.2,10.5 16.1,11.3 16.4,11.9 C16.6,12.2 17,13.2 18.5,13.2 L18.5,13 C18.1,13 17.8,12.9 17.6,12.8 C16.8,12.4 16.1,10.7 16.6,10 C16.9,9.6 17.8,9.4 18.6,9.3 L18.6,9 L18.4,9 C17.2,9.2 16.1,9.6 15.3,9.6 L15.3,9.6 Z M12.2,9.1 C11.2,9 9.8,9.2 9.6,9.3 C9.3,9.3 9.3,9.4 9.2,9.6 C9.2,9.8 9.2,10.1 9.4,10.1 C9.7,10.2 9.6,10.5 9.8,11.5 C9.9,12.4 10.3,13.1 11.9,13.2 L12.1,13.2 L12.1,13 C11.4,13 10.5,12.7 10.3,12.2 C9.9,11.4 9.9,9.9 10.4,9.6 C10.6,9.5 11.4,9.4 12.2,9.4 L12.2,9.1 L12.2,9.1 Z" id="Shape" fill="#C93938"></path>
                <path d="M18.4,18.4 L18.6,19.4 L17.9,24.9 L15.2,22.2 L18.4,18.4 L18.4,18.4 Z" id="Shape" fill="#EDEDED"></path>
                <path d="M11.6,18.6 L15.1,22.3 L18.6,18.4 L18.6,18.3 L15.1,22.1 L11.6,18.3 L11.6,18.8" id="Shape" opacity="0.05" fill="#010101"></path>
                <path id="Shape" opacity="0.1" fill="#010101" d="M14.6,24.8 L15.8,24.8 L15.8,24.8 L14.6,24.8 L14.6,24.8 Z"></path>
            </g>
        </g>
    </g>
</svg>