<?xml version="1.0" encoding="UTF-8" standalone="no"?>
<svg width="34px" height="24px" viewBox="0 0 34 24" version="1.1" xmlns="http://www.w3.org/2000/svg" xmlns:xlink="http://www.w3.org/1999/xlink" xmlns:sketch="http://www.bohemiancoding.com/sketch/ns">
    <!-- Generator: Sketch 3.4.4 (17249) - http://www.bohemiancoding.com/sketch -->
    <title>rocket-small</title>
    <desc>Created with Sketch.</desc>
    <defs></defs>
    <g id="Page-1" stroke="none" stroke-width="1" fill="none" fill-rule="evenodd" sketch:type="MSPage">
        <g id="rocket-small" sketch:type="MSLayerGroup" transform="translate(0.000000, -1.000000)">
            <g id="Group" sketch:type="MSShapeGroup">
                <path d="M10.9,24.4 C10.9,24.4 16.6,17.3 19.1,15.4 L15.1,10 C15.1,10 10.3,15 10.9,24.4 L10.9,24.4 Z" id="Shape" fill="#DB9A33"></path>
                <path d="M0,17.9 C0,17.9 11.6,12.7 15.2,10.2 L19,15.5 C19,15.4 10.5,20.1 0,17.9 L0,17.9 Z" id="Shape" fill="#FFD890"></path>
                <g transform="translate(8.000000, 0.000000)" id="Shape">
                    <path d="M25.1,1.5 C25.1,1.5 25.3,10.2 15.2,15.1 L13.7,19.3 C13.5,19.8 13.1,20.1 12.7,20.3 L8.6,21.7 C8.2,21.8 7.9,21.3 8.2,21 L10.1,19 C10.1,19 12.2,17.2 9.2,13.1" fill="#2D7DB3"></path>
                    <path d="M25.1,1.5 C25.1,1.5 16.9,-1.4 9.1,6.6 L4.6,6.8 C4.1,6.8 3.6,7.1 3.3,7.5 L0.7,10.9 C0.4,11.2 0.8,11.7 1.2,11.5 L3.7,10.4 C3.7,10.4 6,9 9,13.1" fill="#5BABDF"></path>
                </g>
                <circle id="Oval" fill="#3C97D3" cx="26.1" cy="6.6" r="3.2"></circle>
            </g>
        </g>
    </g>
</svg>