<?xml version="1.0" encoding="UTF-8" standalone="no"?>
<svg width="135px" height="211px" viewBox="0 0 135 211" version="1.1" xmlns="http://www.w3.org/2000/svg" xmlns:xlink="http://www.w3.org/1999/xlink" xmlns:sketch="http://www.bohemiancoding.com/sketch/ns">
    <!-- Generator: Sketch 3.4.4 (17249) - http://www.bohemiancoding.com/sketch -->
    <title>rocket</title>
    <desc>Created with Sketch.</desc>
    <defs></defs>
    <g id="Page-1" stroke="none" stroke-width="1" fill="none" fill-rule="evenodd" sketch:type="MSPage">
        <g id="rocket" sketch:type="MSLayerGroup" transform="translate(-1.000000, 0.000000)">
            <g id="Group" sketch:type="MSShapeGroup">
                <path d="M132.6,158.3 C126.3,148.3 114.9,130.7 109.4,124.3 C123.3,42.7 74.2,3.9 68,0 L68,0 C63,4.1 12.6,44.5 25.7,126 C19.9,133.2 9.5,149.3 3.6,158.6 C0.8,163 0.2,168.3 1.8,173.1 L13.6,207.3 C14.6,210.2 18.7,209.9 19.3,206.8 L23.4,186.7 C24.4,181.8 27,177.5 30.7,174.3 L37.3,168.8 L38.2,171.5 L59.1,171.6 L60.8,210 L73.7,210.2 L76.8,171.6 L95.7,171.7 L97.1,167.8 L104.7,174.2 C108.5,177.4 111.1,181.8 112,186.7 L116,207 C116.6,210.1 120.8,210.5 121.9,207.5 L134.3,172.9 C136,168.1 135.4,162.7 132.6,158.3 L132.6,158.3 Z" id="Shape" fill="#E5E5E5"></path>
                <path d="M67.8,75.1 L67.8,75.1 L67.8,47.5 L67.8,0.2 C61.8,5.1 12.8,45.5 25.7,126 C19.9,133.2 9.5,149.3 3.6,158.6 C0.8,163 0.2,168.3 1.8,173.1 L13.6,207.3 C14.6,210.2 18.7,209.9 19.3,206.8 L23.4,186.7 C24.4,181.8 27,177.5 30.7,174.3 L37.3,168.8 L38.2,171.5 L59.1,171.6 L60.8,210 L67.7,210.1 L67.7,75.1 L67.8,75.1 Z" id="Shape" fill="#F2F2F2"></path>
            </g>
        </g>
    </g>
</svg>