<?xml version="1.0" encoding="utf-8"?>
<!-- Generator: Adobe Illustrator 19.0.0, SVG Export Plug-In . SVG Version: 6.00 Build 0)  -->
<svg version="1.1" id="Слой_1" xmlns="http://www.w3.org/2000/svg" xmlns:xlink="http://www.w3.org/1999/xlink" x="0px" y="0px"
	 viewBox="0 0 136.9 40.4" style="enable-background:new 0 0 136.9 40.4;" xml:space="preserve">
<style type="text/css">
	.st0{fill:#2D7DB3;}
	.st1{fill:#3C97D3;}
	.st2{font-family:'Roboto-Bold';}
	.st3{font-size:16px;}
	.st4{font-family:'Roboto-Regular';}
</style>
<g id="logo_x5F_3-D_x5F_Secure">
	<path class="st0" d="M132.9,35.9H41.6c-2.2,0-4-1.8-4-4V10.4c0-2.2,1.8-4,4-4h91.3c2.2,0,4,1.8,4,4v21.4
		C136.9,34.1,135.1,35.9,132.9,35.9z"/>
	<path class="st0" d="M17.6,0.4h-0.3c0,0-9.4,3.3-17,3.9c0,8.2,1,19.9,1,19.9c0,1.9,1.2,5.2,1.8,6.1c3.4,5.7,11.7,8.7,14.6,10.1
		c2.7-1.5,12-4.4,14.7-10.7c0.8-1.8,1.4-3.6,1.4-5.6c0,0,1-10.7,1-19.9C27,3.4,17.6,0.4,17.6,0.4z M32,23.8c0,1.7-0.6,3.3-1.3,4.9
		c-2.3,5.6-10.6,8.2-13,9.5c-2.6-1.3-10-3.9-13-9c-0.5-0.8-1.6-3.7-1.6-5.4c0,0-0.9-10.4-0.9-17.7C9,5.6,17.3,2.7,17.3,2.7h0.3
		c0,0,8.3,2.7,15.2,3.5C32.8,14.3,32,23.8,32,23.8z"/>
	<g>
		<g>
			<g>
				<path class="st0" d="M26.2,28.2c0,1.1-1,2-2.2,2H10.5c-1.2,0-2.2-0.9-2.2-2v-10c0-1.1,1-2,2.2-2H24c1.2,0,2.2,0.9,2.2,2V28.2z"
					/>
			</g>
			<g>
				<path class="st0" d="M23.2,18.2h-3V12c0-1.6-1.4-2.9-3-2.9s-3,1.3-3,2.9v6.2h-3V12c0-2.9,3-5.3,6-5.3s6,2.4,6,5.3V18.2z"/>
			</g>
		</g>
		<g>
			<path class="st1" d="M16.9,28.2C16.9,28.2,16.9,28.2,16.9,28.2c-0.5,0-0.9-0.8-1.2-1.1l-2.9-3.9c-0.6-0.7-0.4-1.8,0.2-2.4
				c0.7-0.6,1.7-0.5,2.2,0.2l1.8,2.2l3.6-3.7c0.6-0.6,1.6-0.7,2.2,0c0.6,0.6,0.6,1.6,0,2.2l-4.9,5.5C17.8,27.5,17.4,28.2,16.9,28.2z
				"/>
		</g>
	</g>
	<text transform="matrix(1 0 0 1 46.2825 26.8253)"><tspan x="0" y="0" class="st1 st2 st3">3D </tspan><tspan x="23.7" y="0" class="st1 st4 st3">SECURE</tspan></text>
</g>
</svg>
