<?xml version="1.0" encoding="UTF-8" standalone="no"?>
<svg width="31px" height="33px" viewBox="0 0 31 33" version="1.1" xmlns="http://www.w3.org/2000/svg" xmlns:xlink="http://www.w3.org/1999/xlink" xmlns:sketch="http://www.bohemiancoding.com/sketch/ns">
    <!-- Generator: Sketch 3.4.4 (17249) - http://www.bohemiancoding.com/sketch -->
    <title>sender</title>
    <desc>Created with Sketch.</desc>
    <defs></defs>
    <g id="Page-1" stroke="none" stroke-width="1" fill="none" fill-rule="evenodd" sketch:type="MSPage">
        <g id="sender" sketch:type="MSLayerGroup">
            <g id="Group" sketch:type="MSShapeGroup">
                <path d="M12.9,1.1 C13.5,-0.1 18.7,-1.1 20.8,3.1 C22.9,7.3 21.8,8.8 23,10.3 C24.2,11.8 21.4,23.4 15,23.3 C8.1,23.3 6.6,12.2 8,10 C9.3,7.8 8.1,1.1 12.9,1.1 L12.9,1.1 Z" id="Shape" fill="#BE9740"></path>
                <path d="M18,20.8 C17.9,20.9 12.2,21 12.1,21.1 C10.3,23.7 6.4,24.3 3.3,25 C0.2,25.7 0.1,30.4 0.1,32.4 L30.1,32.4 C30.1,30.4 30,25.7 26.9,25 C23.8,24.3 19.7,23.5 18,20.8 L18,20.8 Z" id="Shape" fill="#3C97D3"></path>
                <path d="M18.2,21.1 L18.2,22.5 L16.7,32.4 L13.6,32.4 L12.2,22.6 L12.2,21.1 L12.2,21.1 C12.3,21 18,20.9 18.1,20.8 C18.1,20.9 18.2,21 18.2,21.1 L18.2,21.1 Z" id="Shape" fill="#FFFFFF"></path>
                <path d="M12.2,15.4 L12.2,19.6 L12.2,22 C13.2,25.1 16.2,25.2 18.2,22 L18.2,19.6 L18.2,15.4 C18.2,11.4 12.2,11.4 12.2,15.4 L12.2,15.4 Z" id="Shape" fill="#F6DCC2"></path>
                <path d="M23.1,11.2 C22.5,10.9 21.7,11.6 21.2,12.7 C20.8,13.8 20.9,14.9 21.5,15.2 C22.1,15.5 22.9,14.8 23.4,13.7 C23.8,12.6 23.7,11.5 23.1,11.2 L23.1,11.2 Z" id="Shape" fill="#F6DCC2"></path>
                <path d="M7.2,11.2 C7.8,10.9 8.6,11.6 9.1,12.7 C9.5,13.8 9.4,14.9 8.8,15.2 C8.2,15.5 7.4,14.8 6.9,13.7 C6.5,12.6 6.6,11.5 7.2,11.2 L7.2,11.2 Z" id="Shape" fill="#F6DCC2"></path>
                <path d="M12.2,18.4 L12.2,18.6 C12.2,18.6 14.1,20.5 15.2,20.5 C16.3,20.5 18.2,18.6 18.2,18.6 L18.2,18.5 L12.2,18.5 L12.2,18.4 Z" id="Shape" opacity="0.2" fill="#010101"></path>
                <path d="M15.1,19.8 C13.2,19.8 9.3,16.7 8.1,12.3 C6.9,7.8 9.2,1.4 15.1,1.4 C21,1.4 23.4,7.8 22.1,12.3 C20.9,16.7 17,19.8 15.1,19.8 L15.1,19.8 Z" id="Shape" fill="#F6DCC2"></path>
                <path d="M16.3,6.9 C17.8,10 18.3,10.9 20.3,10.1 C22.2,9.3 21.9,11.6 21.5,13.2 C23.2,11 23,8.9 22.5,6.8 C21.9,4.5 19,0.9 16.2,1 C14.7,0.8 12.4,1 10,2.8 C5.8,5.9 7.2,12.8 8.3,13.6 C7.2,7.2 9.9,8.5 11.8,5.2 C12.4,3.7 14.8,3.6 16.3,6.9 L16.3,6.9 Z" id="Shape" fill="#BE9740"></path>
                <path d="M13.6,32.4 L11,32.4 L10.9,32.2 L8.3,29.8 L10.9,27.9 L7.7,26.4 L9.8,23 L10.7,21.7 L12.2,21.1 L12.2,22.6 L13.6,32.2 L13.6,32.4 Z" id="Shape" fill="#2D7DB4"></path>
                <path d="M19.3,27.8 L22,29.6 L19.4,32.2 L19.2,32.4 L16.6,32.4 L16.7,32.2 L18.2,22.5 L18.2,21 L19.9,21.8 L20.7,23.1 L22.6,26.3 L19.3,27.8 Z" id="Shape" fill="#2D7DB4"></path>
            </g>
        </g>
    </g>
</svg>