<?xml version="1.0" encoding="utf-8"?>
<!-- Generator: Adobe Illustrator 19.0.0, SVG Export Plug-In . SVG Version: 6.00 Build 0)  -->
<svg version="1.1" id="Слой_1" xmlns="http://www.w3.org/2000/svg" xmlns:xlink="http://www.w3.org/1999/xlink" x="0px" y="0px"
	 viewBox="0 0 146.8 146.8" style="enable-background:new 0 0 146.8 146.8;" xml:space="preserve">
<style type="text/css">
	.st0{fill:#F15A4A;}
	.st1{fill:#FFFFFF;}
</style>
<g>
	<g id="XMLID_22_">
		<circle class="st0" cx="73.4" cy="73.4" r="63.4"/>
	</g>
	<g id="XMLID_20_">
		
			<image style="overflow:visible;" width="612" height="612" id="XMLID_21_" xlink:href="93BCE218DCF6FB16.png"  transform="matrix(0.24 0 0 0.24 0 0)">
		</image>
	</g>
</g>
<g id="XMLID_11_">
	<path id="XMLID_12_" class="st1" d="M27.1,36.8l-7.5-6.6l2.1-2.4c0.7-0.8,1.4-1.3,2.1-1.4c0.7-0.1,1.4,0.1,2,0.7
		c0.3,0.3,0.6,0.7,0.7,1.1c0.1,0.4,0.1,0.9-0.1,1.4c0.5-0.3,1-0.4,1.5-0.4c0.5,0,1,0.3,1.4,0.6c0.7,0.6,1,1.3,1,2
		c0,0.8-0.3,1.6-1,2.3L27.1,36.8z M23.6,32.1l1.3-1.5c0.4-0.4,0.6-0.9,0.6-1.3c0-0.4-0.2-0.8-0.5-1.2c-0.4-0.4-0.8-0.5-1.2-0.4
		c-0.4,0.1-0.8,0.4-1.2,0.8L21.3,30L23.6,32.1z M24.4,32.8l2.7,2.4l1.4-1.6c0.4-0.5,0.6-0.9,0.6-1.4c0-0.5-0.2-0.9-0.6-1.3
		c-0.9-0.8-1.8-0.7-2.6,0.3L24.4,32.8z"/>
	<path id="XMLID_23_" class="st1" d="M30.5,26.1l1.5-1.2c0.7-0.5,1.3-0.8,2-0.8c0.6,0,1.2,0.3,1.7,0.9c0.5,0.6,0.7,1.2,0.5,1.9
		c-0.1,0.7-0.5,1.3-1.1,1.8l-2.4,2l-4.7-5.7l1-0.8L30.5,26.1z M31.1,26.9l1.8,2.1l1.5-1.2c0.4-0.3,0.6-0.6,0.6-1
		c0-0.4-0.1-0.7-0.3-1c-0.3-0.3-0.6-0.5-0.9-0.5c-0.4,0-0.7,0.1-1.1,0.4L31.1,26.9z M39.2,25.2l-1,0.8l-4.7-5.7l1-0.8L39.2,25.2z"/>
	<path id="XMLID_27_" class="st1" d="M42.8,21.9c0.4-0.2,0.7-0.6,0.8-1c0.1-0.4,0.1-0.8,0-1.2l1-0.6c0.2,0.4,0.3,0.8,0.2,1.3
		c0,0.5-0.2,0.9-0.5,1.3s-0.6,0.8-1,1c-0.9,0.5-1.7,0.6-2.6,0.4c-0.9-0.3-1.6-0.9-2.2-1.9l-0.1-0.2c-0.4-0.6-0.6-1.2-0.6-1.9
		c-0.1-0.6,0-1.2,0.3-1.7s0.7-1,1.3-1.3c0.7-0.4,1.4-0.6,2.2-0.4c0.7,0.1,1.3,0.5,1.7,1.2l-1,0.6c-0.3-0.4-0.6-0.6-1.1-0.7
		c-0.4-0.1-0.9,0-1.3,0.2c-0.6,0.3-0.9,0.8-0.9,1.4c-0.1,0.6,0.1,1.2,0.6,2l0.1,0.2c0.4,0.7,0.9,1.2,1.5,1.4
		C41.7,22.3,42.3,22.3,42.8,21.9z"/>
	<path id="XMLID_29_" class="st1" d="M45,17.4c-0.3-0.7-0.4-1.3-0.4-2c0-0.6,0.2-1.2,0.5-1.7c0.3-0.5,0.8-0.9,1.4-1.1
		c0.9-0.4,1.8-0.4,2.7,0c0.9,0.4,1.5,1.1,2,2.2l0,0.1c0.3,0.7,0.4,1.3,0.4,1.9c0,0.6-0.2,1.2-0.5,1.7c-0.3,0.5-0.8,0.9-1.4,1.2
		c-0.9,0.4-1.8,0.4-2.7,0C46.1,19.2,45.5,18.5,45,17.4L45,17.4z M46.2,17c0.3,0.8,0.8,1.3,1.3,1.6c0.5,0.3,1.1,0.3,1.7,0.1
		c0.6-0.3,1-0.7,1.1-1.3c0.1-0.6,0-1.3-0.3-2.2c-0.3-0.7-0.8-1.3-1.3-1.6c-0.6-0.3-1.1-0.3-1.7-0.1c-0.6,0.3-0.9,0.7-1.1,1.3
		C45.7,15.4,45.8,16.2,46.2,17z"/>
	<path id="XMLID_32_" class="st1" d="M55.2,14l-0.9,0.3l0.9,3L54,17.7l-2.1-7.1l1.2-0.4l0.9,3l0.8-0.2l1.5-3.7l1.5-0.4L56,13.1
		l4.1,2.8l-1.5,0.5L55.2,14z"/>
	<path id="XMLID_34_" class="st1" d="M65.4,14.9c-0.1-0.1-0.2-0.4-0.3-0.7c-0.5,0.7-1.1,1.1-1.9,1.3c-0.7,0.1-1.3,0-1.9-0.3
		c-0.5-0.3-0.8-0.8-1-1.4c-0.1-0.8,0.1-1.4,0.6-1.9c0.5-0.5,1.3-0.9,2.3-1l1.2-0.2L64.4,10c-0.1-0.4-0.3-0.8-0.6-1
		c-0.3-0.2-0.7-0.3-1.2-0.2c-0.4,0.1-0.8,0.2-1.1,0.5c-0.3,0.3-0.4,0.6-0.3,0.9l-1.3,0.2c-0.1-0.4,0-0.7,0.2-1.1
		c0.2-0.4,0.5-0.7,0.9-1c0.4-0.3,0.9-0.5,1.4-0.5c0.8-0.1,1.5,0,2.1,0.3c0.5,0.3,0.9,0.9,1,1.6l0.6,3.4c0.1,0.7,0.3,1.2,0.5,1.6
		l0,0.1L65.4,14.9z M63.2,14.3c0.4-0.1,0.7-0.2,1.1-0.5c0.3-0.3,0.5-0.6,0.6-0.9l-0.3-1.5l-1,0.2c-1.5,0.3-2.2,0.8-2.1,1.7
		c0.1,0.4,0.2,0.7,0.5,0.9C62.4,14.4,62.8,14.4,63.2,14.3z"/>
	<path id="XMLID_37_" class="st1" d="M73.4,7l0.3,7.4l-1.3,0.1l-0.1-2.9l-1.9,0.1l-1.6,2.9l-1.4,0.1l1.7-3.1
		c-0.5-0.2-0.9-0.4-1.1-0.8c-0.3-0.4-0.4-0.8-0.4-1.3c0-0.7,0.2-1.2,0.7-1.7s1.2-0.7,2-0.7L73.4,7z M68.9,9.4c0,0.4,0.2,0.6,0.4,0.9
		c0.3,0.2,0.6,0.3,1,0.3l2-0.1L72.2,8l-1.8,0.1c-0.5,0-0.8,0.2-1.1,0.4C69,8.8,68.9,9.1,68.9,9.4z"/>
	<path id="XMLID_40_" class="st1" d="M101.6,18l-0.8-0.4l-1.5,2.8l-1.1-0.6l3.4-6.6l1.1,0.6l-1.4,2.8L102,17l3.7-1.6L107,16
		l-4.2,1.8l1,4.9l-1.4-0.7L101.6,18z"/>
	<path id="XMLID_42_" class="st1" d="M106.2,19.8c0.4-0.6,0.9-1.1,1.5-1.4c0.6-0.3,1.1-0.5,1.7-0.4c0.6,0,1.2,0.2,1.7,0.6
		c0.8,0.6,1.3,1.3,1.4,2.2c0.1,0.9-0.1,1.9-0.8,2.8l0,0.1c-0.4,0.6-0.9,1-1.4,1.4s-1.1,0.5-1.7,0.4c-0.6,0-1.2-0.2-1.7-0.6
		c-0.8-0.6-1.3-1.3-1.4-2.2C105.2,21.7,105.5,20.8,106.2,19.8L106.2,19.8z M107.2,20.6c-0.5,0.7-0.7,1.3-0.6,2
		c0,0.6,0.3,1.1,0.8,1.5c0.5,0.4,1.1,0.4,1.7,0.2s1.2-0.7,1.7-1.4c0.5-0.7,0.7-1.3,0.6-2s-0.3-1.1-0.8-1.5c-0.5-0.4-1.1-0.4-1.7-0.2
		C108.2,19.4,107.7,19.9,107.2,20.6z"/>
	<path id="XMLID_45_" class="st1" d="M114.9,29.1l5.7-2.5l1.2,1.1l-5,5.4l-0.9-0.9l3.7-3.9l-5.4,2.3l-0.6-0.6l2-5.7l-3.7,4l-0.9-0.9
		l5-5.4l1.2,1.1L114.9,29.1z"/>
	<path id="XMLID_47_" class="st1" d="M126.6,33.6l0.8,1l-5.8,4.6l-0.8-1l4.2-3.3l-6.3,0.7l-0.8-1l5.8-4.6l0.8,1l-4.2,3.3L126.6,33.6
		z"/>
	<path id="XMLID_49_" class="st1" d="M124.8,42.6c0.2,0.4,0.6,0.7,1,0.8s0.8,0.1,1.2,0l0.6,1c-0.4,0.2-0.8,0.3-1.3,0.3
		c-0.5,0-0.9-0.2-1.3-0.4c-0.4-0.3-0.8-0.6-1-1c-0.5-0.9-0.6-1.7-0.4-2.6c0.3-0.9,0.9-1.6,1.9-2.2l0.2-0.1c0.6-0.4,1.2-0.6,1.8-0.7
		c0.6-0.1,1.2,0,1.7,0.3c0.5,0.3,1,0.7,1.3,1.3c0.4,0.7,0.6,1.4,0.4,2.2c-0.1,0.7-0.5,1.3-1.2,1.8l-0.6-1c0.4-0.3,0.6-0.6,0.7-1.1
		s0-0.9-0.2-1.3c-0.3-0.5-0.8-0.9-1.4-0.9c-0.6-0.1-1.2,0.1-2,0.6l-0.2,0.1c-0.7,0.4-1.2,0.9-1.4,1.5
		C124.4,41.5,124.5,42.1,124.8,42.6z"/>
	<path id="XMLID_51_" class="st1" d="M128.1,49c0.2,0.4,0.5,0.7,0.9,0.9c0.4,0.2,0.8,0.2,1.2,0.1l0.5,1.1c-0.4,0.2-0.8,0.2-1.3,0.1
		s-0.9-0.3-1.3-0.6c-0.4-0.3-0.7-0.7-0.9-1.2c-0.4-0.9-0.4-1.8-0.1-2.6c0.4-0.8,1.1-1.5,2.1-1.9l0.2-0.1c0.7-0.3,1.3-0.4,1.9-0.4
		c0.6,0,1.2,0.2,1.7,0.5c0.5,0.3,0.9,0.8,1.1,1.4c0.3,0.8,0.4,1.5,0.2,2.2c-0.2,0.7-0.7,1.2-1.4,1.6l-0.5-1.1c0.4-0.2,0.7-0.6,0.9-1
		c0.1-0.4,0.1-0.9-0.1-1.3c-0.3-0.6-0.7-0.9-1.2-1.1c-0.6-0.1-1.2,0-2,0.3l-0.2,0.1c-0.8,0.4-1.3,0.8-1.6,1.3
		C127.9,47.9,127.9,48.4,128.1,49z"/>
	<path id="XMLID_53_" class="st1" d="M137.4,55.5l0.4,1.2l-7.1,2.2l-0.4-1.2l5.2-1.6l-6.2-1.7l-0.4-1.2L136,51l0.4,1.2l-5.2,1.6
		L137.4,55.5z"/>
	<path id="XMLID_55_" class="st1" d="M139.4,64.9l-7.3,1.3l-0.2-1.3l2.8-0.5l-0.3-1.9l-3.1-1.2l-0.2-1.3l3.3,1.3
		c0.1-0.5,0.3-0.9,0.6-1.2c0.3-0.3,0.7-0.5,1.2-0.6c0.7-0.1,1.2,0,1.7,0.5c0.5,0.4,0.8,1.1,1,1.9L139.4,64.9z M136.3,60.7
		c-0.4,0.1-0.6,0.2-0.8,0.5c-0.2,0.3-0.2,0.6-0.2,1l0.3,2l2.4-0.4l-0.3-1.8c-0.1-0.5-0.3-0.8-0.5-1C137,60.7,136.7,60.6,136.3,60.7z
		"/>
</g>
</svg>
