<?xml version="1.0" encoding="UTF-8" standalone="no"?>
<svg width="182px" height="56px" viewBox="0 0 182 56" version="1.1" xmlns="http://www.w3.org/2000/svg" xmlns:xlink="http://www.w3.org/1999/xlink" xmlns:sketch="http://www.bohemiancoding.com/sketch/ns">
    <!-- Generator: Sketch 3.4.4 (17249) - http://www.bohemiancoding.com/sketch -->
    <title>simile_logo</title>
    <desc>Created with Sketch.</desc>
    <defs></defs>
    <g id="Page-1" stroke="none" stroke-width="1" fill="none" fill-rule="evenodd" sketch:type="MSPage">
        <g id="simile_logo" sketch:type="MSLayerGroup">
            <g id="Group" sketch:type="MSShapeGroup">
                <g id="XMLID_72_" transform="translate(0.000000, 13.000000)" fill="#3C97D3">
                    <path d="M6.2,17.4 L6.2,26.1 L0,26.1 L0,0.5 L10.2,0.5 C12.2,0.5 13.9,0.9 15.4,1.6 C16.9,2.3 18.1,3.3 18.9,4.7 C19.7,6.1 20.1,7.5 20.1,9.2 C20.1,11.7 19.2,13.7 17.4,15.2 C15.6,16.7 13.2,17.4 10.1,17.4 L6.2,17.4 L6.2,17.4 Z M6.2,12.7 L10.2,12.7 C11.4,12.7 12.3,12.4 12.9,11.8 C13.5,11.2 13.8,10.4 13.8,9.3 C13.8,8.1 13.5,7.2 12.8,6.4 C12.2,5.7 11.3,5.3 10.2,5.3 L6.2,5.3 L6.2,12.7 L6.2,12.7 Z" id="XMLID_73_"></path>
                </g>
                <g id="XMLID_67_" transform="translate(18.000000, 13.000000)" fill="#3C97D3">
                    <path d="M16.7,21.3 L8.3,21.3 L6.8,26.1 L0.2,26.1 L9.6,0.6 L15.4,0.6 L24.8,26.1 L18.2,26.1 L16.7,21.3 L16.7,21.3 Z M9.8,16.6 L15.3,16.6 L12.5,7.7 L9.8,16.6 L9.8,16.6 Z" id="XMLID_68_"></path>
                </g>
                <g id="XMLID_47_" transform="translate(113.000000, 13.000000)" fill="#3C97D3">
                    <path d="M11.3,11.6 L16,0.5 L22.6,0.5 L14.4,16.9 L14.4,26.1 L8.2,26.1 L8.2,16.9 L0,0.5 L6.6,0.5 L11.3,11.6 L11.3,11.6 Z" id="XMLID_48_"></path>
                </g>
                <g id="XMLID_58_" transform="translate(136.000000, 13.000000)" fill="#3C97D3">
                    <path d="M22.7,13.8 C22.7,16.3 22.2,18.5 21.3,20.4 C20.4,22.3 19.1,23.8 17.4,24.8 C15.7,25.8 13.8,26.4 11.6,26.4 C9.4,26.4 7.5,25.9 5.8,24.9 C4.1,23.9 2.8,22.5 1.9,20.6 C1,18.7 0.5,16.6 0.4,14.2 L0.4,12.8 C0.4,10.3 0.9,8.1 1.8,6.2 C2.7,4.3 4,2.8 5.7,1.8 C7.4,0.8 9.4,0.2 11.5,0.2 C13.7,0.2 15.6,0.7 17.3,1.7 C19,2.7 20.3,4.2 21.3,6.1 C22.2,8 22.7,10.2 22.7,12.6 L22.7,13.8 L22.7,13.8 Z M16.4,12.8 C16.4,10.3 16,8.3 15.1,7 C14.3,5.7 13,5 11.5,5 C8.4,5 6.8,7.3 6.6,11.9 L6.6,13.8 C6.6,16.3 7,18.2 7.8,19.6 C8.6,20.9 9.9,21.6 11.5,21.6 C13.1,21.6 14.3,20.9 15.1,19.6 C15.9,18.3 16.4,16.4 16.4,13.9 L16.4,12.8 L16.4,12.8 Z" id="XMLID_59_"></path>
                </g>
                <g id="XMLID_43_" transform="translate(161.000000, 13.000000)" fill="#3C97D3">
                    <path d="M20.8,0.5 L20.8,17.2 C20.8,19.1 20.4,20.7 19.6,22.1 C18.8,23.5 17.6,24.5 16.1,25.3 C14.6,26 12.8,26.4 10.8,26.4 C7.7,26.4 5.2,25.6 3.5,24 C1.7,22.4 0.8,20.2 0.8,17.4 L0.8,0.5 L7,0.5 L7,17.5 C7.1,20.3 8.4,21.7 10.9,21.7 C12.2,21.7 13.1,21.3 13.8,20.6 C14.5,19.9 14.8,18.8 14.8,17.2 L14.8,0.5 L20.8,0.5 L20.8,0.5 Z" id="XMLID_44_"></path>
                </g>
                <path d="M112.5,21.4 C116.4,25.3 116.4,31.6 112.5,35.4 L95,52.9 C91.1,56.8 84.8,56.8 81,52.9 L63.5,35.4 C59.6,31.5 59.6,25.2 63.5,21.4 L81,3.9 C84.8,1.33226763e-15 91.1,1.33226763e-15 95,3.9 L112.5,21.4 L112.5,21.4 Z" id="XMLID_35_" fill="#3C97D3"></path>
                <path d="M112.5,21.4 L95,3.9 C93.1,2 90.6,1 88.1,1 L88.1,13 L95,19.7 L88.1,29.5 L84.4,35.4 L88.1,41 L88.1,49 L88.1,49 C88.1,57.1 81,52.8 81,52.8 C83.7,55.5 87.5,56.3 90.9,55.3 L90.9,55.3 C91.2,55.2 91.5,55.1 91.8,55 L91.9,55 C92.2,54.9 92.4,54.8 92.7,54.6 C92.8,54.6 92.8,54.5 92.9,54.5 C93.1,54.4 93.3,54.3 93.5,54.1 C93.6,54 93.7,53.9 93.9,53.8 C94,53.7 94.2,53.6 94.3,53.5 C94.6,53.3 94.8,53.1 95,52.8 L112.5,35.3 C116.3,31.5 116.3,25.2 112.5,21.4 L112.5,21.4 Z" id="Shape" fill="#2D7DB4"></path>
                <path d="M87.9,7.7 C87.9,-0.4 95,3.9 95,3.9 C91.1,-5.55111512e-16 84.8,-5.55111512e-16 81,3.9 L63.1,21.8 L87.9,7.7 L87.9,7.7 Z" id="Shape" fill="#3C97D3"></path>
                <g id="XMLID_32_" transform="translate(76.000000, 8.000000)" fill="#2D7DB4">
                    <path d="M1.2,32.4 L1.2,29.6 L9.1,19.3 C11.6,16.5 12.8,14.3 12.8,12.6 C12.8,11.3 12.6,10.1 11.9,9.5 C11.3,9 8.7,9 7.7,13.2 L0.5,13.2 L0.5,11.2 C0.5,9.3 1,7.5 1.9,5.9 C2.8,4.3 4.2,3 5.9,2.1 C7.6,1.2 9.5,0.7 11.6,0.7 C15,0.7 17.6,1.5 19.4,3 C21.2,4.6 22.1,6.8 22.1,9.7 C22.1,10.9 21.9,12.1 21.4,13.3 C20.9,14.5 20.2,15.7 19.3,17 C18.3,18.3 16.8,20 14.6,22.1 L10.6,26.7" id="XMLID_33_"></path>
                </g>
                <g id="XMLID_28_" transform="translate(78.000000, 13.000000)" fill="#3C97D3">
                    <path d="M21,29.3 L0.3,32 L0.3,25.7 L10.3,15.2 C12.8,12.4 14,10.2 14,8.5 C14,7.2 16.7,-0.4 18.5,1.2 C20.3,2.8 21.2,5 21.2,7.9 C21.2,9.1 21,10.3 20.5,11.5 C20,12.7 19.3,13.9 18.4,15.2 C17.4,16.5 15.9,18.2 13.7,20.3 L9.7,24.9 L21,23.8 L21,29.3 L21,29.3 Z" id="XMLID_29_"></path>
                </g>
                <g id="XMLID_21_" transform="translate(76.000000, 10.000000)" fill="#FFFFFF">
                    <path d="M23,32.3 L1.2,32.3 L1.2,27.6 L11.2,17.1 C13.7,14.3 14.9,12.1 14.9,10.4 C14.9,9.1 14.6,8 14,7.3 C13.4,6.6 12.6,6.3 11.5,6.3 C10.4,6.3 9.5,6.8 8.8,7.7 C8.1,8.6 7.8,9.8 7.8,11.2 L0.6,11.2 C0.6,9.3 1.1,7.5 2,5.9 C2.9,4.3 4.3,3 6,2.1 C7.7,1.2 9.6,0.7 11.7,0.7 C15.1,0.7 17.7,1.5 19.5,3 C21.3,4.6 22.2,6.8 22.2,9.7 C22.2,10.9 22,12.1 21.5,13.3 C21,14.5 20.3,15.7 19.4,17 C18.4,18.3 16.9,20 14.7,22.1 L10.7,26.7 L23,26.7 L23,32.3 L23,32.3 Z" id="XMLID_22_"></path>
                </g>
                <g id="XMLID_25_" transform="translate(40.000000, 13.000000)" fill="#3C97D3">
                    <path d="M11.4,11.6 L16.1,0.5 L22.7,0.5 L14.5,16.9 L14.5,26.1 L8.3,26.1 L8.3,16.9 L0.1,0.5 L6.7,0.5 L11.4,11.6 L11.4,11.6 Z" id="XMLID_26_"></path>
                </g>
            </g>
        </g>
    </g>
</svg>