<?xml version="1.0" encoding="utf-8"?>
<!-- Generator: Adobe Illustrator 19.0.0, SVG Export Plug-In . SVG Version: 6.00 Build 0)  -->
<svg version="1.1" id="Слой_1" xmlns="http://www.w3.org/2000/svg" xmlns:xlink="http://www.w3.org/1999/xlink" x="0px" y="0px"
	 viewBox="0 0 65.3 31" style="enable-background:new 0 0 65.3 31;" xml:space="preserve">
<style type="text/css">
	.st0{fill:#BD3426;}
	.st1{fill:#EF4028;}
	.st2{fill:#FFFFFF;}
</style>
<g>
	<g>
		
			<image style="overflow:visible;opacity:0.2;" width="272" height="126" id="XMLID_60_" xlink:href="8D8D2B798425305F.png"  transform="matrix(0.24 0 0 0.24 0 0.7982)">
		</image>
		<g id="XMLID_58_">
			<g id="XMLID_59_">
				<polygon class="st0" points="53.9,23.4 2.4,23.4 2.4,3 54.8,3 57.9,6.3 52.2,15.2 				"/>
			</g>
		</g>
	</g>
	<g>
		<polygon class="st1" points="53,23 2.4,23 2.4,3 54.8,3 50.4,14.8 		"/>
	</g>
	<g id="XMLID_9_">
		<path id="XMLID_11_" class="st2" d="M11.5,15.2H8.7L8.1,17H6.4l2.9-8.5H11l2.9,8.5h-1.8L11.5,15.2z M9.1,13.9h1.9l-0.9-3h0
			L9.1,13.9z"/>
		<path id="XMLID_57_" class="st2" d="M17.1,13.5h-0.7V17h-1.7V8.5h1.7V12H17l2.2-3.5h2.1l-2.8,4l3,4.6h-2.2L17.1,13.5z"/>
		<path id="XMLID_62_" class="st2" d="M22.2,8.5h1.7v7.2h3.5V8.5h1.7v7.3h1.4V19h-1.7V17h-6.6V8.5z"/>
		<path id="XMLID_64_" class="st2" d="M36.6,8.5h1.7V17h-1.7v-5.7l0,0L33.1,17h-1.7V8.5h1.7v5.7l0,0L36.6,8.5z"/>
		<path id="XMLID_66_" class="st2" d="M40.7,17h-1.9l1.8-3.8c-0.4-0.2-0.8-0.5-1-0.9s-0.3-0.8-0.3-1.3c0-0.8,0.3-1.4,0.8-1.9
			s1.3-0.7,2.3-0.7h3V17h-1.7v-3.3h-1.4L40.7,17z M43.7,9.8h-1.2c-0.5,0-0.8,0.1-1.1,0.3s-0.4,0.5-0.4,1s0.1,0.7,0.4,1
			s0.6,0.4,1.1,0.4h1.2V9.8z"/>
	</g>
	<g>
		<rect x="1.4" class="st1" width="1" height="28"/>
	</g>
</g>
</svg>
