<svg id="Слой_1" data-name="Слой 1" xmlns="http://www.w3.org/2000/svg" width="67.88" height="55.73" viewBox="0 0 67.88 55.73">
  <title>terminal-img-3</title>
  <circle cx="56.88" cy="11" r="11" fill="#7bc144"/>
  <text transform="translate(50.38 16.16)" font-size="14" fill="#fff" font-family="FontAwesome"></text>
  <polygon points="38.5 55.23 0.5 55.23 0.5 17.23 4.41 19.23 8 17.23 11.21 19.23 14.34 17.23 17.65 19.23 20.96 17.23 24.64 19.23 28 17.23 31 19.23 34.56 17.23 38.5 19.23 38.5 55.23" fill="none" stroke="#f8994b" stroke-miterlimit="10"/>
  <polyline points="25.5 55.73 25.5 37.23 13.5 37.23 13.5 55.73" fill="none" stroke="#f8994b" stroke-miterlimit="10"/>
  <polyline points="23.5 55.73 23.5 39.23 15.5 39.23 15.5 55.73" fill="none" stroke="#f8994b" stroke-miterlimit="10"/>
  <rect x="16.5" y="24.23" width="6" height="9" fill="none" stroke="#f8994b" stroke-miterlimit="10"/>
  <line x1="19.5" y1="23.73" x2="19.5" y2="33.73" fill="none" stroke="#f8994b" stroke-miterlimit="10"/>
  <line x1="16" y1="28.23" x2="22" y2="28.23" fill="none" stroke="#f8994b" stroke-miterlimit="10"/>
  <rect x="28.5" y="24.23" width="6" height="9" fill="none" stroke="#f8994b" stroke-miterlimit="10"/>
  <line x1="31.5" y1="23.73" x2="31.5" y2="33.73" fill="none" stroke="#f8994b" stroke-miterlimit="10"/>
  <line x1="28" y1="28.23" x2="34" y2="28.23" fill="none" stroke="#f8994b" stroke-miterlimit="10"/>
  <line x1="35" y1="42.23" x2="26" y2="42.23" fill="none" stroke="#f8994b" stroke-miterlimit="10"/>
  <line x1="38" y1="44.23" x2="25" y2="44.23" fill="none" stroke="#f8994b" stroke-miterlimit="10"/>
  <line x1="23" y1="46.23" x2="21" y2="46.23" fill="none" stroke="#f8994b" stroke-miterlimit="10"/>
  <line x1="36" y1="47.23" x2="34" y2="47.23" fill="none" stroke="#f8994b" stroke-miterlimit="10"/>
  <line x1="38" y1="50.23" x2="36" y2="50.23" fill="none" stroke="#f8994b" stroke-miterlimit="10"/>
  <line x1="28" y1="50.23" x2="26" y2="50.23" fill="none" stroke="#f8994b" stroke-miterlimit="10"/>
  <line x1="33" y1="50.23" x2="31" y2="50.23" fill="none" stroke="#f8994b" stroke-miterlimit="10"/>
  <line x1="33" y1="53.23" x2="31" y2="53.23" fill="none" stroke="#f8994b" stroke-miterlimit="10"/>
  <line x1="32" y1="47.23" x2="30" y2="47.23" fill="none" stroke="#f8994b" stroke-miterlimit="10"/>
</svg>
