<svg id="Слой_1" data-name="Слой 1" xmlns="http://www.w3.org/2000/svg" width="75.07" height="55.73" viewBox="0 0 75.07 55.73">
  <title>terminal-img-5</title>
  <circle cx="64.07" cy="11" r="11" fill="#7bc144"/>
  <text transform="translate(57.57 16.16)" font-size="14" fill="#fff" font-family="FontAwesome"></text>
  <g>
    <path d="M11.12,27.23a1,1,0,0,1-.41-1.91l18.23-8.18,18.23,8.18a1,1,0,0,1-.41,1.91" fill="none" stroke="#f8994b" stroke-linecap="round" stroke-linejoin="round"/>
    <polyline points="6.7 42.73 6.7 55.23 51.7 55.23 51.7 46.73" fill="none" stroke="#f8994b" stroke-linecap="round" stroke-linejoin="round"/>
    <line x1="13.7" y1="24.73" x2="13.7" y2="54.73" fill="none" stroke="#f8994b" stroke-linecap="round" stroke-linejoin="round"/>
    <line x1="43.7" y1="54.73" x2="43.7" y2="24.73" fill="none" stroke="#f8994b" stroke-linecap="round" stroke-linejoin="round"/>
    <path d="M11.23,37.87a2.69,2.69,0,0,0-2.15-2.64,2.68,2.68,0,1,0-5.3-.81,4.47,4.47,0,0,0,.33,8.69,2.56,2.56,0,1,0,5,0,2.62,2.62,0,0,0,.86-3A2.68,2.68,0,0,0,11.23,37.87Z" fill="none" stroke="#f8994b" stroke-linecap="round" stroke-linejoin="round"/>
    <path d="M55.72,43.7a3.24,3.24,0,0,0-1.78-2.88,3.24,3.24,0,1,0-5.61,3.23,3.25,3.25,0,1,0,5.92,2.36A3.25,3.25,0,0,0,55.72,43.7Z" fill="none" stroke="#f8994b" stroke-linecap="round" stroke-linejoin="round"/>
    <polyline points="39.7 55.73 39.7 39.23 31.7 39.23 31.7 55.73" fill="none" stroke="#f8994b" stroke-miterlimit="10"/>
    <line x1="39.2" y1="46.23" x2="37.2" y2="46.23" fill="none" stroke="#f8994b" stroke-miterlimit="10"/>
    <line x1="18.2" y1="53.23" x2="26.2" y2="53.23" fill="none" stroke="#f8994b" stroke-linecap="round" stroke-linejoin="round"/>
    <line x1="14.2" y1="30.23" x2="43.2" y2="30.23" fill="none" stroke="#f8994b" stroke-linecap="round" stroke-linejoin="round"/>
    <line x1="14.2" y1="28.23" x2="43.2" y2="28.23" fill="none" stroke="#f8994b" stroke-linecap="round" stroke-linejoin="round"/>
    <line x1="14.2" y1="26.23" x2="43.2" y2="26.23" fill="none" stroke="#f8994b" stroke-linecap="round" stroke-linejoin="round"/>
    <line x1="14.2" y1="24.23" x2="43.2" y2="24.23" fill="none" stroke="#f8994b" stroke-linecap="round" stroke-linejoin="round"/>
    <line x1="18.2" y1="22.23" x2="40.2" y2="22.23" fill="none" stroke="#f8994b" stroke-linecap="round" stroke-linejoin="round"/>
    <line x1="22.2" y1="20.23" x2="35.2" y2="20.23" fill="none" stroke="#f8994b" stroke-linecap="round" stroke-linejoin="round"/>
    <line x1="27.2" y1="18.23" x2="31.2" y2="18.23" fill="none" stroke="#f8994b" stroke-linecap="round" stroke-linejoin="round"/>
    <line x1="19.7" y1="53.73" x2="19.7" y2="54.73" fill="none" stroke="#f8994b" stroke-linecap="round" stroke-linejoin="round"/>
    <line x1="24.7" y1="53.73" x2="24.7" y2="54.73" fill="none" stroke="#f8994b" stroke-linecap="round" stroke-linejoin="round"/>
    <path d="M19.7,49.23V39.29a3,3,0,0,1,3.1-3.06H22.63a3,3,0,0,1,3.06,3.06v9.94h-6Z" fill="none" stroke="#f8994b" stroke-linecap="round" stroke-linejoin="round"/>
    <line x1="22.7" y1="36.73" x2="22.7" y2="48.73" fill="none" stroke="#f8994b" stroke-linecap="round" stroke-linejoin="round"/>
    <line x1="20.2" y1="42.23" x2="25.2" y2="42.23" fill="none" stroke="#f8994b" stroke-linecap="round" stroke-linejoin="round"/>
    <circle cx="28.81" cy="24.03" r="4" fill="#fff" stroke="#f8994b" stroke-linecap="round" stroke-linejoin="round"/>
  </g>
</svg>
