<svg id="Слой_1" data-name="Слой 1" xmlns="http://www.w3.org/2000/svg" width="62.88" height="55.73" viewBox="0 0 62.88 55.73">
  <title>terminal-icon-2</title>
  <circle cx="51.88" cy="11" r="11" fill="#7bc144"/>
  <path d="M58.43,8.58a0.72,0.72,0,0,1-.22.53l-5.66,5.66-1.06,1.06a0.75,0.75,0,0,1-1.06,0l-1.06-1.06-2.83-2.83a0.75,0.75,0,0,1,0-1.06L47.6,9.81a0.75,0.75,0,0,1,1.06,0l2.3,2.3L56.09,7a0.75,0.75,0,0,1,1.06,0L58.21,8A0.72,0.72,0,0,1,58.43,8.58Z" fill="#fff"/>
  <g>
    <path d="M11,55.73H2V42.58c-0.73-.19-2-0.85-2-3.12V30a2.92,2.92,0,0,1,2.71-3.26L8,27.17v15c0,2.18,2.4,2.57,2.5,2.57H11v11Zm-8-1h7V45.33a3.15,3.15,0,0,1-3-3.17V28.09l-4.32-.37C2.56,27.74,1,27.86,1,30v9.47c0,2.11,1.35,2.2,1.51,2.2H3V54.73Z" fill="#f8994b"/>
    <path d="M8.13,25.43a4.57,4.57,0,1,1,2.46-.73l-0.13.07-0.12.07A4.54,4.54,0,0,1,8.13,25.43Zm0-8.12a3.56,3.56,0,1,0,0,7.12A3.52,3.52,0,0,0,9.82,24L10,23.88A3.55,3.55,0,0,0,8.13,17.32Z" fill="#f8994b"/>
    <path d="M36,55.73H27V44.37h0.5c0.26,0,2.5-.08,2.5-2.21v-15l5.19-.45a2.71,2.71,0,0,1,2.16.86A3.39,3.39,0,0,1,38,30.06v9.4c0,2.27-1.27,2.93-2,3.12V55.73Zm-8-1h7v-13h0.5c0.15,0,1.5-.16,1.5-2.27V30a2.48,2.48,0,0,0-.42-1.75,1.76,1.76,0,0,0-1.38-.51L31,28.09V42.16a3.15,3.15,0,0,1-3,3.17v9.39Z" fill="#f8994b"/>
    <path d="M29.78,25.43a4.52,4.52,0,0,1-2.17-.57l-0.19-.11-0.11-.06A4.54,4.54,0,1,1,29.78,25.43Zm-1.89-1.56L28.11,24a3.51,3.51,0,0,0,1.67.44,3.59,3.59,0,1,0-1.92-.58l-0.27.42Z" fill="#f8994b"/>
    <path d="M19,25.43a4.56,4.56,0,1,1,4.56-4.56A4.56,4.56,0,0,1,19,25.43Zm0-8.12a3.56,3.56,0,1,0,3.56,3.55A3.56,3.56,0,0,0,19,17.32Z" fill="#f8994b"/>
    <path d="M25,55.73H13V42.63a3.15,3.15,0,0,1-3-3.17V30a3.36,3.36,0,0,1,3.53-3.26H24.36A3.69,3.69,0,0,1,28,29.91v9.55a3.15,3.15,0,0,1-3,3.17v13.1Zm-11-1H24V41.66h0.5c0.26,0,2.5-.08,2.5-2.2V30a2.72,2.72,0,0,0-2.64-2.3H13.54c-0.25,0-2.54.13-2.54,2.26v9.47c0,2.12,2.25,2.2,2.5,2.2H14V54.73Z" fill="#f8994b"/>
  </g>
</svg>
