<svg id="Слой_1" data-name="Слой 1" xmlns="http://www.w3.org/2000/svg" width="64.38" height="55.73" viewBox="0 0 64.38 55.73">
  <title>terminal-icon-6</title>
  <circle cx="53.38" cy="11" r="11" fill="#7bc144"/>
  <path d="M59.93,8.58a0.72,0.72,0,0,1-.22.53l-5.66,5.66L53,15.83a0.75,0.75,0,0,1-1.06,0l-1.06-1.06L48,11.94a0.75,0.75,0,0,1,0-1.06L49.1,9.81a0.75,0.75,0,0,1,1.06,0l2.3,2.3L57.59,7a0.75,0.75,0,0,1,1.06,0L59.71,8A0.72,0.72,0,0,1,59.93,8.58Z" fill="#fff"/>
  <g>
    <path d="M5.13,45.78H5a2.65,2.65,0,1,1,2.11-4.42,2.59,2.59,0,0,1,.68,1.9h0a2.68,2.68,0,0,1-.89,1.87A2.59,2.59,0,0,1,5.13,45.78Zm0-4.3A1.65,1.65,0,0,0,5,44.78a1.32,1.32,0,0,0,1-.41A1.48,1.48,0,0,0,6.5,43.2h0A1.61,1.61,0,0,0,6.21,42a1.51,1.51,0,0,0-1.1-.54S5.13,41.48,5.11,41.48Z" fill="#f8994b"/>
    <path d="M18.44,52.49A3.49,3.49,0,0,1,16.66,52c-2.41-1.39-4.85-2.78-7.28-4.14h0a2.47,2.47,0,0,1-.22-4.37,2.12,2.12,0,0,1,2.16,0c1.45,0.77,4.75,2.64,6.84,3.88a2.45,2.45,0,0,0,1.24.39,46,46,0,0,0,4.78-1.89A4.35,4.35,0,0,1,28,45.65c1.62,0.66,3.29,1.29,4.91,1.89l2.21,0.83,0.15,0.05a2.65,2.65,0,0,1,.61.29,1.69,1.69,0,0,1,.6,1.93A1.54,1.54,0,0,1,35,51.73a3.26,3.26,0,0,1-1.24-.23l-2.14-.83c-1.25-.48-2.55-1-3.82-1.51a2.88,2.88,0,0,0-2.73.13l-1.53.84c-1.12.61-2.24,1.23-3.35,1.86A3.49,3.49,0,0,1,18.44,52.49Zm-8.18-8.37a1.12,1.12,0,0,0-.58.17,1.47,1.47,0,0,0,.19,2.65h0c2.44,1.37,4.88,2.75,7.3,4.15a2.24,2.24,0,0,0,2.53,0c1.11-.64,2.23-1.26,3.36-1.87l1.52-.84a3.89,3.89,0,0,1,3.6-.18c1.25,0.53,2.54,1,3.78,1.5l2.15,0.83a2.19,2.19,0,0,0,.81.16,0.56,0.56,0,0,0,.62-0.38,0.7,0.7,0,0,0-.22-0.8,1.85,1.85,0,0,0-.39-0.17l-0.16-.06-2.2-.83c-1.63-.61-3.31-1.23-4.94-1.91a3.33,3.33,0,0,0-3,.12,36.55,36.55,0,0,1-5.2,2,3.41,3.41,0,0,1-1.75-.53c-2.08-1.24-5.37-3.09-6.8-3.86A1.24,1.24,0,0,0,10.26,44.13Z" fill="#f8994b"/>
    <path d="M38.39,55.26a0.49,0.49,0,0,1-.19,0L26.73,50.57,18,55.2a0.5,0.5,0,0,1-.47,0L0.26,45.72a0.5,0.5,0,0,1,.48-0.88l17,9.34,8.74-4.61a0.49,0.49,0,0,1,.42,0l11.68,4.74A0.5,0.5,0,0,1,38.39,55.26Z" fill="#f8994b"/>
    <path d="M2.72,55.26a0.5,0.5,0,0,1-.41-0.78l4.05-6a0.5,0.5,0,1,1,.83.56L3.14,55A0.5,0.5,0,0,1,2.72,55.26Z" fill="#f8994b"/>
    <path d="M40.5,55.73H0.5a0.5,0.5,0,0,1,0-1h40A0.5,0.5,0,0,1,40.5,55.73Z" fill="#f8994b"/>
    <path d="M22,47.23a0.5,0.5,0,0,1-.5-0.5v-21a0.5,0.5,0,0,1,1,0v21A0.5,0.5,0,0,1,22,47.23Z" fill="#f8994b"/>
    <path d="M22.3,33.75l-0.25-.11c-0.59-.27-1.07-0.55-1.49-0.79a3.63,3.63,0,0,0-1.49-.63,3.83,3.83,0,0,0-2.42,1.09,1.25,1.25,0,0,1-.87.37,1.14,1.14,0,0,1-.89-0.36,2.88,2.88,0,0,0-2.07-.94,4.62,4.62,0,0,0-2.6,1,1.23,1.23,0,0,1-1.31.18,1.24,1.24,0,0,1-.71-1.12,14.06,14.06,0,1,1,28.12,0,1.23,1.23,0,0,1-.72,1.12,1.25,1.25,0,0,1-1.31-.18,4.63,4.63,0,0,0-2.6-1,2.91,2.91,0,0,0-2.08.94,1.23,1.23,0,0,1-.91.36,1.24,1.24,0,0,1-.85-0.37,4,4,0,0,0-2.48-1.09,9.82,9.82,0,0,0-2.86,1.39Zm-9.48-2.37a3.84,3.84,0,0,1,2.78,1.23,0.28,0.28,0,0,0,.12.07,0.29,0.29,0,0,0,.22-0.08,4.81,4.81,0,0,1,3.13-1.39,4.15,4.15,0,0,1,2,.76c0.34,0.2.73,0.42,1.17,0.63a9.13,9.13,0,0,1,3.16-1.4,5,5,0,0,1,3.18,1.38,0.28,0.28,0,0,0,.19.08,0.22,0.22,0,0,0,.15-0.07,3.87,3.87,0,0,1,2.78-1.24A5.65,5.65,0,0,1,35,32.65a0.33,0.33,0,0,0,.12,0,0.26,0.26,0,0,0,.23-0.23,13.06,13.06,0,1,0-26.12,0,0.24,0.24,0,0,0,.14.21,0.23,0.23,0,0,0,.24,0A5.58,5.58,0,0,1,12.82,31.38Z" fill="#f8994b"/>
  </g>
  <path d="M29.5,43.73h-12a0.5,0.5,0,0,1,0-1h12A0.5,0.5,0,0,1,29.5,43.73Z" fill="#f8994b"/>
  <path d="M27.43,43.73H25.35a0.5,0.5,0,0,1-.49-0.42l-0.65-4a0.5,0.5,0,0,1,.49-0.58h3.37a0.5,0.5,0,0,1,.49.58l-0.64,4A0.5,0.5,0,0,1,27.43,43.73Zm-1.65-1H27l0.48-3h-2.2Z" fill="#f8994b"/>
  <path d="M26.9,38.95H26.83a0.5,0.5,0,0,1-.43-0.56l0.31-2.22a0.5,0.5,0,1,1,1,.14L27.4,38.52A0.5,0.5,0,0,1,26.9,38.95Z" fill="#f8994b"/>
</svg>
