<svg id="Слой_1" data-name="Слой 1" xmlns="http://www.w3.org/2000/svg" width="64.38" height="55.73" viewBox="0 0 64.38 55.73">
  <title>terminal-img-6</title>
  <circle cx="53.38" cy="11" r="11" fill="#7bc144"/>
  <text transform="translate(46.88 16.16)" font-size="14" fill="#fff" font-family="FontAwesome"></text>
  <g>
    <path d="M7.26,43.22A2.13,2.13,0,1,0,5,45.28a2.14,2.14,0,0,0,2.26-2.06h0Zm0,0" fill="none" stroke="#f8994b" stroke-linecap="round" stroke-linejoin="round"/>
    <path d="M9.63,47.38c2.44,1.36,4.87,2.75,7.29,4.14a2.77,2.77,0,0,0,3,0c1.61-.93,3.25-1.81,4.88-2.71a3.55,3.55,0,0,1,1.72-.47A3.63,3.63,0,0,1,28,48.7c2,0.83,4,1.55,5.95,2.33a2.69,2.69,0,0,0,1,.2H35a1,1,0,0,0,1-.73,1.2,1.2,0,0,0-.41-1.37A3.14,3.14,0,0,0,35,48.85c-2.38-.91-4.78-1.76-7.14-2.73a4.06,4.06,0,0,0-1.59-.33,4.17,4.17,0,0,0-1.83.46,39,39,0,0,1-5,1.93,2.93,2.93,0,0,1-1.49-.46c-2-1.22-5.33-3.07-6.82-3.87a1.85,1.85,0,0,0-2.65,1.68,2.06,2.06,0,0,0,1.18,1.86h0Zm0,0" fill="none" stroke="#f8994b" stroke-linecap="round" stroke-linejoin="round"/>
    <polyline points="0.5 45.28 17.72 54.76 26.7 50.02 38.39 54.76" fill="none" stroke="#f8994b" stroke-linecap="round" stroke-linejoin="round"/>
    <line x1="6.77" y1="48.73" x2="2.72" y2="54.76" fill="none" stroke="#f8994b" stroke-linecap="round" stroke-linejoin="round"/>
    <line x1="0.5" y1="55.23" x2="40.5" y2="55.23" fill="none" stroke="#f8994b" stroke-linecap="round" stroke-linejoin="round"/>
    <line x1="22" y1="46.73" x2="22" y2="25.73" fill="none" stroke="#f8994b" stroke-linecap="round" stroke-linejoin="round"/>
    <path d="M25.39,31.72A4.53,4.53,0,0,1,28.22,33a0.76,0.76,0,0,0,.52.22A0.71,0.71,0,0,0,29.27,33a3.39,3.39,0,0,1,2.43-1.09A5.11,5.11,0,0,1,34.61,33a0.75,0.75,0,0,0,.48.17,0.74,0.74,0,0,0,.3-0.07,0.73,0.73,0,0,0,.43-0.66A13.57,13.57,0,0,0,22.26,18.89h0A13.58,13.58,0,0,0,8.7,32.45,0.73,0.73,0,0,0,9.91,33a5.17,5.17,0,0,1,2.92-1.13A3.37,3.37,0,0,1,15.25,33a0.67,0.67,0,0,0,.52.22A0.75,0.75,0,0,0,16.29,33a4.35,4.35,0,0,1,2.78-1.24c0.84,0,1.68.77,3.19,1.47C22.26,33.19,24.55,31.72,25.39,31.72Z" fill="none" stroke="#f8994b" stroke-miterlimit="10"/>
  </g>
  <line x1="17.5" y1="43.23" x2="29.5" y2="43.23" fill="none" stroke="#f8994b" stroke-linecap="round" stroke-linejoin="round"/>
  <polygon points="24.7 39.23 25.35 43.23 27.43 43.23 28.07 39.23 24.7 39.23" fill="none" stroke="#f8994b" stroke-linecap="round" stroke-linejoin="round"/>
  <line x1="27.21" y1="36.23" x2="26.9" y2="38.45" fill="none" stroke="#f8994b" stroke-linecap="round" stroke-linejoin="round"/>
</svg>
