<svg id="Слой_1" data-name="Слой 1" xmlns="http://www.w3.org/2000/svg" width="75.26" height="55.73" viewBox="0 0 75.26 55.73">
  <title>terminal-icon-5</title>
  <circle cx="64.26" cy="11" r="11" fill="#7bc144"/>
  <path d="M70.81,8.58a0.72,0.72,0,0,1-.22.53l-5.66,5.66-1.06,1.06a0.75,0.75,0,0,1-1.06,0l-1.06-1.06-2.83-2.83a0.75,0.75,0,0,1,0-1.06L60,9.81a0.75,0.75,0,0,1,1.06,0l2.3,2.3L68.47,7a0.75,0.75,0,0,1,1.06,0L70.59,8A0.72,0.72,0,0,1,70.81,8.58Z" fill="#fff"/>
  <g>
    <path d="M47,27.73a0.5,0.5,0,0,1,0-1,0.5,0.5,0,0,0,.21-1l-18-8.08-18,8.08a0.5,0.5,0,0,0,.2,1,0.5,0.5,0,0,1,0,1,1.5,1.5,0,0,1-.61-2.87l18.23-8.18a0.5,0.5,0,0,1,.41,0l18.23,8.18A1.5,1.5,0,0,1,47,27.73Z" fill="#f8994b"/>
    <path d="M51.88,55.73h-45a0.5,0.5,0,0,1-.5-0.5V42.73a0.5,0.5,0,0,1,1,0v12h44v-8a0.5,0.5,0,0,1,1,0v8.5A0.5,0.5,0,0,1,51.88,55.73Z" fill="#f8994b"/>
    <path d="M13.88,55.23a0.5,0.5,0,0,1-.5-0.5v-30a0.5,0.5,0,0,1,1,0v30A0.5,0.5,0,0,1,13.88,55.23Z" fill="#f8994b"/>
    <path d="M43.88,55.23a0.5,0.5,0,0,1-.5-0.5v-30a0.5,0.5,0,0,1,1,0v30A0.5,0.5,0,0,1,43.88,55.23Z" fill="#f8994b"/>
    <path d="M6.63,46.57a3.23,3.23,0,0,1-3.25-3.06v0A5,5,0,0,1,0,38.71,5.08,5.08,0,0,1,3.43,34a3.22,3.22,0,0,1,6.36.69s0,0.1,0,.15a3.21,3.21,0,0,1,2.11,3,3.18,3.18,0,0,1-1.13,2.44,3,3,0,0,1,.09.71,3.16,3.16,0,0,1-1,2.3c0,0.07-.08.13-0.08,0.2A3.15,3.15,0,0,1,6.63,46.57Zm0-14a2.18,2.18,0,0,0-2.16,1.94,0.5,0.5,0,0,1-.36.42,4,4,0,0,0,.29,7.72,0.5,0.5,0,0,1,.4.57,2.06,2.06,0,1,0,4.09.32,2.08,2.08,0,0,0,0-.32A0.5,0.5,0,0,1,9,42.72a2.12,2.12,0,0,0,.7-2.43,0.5,0.5,0,0,1,.2-0.59,2.19,2.19,0,0,0-.76-4,0.5,0.5,0,0,1-.39-0.58A2.18,2.18,0,0,0,6.63,32.53Z" fill="#f8994b"/>
    <path d="M51.25,49.56a3.75,3.75,0,0,1-3.31-5.51,3.72,3.72,0,0,1-.44-1.75,3.74,3.74,0,0,1,7-1.85,3.74,3.74,0,0,1,.39,6.26A3.75,3.75,0,0,1,51.25,49.56Zm0-10a2.74,2.74,0,0,0-2.31,4.24,0.5,0.5,0,0,1,0,.54,2.75,2.75,0,1,0,5,2A0.5,0.5,0,0,1,54.16,46a2.74,2.74,0,0,0-.26-4.74A0.5,0.5,0,0,1,53.68,41,2.74,2.74,0,0,0,51.25,39.54Z" fill="#f8994b"/>
    <polygon points="40.38 55.73 39.38 55.73 39.38 39.73 32.38 39.73 32.38 55.73 31.38 55.73 31.38 38.73 40.38 38.73 40.38 55.73" fill="#f8994b"/>
    <rect x="37.38" y="45.73" width="2" height="1" fill="#f8994b"/>
    <path d="M26.38,53.73h-8a0.5,0.5,0,0,1,0-1h8A0.5,0.5,0,0,1,26.38,53.73Z" fill="#f8994b"/>
    <path d="M43.38,30.73h-29a0.5,0.5,0,0,1,0-1h29A0.5,0.5,0,0,1,43.38,30.73Z" fill="#f8994b"/>
    <path d="M43.38,28.73h-29a0.5,0.5,0,0,1,0-1h29A0.5,0.5,0,0,1,43.38,28.73Z" fill="#f8994b"/>
    <path d="M43.38,26.73h-29a0.5,0.5,0,0,1,0-1h29A0.5,0.5,0,0,1,43.38,26.73Z" fill="#f8994b"/>
    <path d="M43.38,24.73h-29a0.5,0.5,0,0,1,0-1h29A0.5,0.5,0,0,1,43.38,24.73Z" fill="#f8994b"/>
    <path d="M40.38,22.73h-22a0.5,0.5,0,0,1,0-1h22A0.5,0.5,0,0,1,40.38,22.73Z" fill="#f8994b"/>
    <path d="M35.38,20.73h-13a0.5,0.5,0,0,1,0-1h13A0.5,0.5,0,0,1,35.38,20.73Z" fill="#f8994b"/>
    <path d="M31.38,18.73h-4a0.5,0.5,0,0,1,0-1h4A0.5,0.5,0,0,1,31.38,18.73Z" fill="#f8994b"/>
    <path d="M19.88,55.23a0.5,0.5,0,0,1-.5-0.5v-1a0.5,0.5,0,0,1,1,0v1A0.5,0.5,0,0,1,19.88,55.23Z" fill="#f8994b"/>
    <path d="M24.88,55.23a0.5,0.5,0,0,1-.5-0.5v-1a0.5,0.5,0,0,1,1,0v1A0.5,0.5,0,0,1,24.88,55.23Z" fill="#f8994b"/>
    <path d="M25.88,49.73h-6a0.5,0.5,0,0,1-.5-0.5V39.29a3.45,3.45,0,0,1,3.35-3.55h0.34a3.43,3.43,0,0,1,3.31,3.55v9.94A0.5,0.5,0,0,1,25.88,49.73Zm-5.5-1h5V39.29a2.5,2.5,0,1,0-5,0v9.44Z" fill="#f8994b"/>
    <path d="M22.88,49.23a0.5,0.5,0,0,1-.5-0.5v-12a0.5,0.5,0,0,1,1,0v12A0.5,0.5,0,0,1,22.88,49.23Z" fill="#f8994b"/>
    <path d="M25.38,42.73h-5a0.5,0.5,0,0,1,0-1h5A0.5,0.5,0,0,1,25.38,42.73Z" fill="#f8994b"/>
    <g>
      <circle cx="28.99" cy="24.03" r="4" fill="#fff"/>
      <path d="M29,28.53a4.5,4.5,0,1,1,4.5-4.5A4.5,4.5,0,0,1,29,28.53Zm0-8a3.5,3.5,0,1,0,3.5,3.5A3.5,3.5,0,0,0,29,20.53Z" fill="#f8994b"/>
    </g>
  </g>
</svg>
