<svg id="Слой_1" data-name="Слой 1" xmlns="http://www.w3.org/2000/svg" width="68.38" height="55.73" viewBox="0 0 68.38 55.73">
  <title>terminal-icon-4</title>
  <circle cx="57.38" cy="11" r="11" fill="#7bc144"/>
  <text transform="translate(50.88 16.16)" font-size="14" fill="#fff" font-family="FontAwesome"></text>
  <g>
    <path d="M20.5,55.73A20.5,20.5,0,1,1,41,35.23,20.52,20.52,0,0,1,20.5,55.73Zm0-40A19.5,19.5,0,1,0,40,35.23,19.52,19.52,0,0,0,20.5,15.73Z" fill="#f8994b"/>
    <path d="M20.51,50.75v-2l0.87,0,0.13,2Q21,50.75,20.51,50.75ZM10.25,46.88q-0.38-.34-0.74-0.7l1.42-1.41q0.31,0.31.65,0.61Zm21.19-.65L30,44.81q0.31-.31.61-0.64l1.5,1.32Q31.8,45.87,31.44,46.23ZM5,36.23q0-.5,0-1H7c0,0.34,0,.62,0,0.88Zm29.49-1v0c0-.28-0.25-0.56-0.26-0.84l1.88-.12c0,0.32.21,0.64,0.21,1ZM6,35.21l1-.07v0.07H6Zm4.37-8.9L8.84,25q0.33-.38.69-0.74l1.41,1.42Q10.64,26,10.34,26.31Zm19.75-.6q-0.31-.31-0.64-0.61l1.33-1.5q0.38,0.34.74,0.7Zm-10.48-4-0.13-2q0.5,0,1,0l0.06,2H20.45Z" fill="#f8994b"/>
    <path d="M27.06,42.84a0.5,0.5,0,0,1-.34-0.14L19.66,36a0.5,0.5,0,0,1-.16-0.36V20.73a0.5,0.5,0,0,1,1,0v14.7L27.41,42A0.5,0.5,0,0,1,27.06,42.84Z" fill="#f8994b"/>
  </g>
</svg>
