<svg id="Слой_1" data-name="Слой 1" xmlns="http://www.w3.org/2000/svg" width="71.88" height="58.73" viewBox="0 0 71.88 58.73">
  <title>terminal-icon-1</title>
  <circle cx="60.88" cy="11" r="11" fill="#7bc144"/>
  <path d="M67.43,8.58a0.72,0.72,0,0,1-.22.53l-5.66,5.66-1.06,1.06a0.75,0.75,0,0,1-1.06,0l-1.06-1.06-2.83-2.83a0.75,0.75,0,0,1,0-1.06L56.6,9.81a0.75,0.75,0,0,1,1.06,0l2.3,2.3L65.09,7a0.75,0.75,0,0,1,1.06,0L67.21,8A0.72,0.72,0,0,1,67.43,8.58Z" fill="#fff"/>
  <path d="M43.5,51.73H2.5A2.5,2.5,0,0,1,0,49.23v-25a2.5,2.5,0,0,1,2.5-2.5h41a2.5,2.5,0,0,1,2.5,2.5v25A2.5,2.5,0,0,1,43.5,51.73Zm-41-29A1.5,1.5,0,0,0,1,24.23v25a1.5,1.5,0,0,0,1.5,1.5h41a1.5,1.5,0,0,0,1.5-1.5v-25a1.5,1.5,0,0,0-1.5-1.5H2.5Z" fill="#f8994b"/>
  <path d="M40,48.73H7v-0.5c0-2.32-2.79-2.5-3.5-2.5H3v-18H3.5c1.46,0,3.5-.57,3.5-2.5v-0.5H40v0.5c0,1.66.69,2.5,2.5,2.5H43v18H42.5a2.22,2.22,0,0,0-2.5,2.5v0.5Zm-32.51-1H38.68a3.27,3.27,0,0,1,3.32-3V28.82a3.41,3.41,0,0,1-3.32-3.09H7.5A3.56,3.56,0,0,1,4,28.82V44.75A3.47,3.47,0,0,1,7.49,47.73Z" fill="#f8994b"/>
  <g>
    <rect x="10" y="38.73" width="26" height="20" fill="#fff"/>
    <g>
      <rect x="20" y="54.73" width="6" height="1" fill="#f8994b"/>
      <rect x="20" y="52.73" width="6" height="1" fill="#f8994b"/>
      <rect x="12" y="54.73" width="6" height="1" fill="#f8994b"/>
      <rect x="12" y="52.73" width="6" height="1" fill="#f8994b"/>
      <rect x="20" y="50.73" width="6" height="1" fill="#f8994b"/>
      <rect x="20" y="48.73" width="6" height="1" fill="#f8994b"/>
      <rect x="20" y="46.73" width="6" height="1" fill="#f8994b"/>
      <rect x="28" y="54.73" width="6" height="1" fill="#f8994b"/>
      <rect x="28" y="52.73" width="6" height="1" fill="#f8994b"/>
      <rect x="28" y="50.73" width="6" height="1" fill="#f8994b"/>
      <rect x="28" y="48.73" width="6" height="1" fill="#f8994b"/>
      <rect x="28" y="46.73" width="6" height="1" fill="#f8994b"/>
      <rect x="20" y="44.73" width="6" height="1" fill="#f8994b"/>
      <rect x="20" y="42.73" width="6" height="1" fill="#f8994b"/>
      <rect x="20" y="40.73" width="6" height="1" fill="#f8994b"/>
    </g>
  </g>
  <path d="M16.15,43.18A0.5,0.5,0,0,1,15.76,43a9.14,9.14,0,0,1-2-5.74,9.24,9.24,0,1,1,17.9,3.22,0.5,0.5,0,0,1-.94-0.35,8.24,8.24,0,1,0-14.18,2.25A0.5,0.5,0,0,1,16.15,43.18Z" fill="#f8994b"/>
</svg>
