<svg id="Слой_1" data-name="Слой 1" xmlns="http://www.w3.org/2000/svg" width="67.88" height="55.73" viewBox="0 0 67.88 55.73">
  <title>terminal-icon-</title>
  <circle cx="56.88" cy="11" r="11" fill="#7bc144"/>
  <path d="M63.43,8.58a0.72,0.72,0,0,1-.22.53l-5.66,5.66-1.06,1.06a0.75,0.75,0,0,1-1.06,0l-1.06-1.06-2.83-2.83a0.75,0.75,0,0,1,0-1.06L52.6,9.81a0.75,0.75,0,0,1,1.06,0l2.3,2.3L61.09,7a0.75,0.75,0,0,1,1.06,0L63.21,8A0.72,0.72,0,0,1,63.43,8.58Z" fill="#fff"/>
  <path d="M39,55.73H0V16.41l4.4,2.25,3.62-2,3.2,2,3.12-2,3.32,2,3.3-2,3.68,2,3.39-2,3,2,3.53-2L39,18.92V55.73Zm-38-1H38V19.53l-3.42-1.74-3.6,2-3-2-3.34,2L21,17.8l-3.32,2-3.3-2-3.13,2L8,17.81l-3.57,2L1,18V54.73Z" fill="#f8994b"/>
  <polygon points="26 55.73 25 55.73 25 37.73 14 37.73 14 55.73 13 55.73 13 36.73 26 36.73 26 55.73" fill="#f8994b"/>
  <polygon points="24 55.73 23 55.73 23 39.73 16 39.73 16 55.73 15 55.73 15 38.73 24 38.73 24 55.73" fill="#f8994b"/>
  <path d="M11,33.73H4v-10h7v10Zm-6-1h5v-8H5v8Z" fill="#f8994b"/>
  <rect x="7" y="23.73" width="1" height="10" fill="#f8994b"/>
  <rect x="4" y="27.73" width="6" height="1" fill="#f8994b"/>
  <path d="M23,33.73H16v-10h7v10Zm-6-1h5v-8H17v8Z" fill="#f8994b"/>
  <rect x="19" y="23.73" width="1" height="10" fill="#f8994b"/>
  <rect x="16" y="27.73" width="6" height="1" fill="#f8994b"/>
  <path d="M35,33.73H28v-10h7v10Zm-6-1h5v-8H29v8Z" fill="#f8994b"/>
  <rect x="31" y="23.73" width="1" height="10" fill="#f8994b"/>
  <rect x="28" y="27.73" width="6" height="1" fill="#f8994b"/>
  <rect x="4" y="41.73" width="9" height="1" fill="#f8994b"/>
  <rect x="26" y="41.73" width="9" height="1" fill="#f8994b"/>
  <rect y="43.73" width="9" height="1" fill="#f8994b"/>
  <rect x="11" y="43.73" width="2" height="1" fill="#f8994b"/>
  <rect x="25" y="43.73" width="13" height="1" fill="#f8994b"/>
  <rect x="21" y="45.73" width="2" height="1" fill="#f8994b"/>
  <rect x="9" y="46.73" width="2" height="1" fill="#f8994b"/>
  <rect x="5" y="49.73" width="2" height="1" fill="#f8994b"/>
  <rect x="7" y="52.73" width="2" height="1" fill="#f8994b"/>
  <rect x="10" y="49.73" width="2" height="1" fill="#f8994b"/>
  <rect x="34" y="46.73" width="2" height="1" fill="#f8994b"/>
  <rect x="36" y="49.73" width="2" height="1" fill="#f8994b"/>
  <rect x="26" y="49.73" width="2" height="1" fill="#f8994b"/>
  <rect x="31" y="49.73" width="2" height="1" fill="#f8994b"/>
  <rect x="31" y="52.73" width="2" height="1" fill="#f8994b"/>
  <rect x="30" y="46.73" width="2" height="1" fill="#f8994b"/>
</svg>
