<?xml version="1.0" encoding="utf-8"?>
<!-- Generator: Adobe Illustrator 19.0.0, SVG Export Plug-In . SVG Version: 6.00 Build 0)  -->
<svg version="1.1" id="Слой_1" xmlns="http://www.w3.org/2000/svg" xmlns:xlink="http://www.w3.org/1999/xlink" x="0px" y="0px"
	 viewBox="0 0 87.7 87.5" style="enable-background:new 0 0 87.7 87.5;" xml:space="preserve" width="87.7px" height="87.5">
<style type="text/css">
	.st0{fill:#4FBB7F;}
	.st1{fill:#23B474;}
	.st2{fill:#FFFFFF;}
	.st3{font-family:'FontAwesome';}
	.st4{font-size:41.6639px;}
</style>
<g id="XMLID_2_">
	<g id="XMLID_8_">
		<path id="XMLID_16_" class="st0" d="M82.9,32.6c6.2,6.2,6.2,16.2,0,22.4L54.9,82.9c-6.2,6.2-16.2,6.2-22.4,0L4.6,54.9
			c-6.2-6.2-6.2-16.2,0-22.4L32.6,4.6c6.2-6.2,16.2-6.2,22.4,0L82.9,32.6z"/>
		<path id="XMLID_12_" class="st1" d="M83,32.6L55.1,4.6c-3-3-7-4.6-11-4.6v19.2V64v12.7l0,0c0,13-11.3,6.1-11.3,6.1
			c4.3,4.3,10.4,5.6,15.8,3.9c0,0,0,0,0,0c0.5-0.1,0.9-0.3,1.4-0.5c0.1,0,0.1,0,0.2-0.1c0.4-0.2,0.8-0.4,1.2-0.6
			c0.1-0.1,0.2-0.1,0.4-0.2c0.3-0.2,0.7-0.4,1-0.6c0.2-0.1,0.4-0.3,0.6-0.4c0.2-0.2,0.5-0.3,0.7-0.5c0.4-0.3,0.8-0.7,1.2-1.1
			L83,54.9C89.2,48.8,89.2,38.7,83,32.6z"/>
		<path id="XMLID_9_" class="st0" d="M43.8,10.7c0-13,11.3-6.1,11.3-6.1c-6.2-6.2-16.2-6.2-22.4,0L4.2,33.2L43.8,10.7z"/>
	</g>
	<g id="XMLID_3_">
		
			<image style="overflow:visible;opacity:0.3;" width="199" height="203" id="XMLID_43_" xlink:href="E8356DF8D4E8F9F5.png"  transform="matrix(0.24 0 0 0.24 19.8936 18.5334)">
		</image>
		<g id="XMLID_32_">
			<text id="XMLID_40_" transform="matrix(1 0 0 1 22.8932 57.198)" class="st2 st3 st4"></text>
		</g>
	</g>
</g>
</svg>
