<?xml version="1.0" encoding="utf-8"?>
<!-- Generator: Adobe Illustrator 19.0.0, SVG Export Plug-In . SVG Version: 6.00 Build 0)  -->
<svg version="1.1" id="Слой_1" xmlns="http://www.w3.org/2000/svg" xmlns:xlink="http://www.w3.org/1999/xlink" x="0px" y="0px"
	 viewBox="0 0 71 40.4" style="enable-background:new 0 0 71 40.4;" xml:space="preserve">
<style type="text/css">
	.st0{fill-rule:evenodd;clip-rule:evenodd;fill:#2D7DB3;}
</style>
<g id="logo_x5F_Verified_x5F_by_x5F_Visa_2_">
	<path class="st0" d="M60.8,26.9c-0.1,0.8-0.2,1.5-0.4,2.3c-0.7-0.2-1.4-0.6-2.5-0.5c-0.7,0-1.4,0.3-1.4,0.9c0,0.7,1.1,1,1.7,1.3
		c1.1,0.5,2.2,1.2,2.3,2.6c0.1,1.1-0.4,2-1,2.5c-1.5,1.4-4.9,1.6-7.1,0.7c0.1-0.8,0.3-1.5,0.4-2.3c0.9,0.4,2.1,0.9,3.4,0.7
		c0.6-0.1,1.3-0.4,1.3-1.1c0-0.8-1.4-1.2-2.2-1.6c-0.8-0.5-1.8-1.2-1.8-2.4c0-0.8,0.3-1.5,0.7-2C55.3,26.6,58.3,26.1,60.8,26.9z"/>
	<polygon class="st0" points="33.7,12.1 36.8,12.1 34.9,23.9 31.8,23.9 33.7,12.1 	"/>
	<path class="st0" d="M23.1,12.1h4.7c3,0,3.7,1.7,3.4,3.8c-0.3,1.7-1.5,2.8-3.1,3.2l3,4.8h-3.8l-2.2-4.6l-0.7,4.6h-3L23.1,12.1
		L23.1,12.1z M25.8,14.5l-0.5,3h0.9c0.9,0,1.7-0.7,1.8-1.5l0,0c0.1-0.8-0.5-1.5-1.3-1.5H25.8L25.8,14.5z"/>
	<polygon class="st0" points="47.6,12.1 50.7,12.1 48.8,23.9 45.8,23.9 47.6,12.1 	"/>
	<polygon class="st0" points="53,12.1 59.7,12.1 59.3,14.7 55.6,14.7 55.3,16.7 58.8,16.7 58.4,19.3 54.9,19.3 54.6,21.4 58.2,21.4 
		57.8,23.9 51.1,23.9 53,12.1 	"/>
	<polygon class="st0" points="14.6,12.1 21.3,12.1 20.9,14.7 17.3,14.7 17,16.7 20.4,16.7 20,19.3 16.6,19.3 16.2,21.4 19.9,21.4 
		19.5,23.9 12.8,23.9 14.6,12.1 	"/>
	<polygon class="st0" points="39.1,12.1 45.8,12.1 45.4,14.7 41.7,14.7 41.4,16.7 44.8,16.7 44.4,19.3 41,19.3 40.2,23.9 37.2,23.9 
		39.1,12.1 	"/>
	<path class="st0" d="M61.5,12.1h4c4.7,0,5.8,3.6,5.4,5.9c-0.5,3.3-3.5,5.9-7.3,5.9h-4L61.5,12.1L61.5,12.1z M64.1,14.7
		c0.2,0,0.4,0,0.6,0c2.3,0,3.2,1.6,3,3.2c-0.3,2.1-1.9,3.5-3.9,3.5c-0.3,0-0.5,0-0.8,0L64.1,14.7L64.1,14.7z"/>
	<path class="st0" d="M0.3,10.5H6l0.7,8.6C10.4,12.6,14.2,6.4,18,0.3h1.8c-4,7.8-8,15.7-11.9,23.6H3.8l-1-9.5
		c-0.3-2.4-0.7-3.4-2.4-3.6V10.5L0.3,10.5z"/>
	<polygon class="st0" points="2.5,5.6 7.3,7.6 7.7,13 8.1,13 12.4,5.6 12.4,5.2 2.5,5.2 2.5,5.6 	"/>
	<path class="st0" d="M24.7,32.4c0.7,0,1.2,0.7,1.1,1.5c-0.1,0.8-0.8,1.5-1.5,1.5c-0.7,0-1.2-0.7-1.1-1.5
		C23.3,33.1,24,32.4,24.7,32.4L24.7,32.4z M22.3,26.7h2l-0.7,4.7c0.6-0.5,1.3-0.9,2-0.9c1.6,0,2.6,1.5,2.3,3.4
		c-0.3,1.9-1.8,3.4-3.4,3.4c-0.8,0-1.3-0.4-1.7-0.9l-0.1,0.7h-2L22.3,26.7L22.3,26.7z"/>
	<polygon class="st0" points="28.1,30.7 30.5,30.7 31.5,34 33.6,30.7 35.9,30.7 29.9,40.3 27.6,40.3 30.1,36.2 28.1,30.7 	"/>
	<polygon class="st0" points="47.6,37.1 49.4,26.7 52.2,26.7 50.5,37.1 47.6,37.1 	"/>
	<path class="st0" d="M45.3,26.7c-1,2.3-1.8,4.7-2.8,7l-0.3-1.4c0,0,0,0,0,0l0,0.2c-0.2-0.7-0.6-1.4-1.1-2c0,0,0,0,0,0
		c-0.1-0.1-0.2-0.2-0.3-0.3c-0.1-0.1-0.1-0.1-0.2-0.2c-0.7-0.8-1.5-1.4-2.4-1.9l2.5,9h3c1.4-3.5,3-6.9,4.4-10.4
		C47.3,26.7,46.3,26.7,45.3,26.7z"/>
	<path class="st0" d="M39.9,26.7h-4.6v0.2c2.7,0.5,6,2.8,6.9,5.7l-1-4.8C41.1,27,40.5,26.7,39.9,26.7z"/>
	<path class="st0" d="M70.4,37.1c-0.9,0-1.7,0-2.6,0c-0.2-0.5-0.2-1.1-0.4-1.6c-1.2,0-2.4,0-3.5,0l-0.7,1.6c-1,0-2,0-3,0l3.9-8.9
		c0.2-0.4,0.5-0.9,0.6-1.2c0.2-0.4,1-0.4,1.3-0.4h2.1L70.4,37.1z M66.1,29.6l-1.4,3.9H67L66.1,29.6z"/>
</g>
</svg>
