<svg id="Layer_1" data-name="Layer 1" xmlns="http://www.w3.org/2000/svg" width="145" height="52" viewBox="0 0 160.83 57.87">
  <title>visa-direct</title>
  <g>
    <g>
      <path d="M56.61,42.8l0.65-4.9c0.12-.86.32-2.19,0.5-3.07H57.7c-0.42.92-.92,2-1.41,2.92l-2.69,5H52.73l-0.67-4.89c-0.13-1-.23-2.1-0.28-3h0c-0.2.83-.48,2.21-0.7,3.07l-1.24,4.9h-1l2.36-9.07h1.43l0.71,5.21c0.09,0.77.2,1.59,0.22,2.26h0c0.28-.67.67-1.48,1.06-2.23l2.81-5.24h1.45L57.68,42.8H56.61Z" fill="#1a1f71"/>
      <path d="M65.81,36.28L64.93,40.9c-0.13.73-.23,1.36-0.3,1.9h-1l0.17-1.22h0a2.9,2.9,0,0,1-2.3,1.37,1.62,1.62,0,0,1-1.71-1.88A5.93,5.93,0,0,1,59.89,40l0.7-3.69H61.7L61,39.92a4.45,4.45,0,0,0-.12,1,1,1,0,0,0,1,1.13,2.69,2.69,0,0,0,2.11-2.38l0.63-3.34h1.12Z" fill="#1a1f71"/>
      <path d="M66.53,42.8l0.88-4.62c0.13-.73.23-1.36,0.3-1.9h1l-0.17,1.22h0a2.78,2.78,0,0,1,2.29-1.37,1.42,1.42,0,0,1,1.52,1.45,2.79,2.79,0,0,1,2.4-1.45,1.55,1.55,0,0,1,1.58,1.71,6.64,6.64,0,0,1-.11,1.1L75.49,42.8H74.4L75.1,39a4.32,4.32,0,0,0,.09-0.85,0.94,0.94,0,0,0-1-1.13c-0.81,0-1.76.94-2,2.4L71.55,42.8H70.47L71.2,39a4.19,4.19,0,0,0,.08-0.79,0.93,0.93,0,0,0-1-1.12c-0.82,0-1.83,1.08-2.09,2.46L67.62,42.8H66.53Z" fill="#1a1f71"/>
      <path d="M77.4,42.8l0.87-4.62c0.13-.73.23-1.36,0.3-1.9h1l-0.18,1.22h0a2.78,2.78,0,0,1,2.29-1.37,1.42,1.42,0,0,1,1.52,1.45,2.79,2.79,0,0,1,2.4-1.45,1.55,1.55,0,0,1,1.58,1.71,6.65,6.65,0,0,1-.11,1.1L86.36,42.8H85.27L86,39a4.32,4.32,0,0,0,.09-0.85,0.94,0.94,0,0,0-1-1.13c-0.81,0-1.76.94-2,2.4L82.42,42.8H81.34L82.07,39a4.19,4.19,0,0,0,.08-0.79,0.93,0.93,0,0,0-1-1.12c-0.82,0-1.83,1.08-2.09,2.46L78.49,42.8H77.4Z" fill="#1a1f71"/>
      <path d="M93.42,37.35A2.64,2.64,0,0,0,92.13,37a2.56,2.56,0,0,0-2.49,2.09h3.07l-0.13.78H89.52a2.58,2.58,0,0,0,0,.32A1.8,1.8,0,0,0,91.41,42a3.61,3.61,0,0,0,1.36-.28l0.13,0.81a4.07,4.07,0,0,1-1.84.38,2.61,2.61,0,0,1-2.69-2.84,4.17,4.17,0,0,1,1-2.81,3.68,3.68,0,0,1,2.73-1.16,3.2,3.2,0,0,1,1.6.39Z" fill="#1a1f71"/>
      <path d="M99.45,37.64a2,2,0,0,1-1.53,1.64v0a1.44,1.44,0,0,1,1.35,1.45c0,1.55-1.6,2.17-2.93,2.17s-2.18-.53-2.18-1.88c0-1.18.54-3.46,1.7-4.33a2.77,2.77,0,0,1,1.76-.58A1.57,1.57,0,0,1,99.45,37.64ZM95.4,40a4.35,4.35,0,0,0-.12,1,1,1,0,0,0,1.18,1.16,1.47,1.47,0,0,0,1.67-1.31,1.14,1.14,0,0,0-1.36-1A4.61,4.61,0,0,0,95.4,40Zm0.15-.79a6.58,6.58,0,0,0,2.15-.53,1.12,1.12,0,0,0,.67-0.92A0.8,0.8,0,0,0,97.46,37C96.29,37,95.8,38.21,95.55,39.18Z" fill="#1a1f71"/>
      <path d="M100.35,42.8l1.25-6.51h1.12l-1.25,6.51h-1.12Zm1.45-8.33a0.74,0.74,0,0,1,.74-0.75,0.65,0.65,0,0,1,.66.7,0.73,0.73,0,0,1-.75.75A0.64,0.64,0,0,1,101.8,34.46Z" fill="#1a1f71"/>
      <path d="M105.88,42.8l0.88-4.62c0.15-.73.23-1.36,0.31-1.9h1l-0.16,1.28h0a2.85,2.85,0,0,1,2.41-1.43A1.6,1.6,0,0,1,112,38a6.4,6.4,0,0,1-.12,1l-0.73,3.79H110L110.74,39a4.29,4.29,0,0,0,.09-0.83,1,1,0,0,0-1-1.14c-0.79,0-1.92,1-2.22,2.57L107,42.8h-1.12Z" fill="#1a1f71"/>
      <path d="M119.29,36.28l-1.24,6.51H117l1-5.61h-2.22l-0.32,1.68c-0.35,1.76-.83,3-1.74,3.58a2,2,0,0,1-1.33.44l-0.09-.9a1.72,1.72,0,0,0,.79-0.26,4.39,4.39,0,0,0,1.3-2.85l0.5-2.6h4.4Z" fill="#1a1f71"/>
      <path d="M124.31,42.8c0-.39.07-1,0.15-1.68h0a2.85,2.85,0,0,1-2.53,1.83A1.93,1.93,0,0,1,120,40.79a4.55,4.55,0,0,1,4.51-4.66,6.1,6.1,0,0,1,1.75.26l-0.66,3.39a14.89,14.89,0,0,0-.28,3h-1ZM125,37.12a3,3,0,0,0-.78-0.09c-1.68,0-3.06,1.76-3.07,3.57A1.19,1.19,0,0,0,122.3,42c0.93,0,2-1.21,2.36-2.95Z" fill="#1a1f71"/>
      <path d="M127,42.8l0.88-4.62c0.13-.73.23-1.36,0.3-1.9h1L129,37.51h0a2.78,2.78,0,0,1,2.29-1.37,1.42,1.42,0,0,1,1.52,1.45,2.79,2.79,0,0,1,2.4-1.45,1.55,1.55,0,0,1,1.58,1.71,6.65,6.65,0,0,1-.11,1.1L136,42.8h-1.09l0.7-3.75a4.32,4.32,0,0,0,.09-0.85,0.94,0.94,0,0,0-1-1.13c-0.81,0-1.76.94-2,2.4L132,42.8H131L131.68,39a4.19,4.19,0,0,0,.08-0.79,0.93,0.93,0,0,0-1-1.12c-0.82,0-1.83,1.08-2.09,2.46L128.1,42.8H127Z" fill="#1a1f71"/>
      <path d="M142.58,42.42a4.49,4.49,0,0,1-2.15.51,2.35,2.35,0,0,1-2.48-2.61c0-2,1.45-4.19,3.55-4.19a1.69,1.69,0,0,1,1.91,1.67c0,1.71-1.92,2.17-4.33,2.13a2.71,2.71,0,0,0,.13,1.24,1.48,1.48,0,0,0,1.45.88,3.64,3.64,0,0,0,1.75-.46ZM141.34,37a2.51,2.51,0,0,0-2.13,2.06c1.75,0,3.12-.22,3.12-1.22A0.86,0.86,0,0,0,141.34,37Z" fill="#1a1f71"/>
      <path d="M145.78,36.28l1.52,2.88h0.24l0.54-2.88h1l-0.56,2.88h0.25l2.6-2.88h1.27l-2.92,3A1.91,1.91,0,0,1,151.08,41a17.45,17.45,0,0,0,.42,1.78h-1.06a12.86,12.86,0,0,1-.36-1.55c-0.19-1-.54-1.39-1.44-1.39h-0.22l-0.57,2.93h-1l0.58-2.93h-0.16a2.14,2.14,0,0,0-2.06,1.35c-0.34.65-.57,1.16-0.82,1.59h-1.12c0.27-.46.51-1,0.85-1.67a2.85,2.85,0,0,1,2.3-1.87l-1.83-3h1.22Z" fill="#1a1f71"/>
      <path d="M152.61,42.8l1.25-6.51H155l-1.25,6.51h-1.12Zm1.45-8.33a0.74,0.74,0,0,1,.74-0.75,0.65,0.65,0,0,1,.66.7,0.73,0.73,0,0,1-.75.75A0.64,0.64,0,0,1,154.06,34.46Z" fill="#1a1f71"/>
      <path d="M80.89,55.21l0.88-4.62c0.13-.73.23-1.36,0.3-1.9h1l-0.17,1.22h0a2.78,2.78,0,0,1,2.29-1.37A1.42,1.42,0,0,1,86.71,50a2.79,2.79,0,0,1,2.4-1.45,1.55,1.55,0,0,1,1.58,1.71,6.65,6.65,0,0,1-.11,1.1l-0.73,3.85H88.76l0.7-3.75a4.32,4.32,0,0,0,.09-0.85,0.94,0.94,0,0,0-1-1.13c-0.81,0-1.76.94-2,2.4L85.9,55.21H84.83l0.73-3.82a4.19,4.19,0,0,0,.08-0.79,0.93,0.93,0,0,0-1-1.12c-0.82,0-1.83,1.08-2.09,2.46L82,55.21H80.89Z" fill="#1a1f71"/>
      <path d="M96.07,55.21c0-.39.07-1,0.15-1.68h0a2.85,2.85,0,0,1-2.53,1.83,1.93,1.93,0,0,1-1.87-2.15,4.55,4.55,0,0,1,4.51-4.66,6.09,6.09,0,0,1,1.75.26l-0.66,3.39a14.89,14.89,0,0,0-.28,3h-1Zm0.73-5.68A3,3,0,0,0,96,49.43C94.34,49.43,93,51.19,93,53a1.19,1.19,0,0,0,1.12,1.44c0.93,0,2-1.21,2.36-2.95Z" fill="#1a1f71"/>
      <path d="M101.22,55.21l0.88-4.62c0.15-.73.23-1.36,0.31-1.9h1L103.24,50h0a2.85,2.85,0,0,1,2.41-1.43,1.6,1.6,0,0,1,1.66,1.82,6.4,6.4,0,0,1-.12,1l-0.73,3.79h-1.12l0.71-3.75a4.29,4.29,0,0,0,.09-0.83,1,1,0,0,0-1-1.14c-0.79,0-1.92,1-2.22,2.57l-0.59,3.16h-1.12Z" fill="#1a1f71"/>
      <path d="M113.11,54.83a4.49,4.49,0,0,1-2.15.51,2.35,2.35,0,0,1-2.48-2.61c0-2,1.45-4.19,3.55-4.19a1.69,1.69,0,0,1,1.91,1.67c0,1.71-1.92,2.17-4.33,2.13a2.71,2.71,0,0,0,.13,1.24,1.48,1.48,0,0,0,1.45.88,3.64,3.64,0,0,0,1.75-.46Zm-1.24-5.41a2.51,2.51,0,0,0-2.13,2.06c1.75,0,3.12-.22,3.12-1.23A0.86,0.86,0,0,0,111.87,49.42Z" fill="#1a1f71"/>
      <path d="M113.92,57.87L115.23,51c0.13-.78.27-1.66,0.36-2.31h1l-0.19,1.22h0a3,3,0,0,1,2.34-1.37,2.07,2.07,0,0,1,2,2.36c0,2.29-1.64,4.46-3.81,4.46a2.86,2.86,0,0,1-1.41-.3h0L115,57.87h-1.1Zm1.83-3.75a2,2,0,0,0,1.24.36c1.44,0,2.65-1.79,2.65-3.5a1.32,1.32,0,0,0-1.25-1.51c-0.87,0-2,1-2.32,2.83Z" fill="#1a1f71"/>
      <path d="M126.26,54.83a4.49,4.49,0,0,1-2.15.51,2.35,2.35,0,0,1-2.48-2.61c0-2,1.45-4.19,3.55-4.19a1.69,1.69,0,0,1,1.91,1.67c0,1.71-1.92,2.17-4.33,2.13a2.71,2.71,0,0,0,.13,1.24,1.48,1.48,0,0,0,1.45.88A3.64,3.64,0,0,0,126.1,54ZM125,49.42a2.51,2.51,0,0,0-2.13,2.06c1.75,0,3.12-.22,3.12-1.23A0.86,0.86,0,0,0,125,49.42Z" fill="#1a1f71"/>
      <path d="M130,48.69l-0.55,2.88h0.26l2.81-2.88h1.35l-3.18,3a2.28,2.28,0,0,1,1.44,1.83,16.59,16.59,0,0,0,.57,1.7H131.6c-0.17-.36-0.32-1-0.54-1.59-0.38-1-.75-1.35-1.56-1.35h-0.2l-0.55,2.93h-1.09l1.25-6.51H130Z" fill="#1a1f71"/>
      <path d="M138,55.21c0-.39.07-1,0.15-1.68h0a2.85,2.85,0,0,1-2.53,1.83,1.93,1.93,0,0,1-1.87-2.15,4.55,4.55,0,0,1,4.51-4.66,6.1,6.1,0,0,1,1.75.26l-0.66,3.39a14.89,14.89,0,0,0-.28,3h-1Zm0.73-5.68a3,3,0,0,0-.78-0.09c-1.68,0-3.06,1.76-3.07,3.57A1.19,1.19,0,0,0,136,54.44c0.93,0,2-1.21,2.36-2.95Z" fill="#1a1f71"/>
      <path d="M141.81,51.4h0.44c0.77,0,1.87-.34,1.87-1.14a0.91,0.91,0,0,0-1.06-.85,3,3,0,0,0-1.55.46l-0.26-.71a3.76,3.76,0,0,1,2-.59c1,0,2.06.4,2.06,1.57a1.84,1.84,0,0,1-1.71,1.63h0a1.64,1.64,0,0,1,1.51,1.52c0,1.53-1.52,2-2.81,2a3.84,3.84,0,0,1-2.11-.55l0.32-.81a3.35,3.35,0,0,0,1.72.5c0.75,0,1.7-.34,1.7-1.18s-0.92-1.1-1.71-1.1h-0.53Z" fill="#1a1f71"/>
      <path d="M152.52,48.69l-0.87,4.62c-0.13.73-.23,1.36-0.3,1.9h-1L150.51,54h0a2.9,2.9,0,0,1-2.3,1.37,1.62,1.62,0,0,1-1.71-1.88,5.93,5.93,0,0,1,.12-1.09l0.7-3.69h1.12l-0.69,3.63a4.4,4.4,0,0,0-.12,1,1,1,0,0,0,1,1.13A2.69,2.69,0,0,0,150.77,52l0.63-3.34h1.12Z" fill="#1a1f71"/>
    </g>
    <g>
      <path d="M79.21,1.57a34.8,34.8,0,0,1,6.13-.5c3.21,0,5.79.63,7.7,2.07a8.22,8.22,0,0,1,3.15,7,12,12,0,0,1-4.4,9.62c-2.48,1.92-5.57,2.8-10.41,2.8a34.66,34.66,0,0,1-6.07-.47l3.9-20.53m2.26,16.57a15.22,15.22,0,0,0,1.63.09,6.89,6.89,0,0,0,5.35-2.33,8.72,8.72,0,0,0,1.89-5.75c0-3.17-1.86-4.81-4.94-4.81a7.61,7.61,0,0,0-1.51.13Z" fill="#1a1f71"/>
      <path d="M96.88,22.42L99.8,6.95h5.38l-2.93,15.47H96.88m6.13-17a2.36,2.36,0,0,1-2.48-2.48,2.88,2.88,0,0,1,3-2.89,2.39,2.39,0,0,1,2.58,2.48,2.84,2.84,0,0,1-3,2.89h0Z" fill="#1a1f71"/>
      <path d="M105.71,22.42l1.7-8.9c0.44-2.45.63-5.28,0.79-6.57h4.62c-0.06,1-.13,2-0.22,3.08h0.09c1.13-2,2.86-3.43,5-3.43a8.39,8.39,0,0,1,.91,0l-1.07,5.19h-0.69c-3.18,0-4.25,2.48-4.78,5.31l-1,5.28h-5.38" fill="#1a1f71"/>
      <path d="M131.75,21.54a14.47,14.47,0,0,1-6.07,1.23c-4.53,0-7-2.39-7-6.7a9.2,9.2,0,0,1,9.25-9.47c3.21,0,5.72,1.76,5.72,4.94,0,3.87-3.52,5.44-9.91,5.25a1.9,1.9,0,0,0,.57,1,4.28,4.28,0,0,0,2.77.79,10.32,10.32,0,0,0,4.4-.94l0.28,3.87m-3.11-10.06a1.18,1.18,0,0,0-1.38-1,3,3,0,0,0-3,2.45c3.27,0,4.4-.44,4.4-1.42v0Z" fill="#1a1f71"/>
      <path d="M146.34,22a10.13,10.13,0,0,1-4.34.79c-3.74,0-6.73-2.2-6.73-6.54,0-5.57,4.31-9.62,10.35-9.62a9.2,9.2,0,0,1,3.08.47l-1.26,4.06a5.11,5.11,0,0,0-1.85-.28,4.61,4.61,0,0,0-4.72,4.81,2.62,2.62,0,0,0,2.7,2.83,7.13,7.13,0,0,0,2.83-.57L146.34,22" fill="#1a1f71"/>
      <path d="M158.51,2.55l-0.82,4.4h3.14L160,11H156.9L156,15.28A11.65,11.65,0,0,0,155.8,17a1.09,1.09,0,0,0,1.26,1.23,8.82,8.82,0,0,0,1.26-.06l-0.69,4.21a9.9,9.9,0,0,1-3,.38c-2.93,0-4.37-1.41-4.37-3.49a15.61,15.61,0,0,1,.32-2.86L151.68,11H149.8l0.79-4.06h1.89L153,4l5.5-1.48" fill="#1a1f71"/>
      <path d="M20.21,1.27L14.44,15.85,12.11,3.45A2.58,2.58,0,0,0,9.56,1.27H0.13L0,1.89A23.3,23.3,0,0,1,5.46,3.71,2.34,2.34,0,0,1,6.78,5.59L11.2,22.68h5.85L26,1.27H20.21" fill="#1a1f71"/>
      <path d="M49,15.69c0,4.45-3.83,7.32-9.64,7.32a16.86,16.86,0,0,1-6.16-1.14l1-4.69a11.63,11.63,0,0,0,5.69,1.35c1.59,0,3.3-.66,3.31-2.09,0-.94-0.71-1.61-2.87-2.66S35.41,11,35.45,8c0-4.17,3.89-7.08,9.36-7.08a14.88,14.88,0,0,1,5.18,1L49,6.37a10.49,10.49,0,0,0-5.46-1c-1.6.21-2.33,1-2.35,1.79C41.15,9.73,49,10,49,15.69m13.78,3.79H55.65l-1.16,3.2H48.68L57,2.84a2.52,2.52,0,0,1,2.36-1.57h4.73l4.47,21.41H63.41Zm-0.9-4.39-1.66-8-2.94,8h4.6ZM28.4,1.27L23.82,22.68h5.54L33.94,1.27H28.4Z" fill="#1a1f71"/>
      <path d="M80,25H79.12" fill="#1a1f71"/>
    </g>
  </g>
</svg>
