<?xml version="1.0" encoding="utf-8"?>
<!-- Generator: Adobe Illustrator 19.0.0, SVG Export Plug-In . SVG Version: 6.00 Build 0)  -->
<svg version="1.1" id="Слой_1" xmlns="http://www.w3.org/2000/svg" xmlns:xlink="http://www.w3.org/1999/xlink" x="0px" y="0px"
	 viewBox="0 0 71.6 23.2" style="enable-background:new 0 0 71.6 23.2;" xml:space="preserve">
<style type="text/css">
	.st0{fill:#2D7DB3;}
</style>
<g id="logo_x5F_Visa_2_">
	<g id="XMLID_114_">
		<g id="XMLID_126_">
			<path id="XMLID_127_" class="st0" d="M20.8,0.5l-5.6,15.2l-0.6-3.1c-1.4-3.8-4.4-7.7-8-9.4l5.2,19.5l6.1,0l9.1-22.3H20.8
				L20.8,0.5z"/>
		</g>
		<g id="XMLID_124_">
			<polygon id="XMLID_125_" class="st0" points="25.6,22.5 29.2,0.5 35,0.5 31.4,22.5 25.6,22.5 			"/>
		</g>
		<g id="XMLID_122_">
			<path id="XMLID_123_" class="st0" d="M52.2,1.1c-1.1-0.4-2.9-0.9-5.2-0.9c-5.7,0-9.7,3-9.7,7.4c0,3.2,2.9,5,5,6.1
				c2.2,1.1,3,1.8,3,2.8c0,1.5-1.8,2.2-3.4,2.2c-2.3,0-3.5-0.3-5.4-1.2L35.8,17L35,22c1.3,0.6,3.8,1.2,6.4,1.2c6,0,10-3,10-7.6
				c0-2.5-1.5-4.5-4.8-6.1c-2-1-3.2-1.7-3.2-2.8c0-0.9,1-1.9,3.3-1.9c1.9,0,3.2,0.4,4.3,0.9l0.5,0.3L52.2,1.1L52.2,1.1z"/>
		</g>
		<g id="XMLID_117_">
			<g id="XMLID_118_">
				<path id="XMLID_119_" class="st0" d="M67,0.5h-4.4c-1.4,0-2.4,0.3-3,1.7L51,22.5h6c0,0,1-2.6,1.2-3.2c0.7,0,6.5-0.1,7.4-0.1
					c0.2,0.8,0.7,3.2,0.7,3.2h5.3L67,0.5L67,0.5z M59.9,14.5c0.5,0,2.3-6,2.3-6c0,0.1,0.5-1.2,0.8-2l0.4,1.8c0,0,1.1,5.3,1.3,6.3
					C63.8,14.5,61,14.5,59.9,14.5L59.9,14.5z"/>
			</g>
		</g>
		<g id="XMLID_115_">
			<path id="XMLID_116_" class="st0" d="M9.9,0.5H0.6L0.6,0.9c7.2,1.8,12,6.4,14,11.8l-2-10.3C12.2,1,11.2,0.5,9.9,0.5L9.9,0.5z"/>
		</g>
	</g>
</g>
</svg>
