<svg id="Слой_1" data-name="Слой 1" xmlns="http://www.w3.org/2000/svg" width="136.71" height="25.84" viewBox="0 0 136.71 25.84">
  <title>visa_action</title>
  <path d="M30.37,0.46l-10.47,25H13.07L7.91,5.5a2.74,2.74,0,0,0-1.54-2.2A27,27,0,0,0,0,1.18l0.15-.73h11a3,3,0,0,1,3,2.55l2.72,14.46,6.72-17h6.79ZM57.15,17.29c0-6.59-9.12-7-9.06-9.91,0-.9.87-1.85,2.74-2.09a12.2,12.2,0,0,1,6.38,1.12l1.13-5.3a17.43,17.43,0,0,0-6-1.1C45.9,0,41.41,3.39,41.37,8.26c0,3.6,3.21,5.6,5.66,6.8s3.37,2,3.35,3.1c0,1.68-2,2.42-3.87,2.45A13.51,13.51,0,0,1,39.88,19L38.7,24.51a19.64,19.64,0,0,0,7.19,1.33c6.79,0,11.24-3.35,11.26-8.55M74,25.44h6l-5.22-25H69.26a2.94,2.94,0,0,0-2.75,1.83l-9.7,23.16H63.6l1.35-3.73h8.29Zm-7.22-8.85,3.4-9.38,2,9.38H66.81ZM39.61,0.46l-5.34,25H27.8l5.35-25h6.46Z" fill="#fff"/>
  <polygon points="136.71 25.84 89.18 25.84 83.44 0.89 130.97 0.89 136.71 25.84" fill="#f0594a"/>
  <g>
    <path d="M97.65,15H94.88l-0.57,1.84H92.52L95.4,8.35h1.75L100,16.88H98.23ZM95.3,13.7h1.93l-0.94-3h0Z" fill="#fff"/>
    <path d="M103.17,14.51h-0.66v2.37H100.8V10.54h1.71V13H103l1.45-2.41h2.16l-2.1,2.94,2.2,3.4h-2.19Z" fill="#fff"/>
    <path d="M107.51,10.54h1.71v5h2.1v-5H113v5h0.91v2.49h-1.71V16.88h-4.73V10.54Z" fill="#fff"/>
    <path d="M118.63,10.54h1.71v6.34h-1.71V13h0l-2.07,3.87h-1.71V10.54h1.71V14.4h0Z" fill="#fff"/>
    <path d="M127,10.54v6.34h-1.7V14.66h-1l-1.26,2.22h-1.73l1.4-2.47a2.11,2.11,0,0,1-1-.71,1.75,1.75,0,0,1-.34-1.06,1.85,1.85,0,0,1,.74-1.51,3.08,3.08,0,0,1,2-.59H127Zm-3.83,2.15a0.76,0.76,0,0,0,.26.57,1.06,1.06,0,0,0,.75.24h1.12V11.85h-1.12a1,1,0,0,0-.74.26A0.8,0.8,0,0,0,123.14,12.69Z" fill="#fff"/>
  </g>
</svg>
