<?xml version="1.0" encoding="utf-8"?>
<!-- Generator: Adobe Illustrator 19.0.0, SVG Export Plug-In . SVG Version: 6.00 Build 0)  -->
<svg version="1.1" id="Слой_1" xmlns="http://www.w3.org/2000/svg" xmlns:xlink="http://www.w3.org/1999/xlink" x="0px" y="0px"
	 viewBox="0 0 17.2 9.8" style="enable-background:new 0 0 17.2 9.8;" xml:space="preserve">
<style type="text/css">
	.st0{fill:#2D7DB3;}
</style>
<g id="btn_x5F_hover_1_">
	<g id="XMLID_66_">
		<path id="XMLID_67_" class="st0" d="M17.2,0.7c0.1,0.4-0.3,1.3-1.3,2.6c-0.1,0.2-0.3,0.4-0.6,0.8c-0.5,0.6-0.7,1-0.8,1.2
			c-0.1,0.2-0.1,0.5,0.1,0.7c0.1,0.1,0.3,0.4,0.7,0.7h0l0,0l0,0l0,0c0.8,0.8,1.4,1.4,1.7,2c0,0,0,0.1,0.1,0.1c0,0,0,0.1,0.1,0.2
			c0,0.1,0,0.2,0,0.3S17,9.5,16.9,9.6s-0.3,0.1-0.5,0.1l-2.3,0c-0.1,0-0.3,0-0.5,0c-0.2-0.1-0.3-0.1-0.5-0.2L13,9.4
			c-0.2-0.1-0.4-0.3-0.6-0.6c-0.2-0.3-0.4-0.5-0.6-0.7c-0.2-0.2-0.4-0.4-0.5-0.5c-0.2-0.1-0.4-0.2-0.5-0.1c0,0,0,0-0.1,0
			s-0.1,0.1-0.2,0.1c-0.1,0.1-0.1,0.2-0.2,0.3c-0.1,0.1-0.1,0.3-0.2,0.5c0,0.2-0.1,0.4-0.1,0.7c0,0.1,0,0.2,0,0.2
			c0,0.1,0,0.1-0.1,0.2l0,0C9.8,9.6,9.7,9.7,9.4,9.7h-1c-0.4,0-0.9,0-1.3-0.1C6.7,9.5,6.3,9.3,5.9,9.1S5.3,8.7,5,8.5
			C4.7,8.3,4.5,8.2,4.4,8L4.2,7.8C4.1,7.7,4,7.6,3.9,7.5C3.8,7.4,3.6,7.1,3.3,6.7C3,6.3,2.7,5.8,2.3,5.4C2,4.9,1.7,4.3,1.2,3.5
			C0.8,2.7,0.4,1.9,0.1,1.1C0,1,0,0.9,0,0.8s0-0.1,0-0.1l0-0.1c0.1-0.1,0.3-0.2,0.5-0.2l2.4,0c0.1,0,0.1,0,0.2,0.1
			c0.1,0,0.1,0.1,0.1,0.1l0,0c0.1,0.1,0.2,0.2,0.2,0.3c0.1,0.3,0.3,0.6,0.4,0.9c0.2,0.3,0.3,0.6,0.4,0.7l0.1,0.3
			c0.2,0.4,0.3,0.7,0.5,0.9s0.3,0.5,0.4,0.6c0.1,0.1,0.3,0.3,0.4,0.3C6,4.8,6.1,4.8,6.2,4.8c0.1,0,0.2,0,0.2,0c0,0,0,0,0,0
			c0,0,0.1-0.1,0.1-0.2c0.1-0.1,0.1-0.2,0.1-0.4c0-0.2,0.1-0.4,0.1-0.7c0-0.3,0-0.7,0-1.1c0-0.2,0-0.5-0.1-0.7S6.6,1.3,6.6,1.2
			L6.5,1.1C6.4,0.9,6.1,0.8,5.8,0.7c-0.1,0-0.1-0.1,0-0.2C5.9,0.4,6,0.3,6.1,0.2C6.5,0.1,7.2,0,8.3,0c0.5,0,0.9,0,1.2,0.1
			c0.1,0,0.2,0.1,0.3,0.1C9.9,0.3,9.9,0.4,10,0.5c0,0.1,0.1,0.2,0.1,0.3c0,0.1,0,0.2,0,0.4s0,0.3,0,0.5c0,0.2,0,0.4,0,0.6
			c0,0.3,0,0.5,0,0.7c0,0.1,0,0.2,0,0.4s0,0.3,0,0.4c0,0.1,0,0.2,0,0.4c0,0.1,0.1,0.3,0.1,0.3c0.1,0.1,0.1,0.2,0.2,0.2
			c0,0,0.1,0,0.2,0c0.1,0,0.1,0,0.2-0.1c0.1-0.1,0.2-0.2,0.3-0.3s0.3-0.3,0.5-0.6c0.2-0.3,0.4-0.6,0.6-1c0.4-0.6,0.7-1.3,1-2
			c0-0.1,0.1-0.1,0.1-0.2c0,0,0.1-0.1,0.1-0.1l0,0c0,0,0,0,0,0c0,0,0.1,0,0.1,0c0.1,0,0.1,0,0.2,0l2.6,0c0.2,0,0.4,0,0.6,0
			C17,0.5,17.1,0.6,17.2,0.7L17.2,0.7z"/>
	</g>
</g>
</svg>
