<?xml version="1.0" encoding="utf-8"?>
<!-- Generator: Adobe Illustrator 19.0.0, SVG Export Plug-In . SVG Version: 6.00 Build 0)  -->
<svg version="1.1" id="Слой_1" xmlns="http://www.w3.org/2000/svg" xmlns:xlink="http://www.w3.org/1999/xlink" x="0px" y="0px"
	 viewBox="0 0 960.4 132.3" style="enable-background:new 0 0 960.4 132.3;" xml:space="preserve">
<style type="text/css">
	.st0{clip-path:url(#SVGID_2_);}
	.st1{opacity:0.2;}
	.st2{filter:url(#Adobe_OpacityMaskFilter);}
	.st3{mask:url(#XMLID_86_);}
	.st4{fill:#FFFFFF;}
	.st5{opacity:0.5;}
	.st6{filter:url(#Adobe_OpacityMaskFilter_1_);}
	.st7{mask:url(#XMLID_87_);}
	.st8{filter:url(#Adobe_OpacityMaskFilter_2_);}
	.st9{mask:url(#XMLID_88_);}
	.st10{filter:url(#Adobe_OpacityMaskFilter_3_);}
	.st11{mask:url(#XMLID_89_);}
	.st12{filter:url(#Adobe_OpacityMaskFilter_4_);}
	.st13{mask:url(#XMLID_90_);}
	.st14{filter:url(#Adobe_OpacityMaskFilter_5_);}
	.st15{mask:url(#XMLID_91_);}
	.st16{filter:url(#Adobe_OpacityMaskFilter_6_);}
	.st17{mask:url(#XMLID_92_);}
	.st18{filter:url(#Adobe_OpacityMaskFilter_7_);}
	.st19{mask:url(#XMLID_93_);}
	.st20{filter:url(#Adobe_OpacityMaskFilter_8_);}
	.st21{mask:url(#XMLID_94_);}
</style>
<g id="png_x5F_alpha_x5F_channel">
	<defs>
		<rect id="SVGID_1_" width="960" height="133"/>
	</defs>
	<clipPath id="SVGID_2_">
		<use xlink:href="#SVGID_1_"  style="overflow:visible;"/>
	</clipPath>
	<g class="st0">
		<g class="st1">
			<defs>
				<filter id="Adobe_OpacityMaskFilter" filterUnits="userSpaceOnUse" x="19" y="70.6" width="219.6" height="119.8">
					<feFlood  style="flood-color:white;flood-opacity:1" result="back"/>
					<feBlend  in="SourceGraphic" in2="back" mode="normal"/>
				</filter>
			</defs>
			<mask maskUnits="userSpaceOnUse" x="19" y="70.6" width="219.6" height="119.8" id="XMLID_86_">
				<g id="XMLID_54_" class="st2">
					
						<image style="overflow:visible;" width="932" height="516" id="XMLID_55_" xlink:href="AE77A36FE5E45082.jpg"  transform="matrix(0.24 0 0 0.24 17.0047 68.6124)">
					</image>
				</g>
			</mask>
			<g id="XMLID_53_" class="st3">
				<path id="XMLID_57_" class="st4" d="M216.5,183.6c3.8-2,8.9-1.9,13.4-2.8c4.5-0.9,9-3.5,8.7-7.7c-0.4-6.2-10.5-10.5-12.2-16.7
					c-1.3-4.8,2.7-8.4,5.9-11.7c3.2-3.3,5.7-8.6,1.9-12.6c-1.4-1.5-3.3-2.4-4.8-3.9c-3.8-3.8-2.9-9.8-7.3-13.1
					c-3-2.2-7.2-2.1-10.5-3.9c-2.7-1.4-4.4-3.9-6.8-5.7c-3.3-2.4-7.6-3.4-11.5-4.8c-11.7-4.4-21.8-14.2-33.8-15.2
					c-4.2-0.4-8.1,0.4-12.3,0.4c-11.8,0-23.4-6.3-35-10.8c-11.5-4.5-25.8-7-33.4-0.2c-3.3,2.9-5,7.4-9.5,9c-7.1,2.6-18.9-3.1-23,2.5
					c-1.1,1.4-1.3,3.3-2,5c-3.7,8.3-19.5,7-24.2,14.8c-2.5,4.3-1.4,13.1,4.1,26.7c1.6,3.9,2.5,8,5.4,11.5c2.8,3.4,7,5.8,11,8
					c8.9,4.9,18.2,9.3,27.6,13.2c8,3.3,16.2,6.2,24.5,7.2c6.5,0.8,12.8,0.4,19.3,1.4c19.6,2.9,38.7,17.7,57.7,16.3
					c7.6-0.6,14.1-3.7,20.9-6.1c6.8-2.3,14.8-3.7,22.4-0.8"/>
			</g>
		</g>
		<g class="st5">
			<defs>
				<filter id="Adobe_OpacityMaskFilter_1_" filterUnits="userSpaceOnUse" x="83.6" y="99.4" width="228" height="103.6">
					<feFlood  style="flood-color:white;flood-opacity:1" result="back"/>
					<feBlend  in="SourceGraphic" in2="back" mode="normal"/>
				</filter>
			</defs>
			<mask maskUnits="userSpaceOnUse" x="83.6" y="99.4" width="228" height="103.6" id="XMLID_87_">
				<g id="XMLID_49_" class="st6">
					
						<image style="overflow:visible;" width="967" height="449" id="XMLID_50_" xlink:href="AE77A36FE5E45086.jpg"  transform="matrix(0.24 0 0 0.24 81.5862 97.3794)">
					</image>
				</g>
			</mask>
			<g id="XMLID_48_" class="st7">
				<path id="XMLID_52_" class="st4" d="M292,185.4c3.4-2.7,8.3-3.7,12.5-5.5s8.1-5.3,6.9-9.3c-1.7-6-12.4-8.1-15.3-13.9
					c-2.2-4.4,1-8.8,3.4-12.7c2.5-3.9,3.8-9.6-0.7-12.7c-1.6-1.2-3.8-1.7-5.4-2.8c-4.5-2.9-4.9-9-9.9-11.3c-3.4-1.6-7.4-0.6-11-1.7
					c-2.9-0.9-5.1-2.9-7.9-4.2c-3.8-1.7-8.1-1.8-12.2-2.4c-12.3-1.9-24.3-9.5-36.2-8c-4.2,0.5-7.9,2.1-11.9,2.9
					c-11.5,2.4-24.2-1.4-36.4-3.4c-12.2-2.1-26.7-1.6-32.7,6.6c-2.6,3.5-3.4,8.2-7.4,10.7c-6.5,4-19.1,0.9-22,7.1
					c-0.8,1.6-0.6,3.5-0.9,5.3c-2,8.9-17.7,10.8-20.7,19.5c-1.6,4.7,1.3,13.1,9.5,25.3c2.3,3.5,4.1,7.3,7.6,10.1
					c3.5,2.7,8,4.2,12.4,5.6c9.8,3,19.7,5.4,29.7,7.3c8.5,1.6,17.1,2.8,25.5,2.1c6.5-0.5,12.6-2.2,19.2-2.6
					c19.8-1.2,41.5,9.4,59.8,4.2c7.3-2.1,13-6.5,19.2-10.2s13.8-6.7,21.8-5.4"/>
			</g>
		</g>
		<g class="st5">
			<defs>
				<filter id="Adobe_OpacityMaskFilter_2_" filterUnits="userSpaceOnUse" x="46.3" y="112.7" width="174.8" height="79.4">
					<feFlood  style="flood-color:white;flood-opacity:1" result="back"/>
					<feBlend  in="SourceGraphic" in2="back" mode="normal"/>
				</filter>
			</defs>
			<mask maskUnits="userSpaceOnUse" x="46.3" y="112.7" width="174.8" height="79.4" id="XMLID_88_">
				<g id="XMLID_44_" class="st8">
					
						<image style="overflow:visible;" width="745" height="348" id="XMLID_45_" xlink:href="AE77A36FE5E45081.jpg"  transform="matrix(0.24 0 0 0.24 44.3174 110.6535)">
					</image>
				</g>
			</mask>
			<g id="XMLID_43_" class="st9">
				<path id="XMLID_47_" class="st4" d="M206,178.6c2.6-2.1,6.4-2.8,9.6-4.2s6.2-4,5.3-7.2c-1.3-4.6-9.5-6.2-11.8-10.7
					c-1.7-3.4,0.7-6.7,2.6-9.7c1.9-3,2.9-7.3-0.5-9.7c-1.3-0.9-2.9-1.3-4.2-2.1c-3.5-2.2-3.7-6.9-7.6-8.6c-2.6-1.2-5.7-0.5-8.5-1.3
					c-2.2-0.7-3.9-2.2-6-3.2c-2.9-1.3-6.2-1.3-9.3-1.8c-9.5-1.5-18.6-7.2-27.8-6.1c-3.2,0.4-6,1.6-9.1,2.3
					c-8.8,1.8-18.6-1.1-27.9-2.6c-9.4-1.6-20.4-1.2-25.1,5c-2,2.7-2.6,6.3-5.7,8.2c-4.9,3-14.6,0.7-16.9,5.5c-0.6,1.2-0.4,2.7-0.7,4
					c-1.5,6.8-13.6,8.3-15.8,14.9c-1.2,3.6,1,10.1,7.3,19.4c1.8,2.7,3.1,5.6,5.8,7.8c2.7,2.1,6.1,3.3,9.5,4.3
					c7.5,2.3,15.1,4.1,22.8,5.6c6.5,1.2,13.1,2.1,19.5,1.6c5-0.4,9.7-1.7,14.7-2c15.2-0.9,31.8,7.2,45.8,3.2c5.6-1.6,10-5,14.7-7.8
					c4.8-2.8,10.6-5.1,16.7-4.1"/>
			</g>
		</g>
		<g class="st5">
			<defs>
				<filter id="Adobe_OpacityMaskFilter_3_" filterUnits="userSpaceOnUse" x="-5.6" y="114.3" width="175.4" height="81.2">
					<feFlood  style="flood-color:white;flood-opacity:1" result="back"/>
					<feBlend  in="SourceGraphic" in2="back" mode="normal"/>
				</filter>
			</defs>
			<mask maskUnits="userSpaceOnUse" x="-5.6" y="114.3" width="175.4" height="81.2" id="XMLID_89_">
				<g id="XMLID_39_" class="st10">
					
						<image style="overflow:visible;" width="748" height="355" id="XMLID_40_" xlink:href="AE77A36FE5E45083.jpg"  transform="matrix(0.24 0 0 0.24 -7.5747 112.2819)">
					</image>
				</g>
			</mask>
			<g id="XMLID_38_" class="st11">
				<path id="XMLID_42_" class="st4" d="M8.2,137.2c-2.3,2.4-6,3.5-9.1,5.3c-3.1,1.7-5.7,4.7-4.4,7.7c1.8,4.4,10.1,5.1,12.9,9.2
					c2.1,3.2,0,6.8-1.5,10S4.1,177,7.8,179c1.3,0.7,3,1,4.4,1.7c3.7,1.8,4.5,6.4,8.5,7.7c2.7,0.9,5.7-0.2,8.6,0.3
					c2.3,0.4,4.2,1.8,6.3,2.5c3,1,6.3,0.6,9.5,0.7c9.6,0.4,19.3,5.1,28.3,2.9c3.1-0.8,5.8-2.3,8.8-3.3c8.6-2.8,18.6-1.1,28-0.6
					s20.4-1.2,24.3-7.9c1.7-2.9,1.9-6.6,4.7-8.8c4.6-3.6,14.5-2.3,16.2-7.4c0.4-1.3,0.1-2.7,0.3-4.1c0.7-7,12.5-9.8,14-16.7
					c0.8-3.7-2.1-9.9-9.4-18.5c-2.1-2.5-3.7-5.2-6.7-7c-2.9-1.8-6.5-2.5-9.9-3.2c-7.7-1.4-15.5-2.4-23.3-2.9
					c-6.6-0.5-13.3-0.6-19.6,0.7c-4.9,1-9.4,2.8-14.4,3.7c-15,2.6-32.4-3.5-45.9,2.1c-5.4,2.3-9.3,6.1-13.7,9.4s-9.9,6.3-16.1,6"/>
			</g>
		</g>
		<g class="st1">
			<defs>
				<filter id="Adobe_OpacityMaskFilter_4_" filterUnits="userSpaceOnUse" x="749" y="104.6" width="219.6" height="119.8">
					<feFlood  style="flood-color:white;flood-opacity:1" result="back"/>
					<feBlend  in="SourceGraphic" in2="back" mode="normal"/>
				</filter>
			</defs>
			<mask maskUnits="userSpaceOnUse" x="749" y="104.6" width="219.6" height="119.8" id="XMLID_90_">
				<g id="XMLID_34_" class="st12">
					
						<image style="overflow:visible;" width="932" height="516" id="XMLID_35_" xlink:href="AE77A36FE5E45080.jpg"  transform="matrix(0.24 0 0 0.24 747.0151 102.6124)">
					</image>
				</g>
			</mask>
			<g id="XMLID_33_" class="st13">
				<path id="XMLID_37_" class="st4" d="M771.1,217.6c-3.8-2-8.9-1.9-13.4-2.8c-4.5-0.9-9-3.5-8.7-7.7c0.4-6.2,10.5-10.5,12.2-16.7
					c1.3-4.8-2.7-8.4-5.9-11.7c-3.2-3.3-5.7-8.6-1.9-12.6c1.4-1.5,3.3-2.4,4.8-3.9c3.8-3.8,2.9-9.8,7.3-13.1c3-2.2,7.2-2.1,10.5-3.9
					c2.7-1.4,4.4-3.9,6.8-5.7c3.3-2.4,7.6-3.4,11.5-4.8c11.7-4.4,21.8-14.2,33.8-15.2c4.2-0.4,8.1,0.4,12.3,0.4
					c11.8,0,23.4-6.3,35-10.8c11.5-4.5,25.8-7,33.4-0.2c3.3,2.9,5,7.4,9.5,9c7.1,2.6,18.9-3.1,23,2.5c1.1,1.4,1.3,3.3,2,5
					c3.7,8.3,19.5,7,24.2,14.8c2.5,4.3,1.4,13.1-4.1,26.7c-1.6,3.9-2.5,8-5.4,11.5c-2.8,3.4-7,5.8-11,8c-8.9,4.9-18.2,9.3-27.6,13.2
					c-8,3.3-16.2,6.2-24.5,7.2c-6.5,0.8-12.8,0.4-19.3,1.4c-19.6,2.9-38.7,17.7-57.7,16.3c-7.6-0.6-14.1-3.7-20.9-6.1
					c-6.8-2.3-14.8-3.7-22.4-0.8"/>
			</g>
		</g>
		<g class="st5">
			<defs>
				<filter id="Adobe_OpacityMaskFilter_5_" filterUnits="userSpaceOnUse" x="686" y="103.4" width="228" height="103.6">
					<feFlood  style="flood-color:white;flood-opacity:1" result="back"/>
					<feBlend  in="SourceGraphic" in2="back" mode="normal"/>
				</filter>
			</defs>
			<mask maskUnits="userSpaceOnUse" x="686" y="103.4" width="228" height="103.6" id="XMLID_91_">
				<g id="XMLID_29_" class="st14">
					
						<image style="overflow:visible;" width="967" height="449" id="XMLID_30_" xlink:href="AE77A36FE5E4508E.jpg"  transform="matrix(0.24 0 0 0.24 684.0047 101.3794)">
					</image>
				</g>
			</mask>
			<g id="XMLID_28_" class="st15">
				<path id="XMLID_32_" class="st4" d="M705.7,189.4c-3.4-2.7-8.3-3.7-12.5-5.5s-8.1-5.3-6.9-9.3c1.7-6,12.4-8.1,15.3-13.9
					c2.2-4.4-1-8.8-3.4-12.7c-2.5-3.9-3.8-9.6,0.7-12.7c1.6-1.2,3.8-1.7,5.4-2.8c4.5-2.9,4.9-9,9.9-11.3c3.4-1.6,7.4-0.6,11-1.7
					c2.9-0.9,5.1-2.9,7.9-4.2c3.8-1.7,8.1-1.8,12.2-2.4c12.3-1.9,24.3-9.5,36.2-8c4.2,0.5,7.9,2.1,11.9,2.9
					c11.5,2.4,24.2-1.4,36.4-3.4c12.2-2.1,26.7-1.6,32.7,6.6c2.6,3.5,3.4,8.2,7.4,10.7c6.5,4,19.1,0.9,22,7.1
					c0.8,1.6,0.6,3.5,0.9,5.3c2,8.9,17.7,10.8,20.7,19.5c1.6,4.7-1.3,13.1-9.5,25.3c-2.3,3.5-4.1,7.3-7.6,10.1
					c-3.5,2.7-8,4.2-12.4,5.6c-9.8,3-19.7,5.4-29.7,7.3c-8.5,1.6-17.1,2.8-25.5,2.1c-6.5-0.5-12.6-2.2-19.2-2.6
					c-19.8-1.2-41.5,9.4-59.8,4.2c-7.3-2.1-13-6.5-19.2-10.2s-13.8-6.7-21.8-5.4"/>
			</g>
		</g>
		<g class="st5">
			<defs>
				<filter id="Adobe_OpacityMaskFilter_6_" filterUnits="userSpaceOnUse" x="775.5" y="116.5" width="173.6" height="87.6">
					<feFlood  style="flood-color:white;flood-opacity:1" result="back"/>
					<feBlend  in="SourceGraphic" in2="back" mode="normal"/>
				</filter>
			</defs>
			<mask maskUnits="userSpaceOnUse" x="775.5" y="116.5" width="173.6" height="87.6" id="XMLID_92_">
				<g id="XMLID_24_" class="st16">
					
						<image style="overflow:visible;" width="740" height="382" id="XMLID_25_" xlink:href="AE77A36FE5E45085.jpg"  transform="matrix(0.24 0 0 0.24 773.5366 114.4558)">
					</image>
				</g>
			</mask>
			<g id="XMLID_23_" class="st17">
				<path id="XMLID_27_" class="st4" d="M787.8,166.7c-2-2.6-5.5-4.3-8.3-6.4c-2.8-2.1-5-5.4-3.4-8.2c2.4-4.2,10.7-3.7,14-7.5
					c2.5-2.9,0.9-6.7-0.2-10.1c-1.1-3.4-1.1-7.8,2.9-9.3c1.4-0.6,3.1-0.6,4.6-1.1c3.9-1.3,5.3-5.8,9.4-6.6c2.8-0.5,5.7,0.9,8.5,0.8
					c2.3-0.1,4.4-1.2,6.6-1.6c3.1-0.6,6.3,0.2,9.5,0.5c9.5,0.9,19.8-2.5,28.4,0.8c3,1.2,5.5,3,8.3,4.4c8.1,3.9,18.3,3.5,27.7,4.2
					c9.5,0.7,20.1,3.8,23.1,11c1.3,3.1,1,6.8,3.5,9.3c4.1,4.1,14,4.2,15.1,9.4c0.3,1.4-0.2,2.7-0.3,4.1c-0.2,7,11.1,11.3,11.7,18.3
					c0.3,3.8-3.4,9.5-11.8,17.1c-2.4,2.2-4.4,4.7-7.5,6.1c-3.1,1.4-6.7,1.7-10.3,1.8c-7.8,0.4-15.6,0.3-23.4-0.1
					c-6.6-0.4-13.3-1.1-19.3-3.2c-4.7-1.6-9-4-13.8-5.5c-14.5-4.6-32.6-0.7-45.2-8c-5.1-2.9-8.4-7.3-12.4-11.2
					c-3.9-3.9-9-7.5-15.2-8.1"/>
			</g>
		</g>
		<g class="st5">
			<defs>
				<filter id="Adobe_OpacityMaskFilter_7_" filterUnits="userSpaceOnUse" x="589.2" y="115.2" width="174" height="82.1">
					<feFlood  style="flood-color:white;flood-opacity:1" result="back"/>
					<feBlend  in="SourceGraphic" in2="back" mode="normal"/>
				</filter>
			</defs>
			<mask maskUnits="userSpaceOnUse" x="589.2" y="115.2" width="174" height="82.1" id="XMLID_93_">
				<g id="XMLID_19_" class="st18">
					
						<image style="overflow:visible;" width="742" height="359" id="XMLID_20_" xlink:href="AE77A36FE5E45087.jpg"  transform="matrix(0.24 0 0 0.24 587.1943 113.2134)">
					</image>
				</g>
			</mask>
			<g id="XMLID_18_" class="st19">
				<path id="XMLID_22_" class="st4" d="M604.7,185.6c-2.7-2-6.5-2.5-9.8-3.8c-3.3-1.2-6.3-3.8-5.6-6.9c1.1-4.7,9.2-6.6,11.3-11.2
					c1.6-3.5-1-6.7-3-9.6c-2-2.9-3.2-7.2,0.1-9.8c1.2-0.9,2.8-1.4,4.1-2.3c3.4-2.4,3.4-7,7.2-9c2.5-1.3,5.7-0.7,8.4-1.7
					c2.2-0.8,3.8-2.4,5.9-3.4c2.8-1.4,6.1-1.6,9.3-2.2c9.4-1.9,18.3-8,27.5-7.3c3.2,0.3,6.1,1.4,9.2,1.9c8.9,1.5,18.5-1.9,27.8-3.8
					c9.3-2,20.4-2.1,25.3,4c2.1,2.6,2.9,6.2,6,8c5.1,2.8,14.7,0,17.1,4.7c0.6,1.2,0.5,2.7,0.9,4c1.8,6.8,13.9,7.7,16.5,14.2
					c1.4,3.5-0.6,10.1-6.4,19.7c-1.7,2.8-2.9,5.8-5.5,8c-2.6,2.2-6,3.5-9.3,4.7c-7.4,2.6-14.9,4.8-22.5,6.5
					c-6.4,1.5-13,2.7-19.4,2.4c-5-0.2-9.8-1.3-14.8-1.4c-15.2-0.3-31.5,8.6-45.7,5.2c-5.7-1.4-10.2-4.6-15-7.2s-10.8-4.6-16.9-3.4"
					/>
			</g>
		</g>
		<g class="st5">
			<defs>
				<filter id="Adobe_OpacityMaskFilter_8_" filterUnits="userSpaceOnUse" x="297.3" y="119.1" width="174.6" height="84.8">
					<feFlood  style="flood-color:white;flood-opacity:1" result="back"/>
					<feBlend  in="SourceGraphic" in2="back" mode="normal"/>
				</filter>
			</defs>
			<mask maskUnits="userSpaceOnUse" x="297.3" y="119.1" width="174.6" height="84.8" id="XMLID_94_">
				<g id="XMLID_14_" class="st20">
					
						<image style="overflow:visible;" width="745" height="371" id="XMLID_15_" xlink:href="AE77A36FE5E45084.jpg"  transform="matrix(0.24 0 0 0.24 295.3319 117.0702)">
					</image>
				</g>
			</mask>
			<g id="XMLID_13_" class="st21">
				<path id="XMLID_17_" class="st4" d="M310.2,172.4c-2.1-2.5-5.7-4-8.6-6c-2.9-2-5.3-5.2-3.8-8c2.2-4.3,10.5-4.3,13.6-8.2
					c2.3-3,0.6-6.8-0.7-10.1c-1.3-3.3-1.4-7.8,2.4-9.5c1.4-0.6,3.1-0.7,4.5-1.3c3.8-1.5,5-6,9.1-7c2.8-0.7,5.7,0.6,8.6,0.3
					c2.3-0.2,4.3-1.4,6.5-2c3.1-0.7,6.3-0.1,9.5,0c9.6,0.4,19.7-3.5,28.4-0.6c3.1,1,5.6,2.8,8.5,4c8.3,3.5,18.4,2.6,27.9,2.8
					c9.5,0.3,20.3,2.8,23.6,9.8c1.4,3,1.3,6.7,4,9.2c4.3,3.9,14.2,3.5,15.5,8.6c0.3,1.3-0.1,2.7-0.1,4.1c0.1,7,11.7,10.8,12.6,17.7
					c0.5,3.8-2.9,9.7-10.9,17.6c-2.3,2.3-4.1,4.9-7.2,6.5c-3,1.5-6.6,2-10.2,2.4c-7.8,0.8-15.6,1.1-23.4,1
					c-6.6-0.1-13.3-0.5-19.5-2.2c-4.8-1.4-9.2-3.5-14-4.8c-14.7-3.8-32.6,0.9-45.6-5.7c-5.2-2.7-8.8-6.8-12.9-10.5
					s-9.4-7.1-15.6-7.3"/>
			</g>
		</g>
	</g>
</g>
</svg>
