<?xml version="1.0" encoding="utf-8"?>
<!-- Generator: Adobe Illustrator 19.0.0, SVG Export Plug-In . SVG Version: 6.00 Build 0)  -->
<svg version="1.1" id="Слой_1" xmlns="http://www.w3.org/2000/svg" xmlns:xlink="http://www.w3.org/1999/xlink" x="0px" y="0px"
	 viewBox="0 0 325 252.9" style="enable-background:new 0 0 325 252.9;" xml:space="preserve">
<style type="text/css">
	.st0{fill:#F3F3F3;}
	.st1{fill:#FFFFFF;}
	.st2{fill:#CBCBCB;}
	.st3{font-family:'FontAwesome';}
	.st4{font-size:30px;}
	.st5{fill:#F3F3F4;}
	.st6{fill:none;stroke:#CDCCCC;stroke-miterlimit:10;}
	.st7{fill:#989798;}
	.st8{font-family:'Roboto-Regular';}
	.st9{font-size:14px;}
	.st10{font-size:12px;}
	.st11{fill:#4E4E4E;}
	.st12{fill:none;stroke:#FFFFFF;stroke-miterlimit:10;}
	.st13{fill:none;stroke:#DDDDDC;stroke-miterlimit:10;}
	.st14{fill:#E5E5E5;}
	.st15{fill:#3B97D3;}
</style>
<g>
	<g>
		<g>
			<path class="st0" d="M310.1,0.5H169.9c-8.2,0-14.9,6.7-14.9,14.9v222.1c0,8.2,6.7,14.9,14.9,14.9h140.2c8.2,0,14.9-6.7,14.9-14.9
				V15.4C325,7.2,318.3,0.5,310.1,0.5z"/>
		</g>
		<circle class="st1" cx="238" cy="30.9" r="7.5"/>
		<circle class="st1" cx="238.1" cy="47.9" r="2.5"/>
	</g>
	<text transform="matrix(1 0 0 1 -1.831055e-04 96.2955)" class="st2 st3 st4"></text>
	<g>
		<path id="XMLID_36_" class="st5" d="M173,252.4H43c-11,0-20-9-20-20V20.5c0-11,9-20,20-20h130c11,0,20,9,20,20v211.9
			C193,243.5,184.1,252.4,173,252.4z"/>
		<path id="XMLID_18_" class="st6" d="M173,252.4H43c-11,0-20-9-20-20V20.5c0-11,9-20,20-20h130c11,0,20,9,20,20v211.9
			C193,243.5,184.1,252.4,173,252.4z"/>
	</g>
	<g>
		<path id="XMLID_47_" class="st1" d="M175,96.4c0,2.5-2,4.5-4.5,4.5h-128c-2.5,0-4.5-2-4.5-4.5v-24c0-2.5,2-4.5,4.5-4.5h128
			c2.5,0,4.5,2,4.5,4.5V96.4z"/>
		<path id="XMLID_44_" class="st2" d="M170.6,68.9c2.2,0,4.4,1.6,4.4,3.8v24c0,2.2-2.2,4.2-4.4,4.2h-128c-2.2,0-3.6-2-3.6-4.2v-24
			c0-2.2,1.4-3.8,3.6-3.8H171 M170.6,67.9h-128c-2.8,0-4.6,2-4.6,4.8v24c0,2.8,1.8,5.2,4.6,5.2h128c2.8,0,5.4-2.4,5.4-5.2v-24
			C176,69.9,173.4,67.9,170.6,67.9L170.6,67.9z"/>
	</g>
	<g>
		<text id="XMLID_42_" transform="matrix(1 0 0 1 48.6305 92.7065)" class="st7 st8 st9">Номер телефона</text>
	</g>
	<g>
		<path id="XMLID_40_" class="st1" d="M148,178.4c0,2.5-2,4.5-4.5,4.5h-101c-2.5,0-4.5-2-4.5-4.5v-24c0-2.5,2-4.5,4.5-4.5h101
			c2.5,0,4.5,2,4.5,4.5V178.4z"/>
		<path id="XMLID_37_" class="st2" d="M144.1,150.9c2.2,0,4,1.6,4,3.8v24c0,2.2-1.8,4.2-4,4.2H42.6c-2.2,0-3.6-2-3.6-4.2v-24
			c0-2.2,1.4-3.8,3.6-3.8H144.1 M144.1,149.9H42.6c-2.8,0-4.6,2-4.6,4.8v24c0,2.8,1.8,5.2,4.6,5.2h101.4c2.8,0,5-2.4,5-5.2v-24
			C149,151.9,146.8,149.9,144.1,149.9L144.1,149.9z"/>
	</g>
	<g>
		<text id="XMLID_57_" transform="matrix(1 0 0 1 48.1547 174.7065)" class="st7 st8 st9">от 1 до 14900</text>
	</g>
	<g>
		<text id="XMLID_59_" transform="matrix(1 0 0 1 155.1547 174.7065)" class="st7 st8 st9">грн</text>
	</g>
	<g>
		<text id="XMLID_61_" transform="matrix(1 0 0 1 48.155 201.9204)" class="st7 st8 st10">комиссия</text>
	</g>
	<g>
		<text id="XMLID_63_" transform="matrix(1 0 0 1 38.6307 57.7065)" class="st11 st8 st9">2. Получатель</text>
	</g>
	<g>
		<text id="XMLID_65_" transform="matrix(1 0 0 1 38.6307 140.1896)" class="st11 st8 st9">3. Сумма перевода</text>
	</g>
	<g>
		<g id="XMLID_25_">
			<line id="XMLID_26_" class="st12" x1="23" y1="117.4" x2="192" y2="117.4"/>
		</g>
		<g id="XMLID_22_">
			<line id="XMLID_23_" class="st13" x1="23" y1="116.4" x2="192" y2="116.4"/>
		</g>
	</g>
	<path class="st14" d="M171.8,250.4h-127c-11,0-20-9-20-20v-8.2h167v8.2C191.8,241.5,182.9,250.4,171.8,250.4z"/>
	<path class="st14" d="M45.3,1.5l126,0c11,0,20,9,20,20l0,12.7l-166,0l0-12.7C25.3,10.5,34.3,1.5,45.3,1.5z"/>
	<circle class="st5" cx="107.3" cy="236.9" r="7.5"/>
	<path class="st5" d="M119.3,20.4h-24c-1.4,0-2.5-1.1-2.5-2.5v0c0-1.4,1.1-2.5,2.5-2.5h24c1.4,0,2.5,1.1,2.5,2.5v0
		C121.8,19.3,120.7,20.4,119.3,20.4z"/>
	<circle class="st5" cx="78.1" cy="17.9" r="2.5"/>
	<g>
		<g>
			<text id="XMLID_66_" transform="matrix(1 0 0 1 206.2318 175.3564)" class="st15 st8 st10">Есть Промо код</text>
		</g>
		<g>
			<text id="XMLID_67_" transform="matrix(1 0 0 1 298.738 175.3565)" class="st15 st3 st10"></text>
		</g>
	</g>
</g>
</svg>
