<?xml version="1.0" encoding="utf-8"?>
<!-- Generator: Adobe Illustrator 19.0.0, SVG Export Plug-In . SVG Version: 6.00 Build 0)  -->
<svg version="1.1" id="Слой_1" xmlns="http://www.w3.org/2000/svg" xmlns:xlink="http://www.w3.org/1999/xlink" x="0px" y="0px"
	 viewBox="0 0 175.5 46.2" style="enable-background:new 0 0 175.5 46.2;" xml:space="preserve">
<style type="text/css">
	.st0{fill:#FFFFFF;}
	.st1{fill:#CDCCCC;}
	.st2{fill:url(#XMLID_18_);}
	.st3{filter:url(#Adobe_OpacityMaskFilter);}
	.st4{opacity:0.3;mask:url(#XMLID_104_);}
	.st5{fill:#010101;}
	.st6{font-family:'Roboto-Black';}
	.st7{font-size:18.5114px;}
	.st8{fill:#FAED24;}
	.st9{fill:#2AAAE2;}
	.st10{fill:#1D749A;}
	.st11{fill:#989898;}
	.st12{fill:#999134;}
</style>
<g id="p2y_x5F_logo_1_">
	<g>
		
			<image style="overflow:visible;opacity:0.3;" width="737" height="196" id="XMLID_777_" xlink:href="A7924C1A01DF9B9B.png"  transform="matrix(0.24 0 0 0.24 -0.1667 -0.3031)">
		</image>
		<g id="XMLID_517_">
			<g id="XMLID_665_">
				<g id="XMLID_717_">
					<g id="XMLID_718_">
						<path id="XMLID_719_" class="st0" d="M5.3,23.8v7h-5V10.2h8.2c1.6,0,3,0.3,4.2,0.9c1.2,0.6,2.2,1.4,2.8,2.5
							c0.7,1.1,1,2.3,1,3.7c0,2-0.7,3.6-2.2,4.8c-1.4,1.2-3.4,1.8-5.9,1.8H5.3z M5.3,20h3.3c1,0,1.7-0.2,2.2-0.7s0.8-1.2,0.8-2
							c0-1-0.3-1.7-0.8-2.3C10.2,14.3,9.5,14,8.6,14H5.3V20z"/>
					</g>
				</g>
				<g id="XMLID_712_">
					<g id="XMLID_713_">
						<path id="XMLID_714_" class="st0" d="M28.4,27h-6.8l-1.2,3.9h-5.3l7.6-20.6h4.7L35,30.8h-5.3L28.4,27z M22.8,23.1h4.4L25,16
							L22.8,23.1z"/>
					</g>
				</g>
				<g id="XMLID_708_">
					<g id="XMLID_709_">
						<path id="XMLID_710_" class="st0" d="M100.9,19.2l3.8-9h5.4l-6.7,13.2v7.4h-5v-7.4l-6.6-13.2h5.3L100.9,19.2z"/>
					</g>
				</g>
				<g id="XMLID_703_">
					<g id="XMLID_704_">
						<path id="XMLID_705_" class="st0" d="M128.7,20.9c0,2-0.4,3.8-1.1,5.3c-0.7,1.6-1.8,2.7-3.2,3.6c-1.4,0.8-2.9,1.3-4.7,1.3
							c-1.8,0-3.3-0.4-4.7-1.2c-1.4-0.8-2.4-2-3.2-3.5c-0.8-1.5-1.2-3.2-1.2-5.2v-1.2c0-2,0.4-3.8,1.1-5.4c0.7-1.5,1.8-2.7,3.2-3.6
							c1.4-0.8,3-1.3,4.7-1.3c1.7,0,3.3,0.4,4.7,1.2c1.4,0.8,2.4,2,3.2,3.6c0.8,1.5,1.1,3.3,1.2,5.3V20.9z M123.6,20.1
							c0-2.1-0.3-3.6-1-4.7c-0.7-1.1-1.7-1.6-2.9-1.6c-2.5,0-3.8,1.9-4,5.6l0,1.5c0,2,0.3,3.6,1,4.7c0.7,1.1,1.7,1.6,3,1.6
							c1.3,0,2.2-0.5,2.9-1.6c0.7-1.1,1-2.6,1-4.6V20.1z"/>
					</g>
				</g>
				<g id="XMLID_699_">
					<g id="XMLID_700_">
						<path id="XMLID_701_" class="st0" d="M147.4,10.2v13.5c0,1.5-0.3,2.9-1,4c-0.7,1.1-1.6,2-2.8,2.6c-1.2,0.6-2.7,0.9-4.3,0.9
							c-2.5,0-4.5-0.7-5.9-2c-1.4-1.3-2.2-3.1-2.2-5.4V10.2h5v13.7c0.1,2.3,1.1,3.4,3.1,3.4c1,0,1.8-0.3,2.3-0.9
							c0.5-0.6,0.8-1.5,0.8-2.8V10.2H147.4z"/>
					</g>
				</g>
				<g id="XMLID_697_">
					<path id="XMLID_698_" class="st0" d="M91.2,16.6c3.1,3.1,3.1,8.2,0,11.3L77.1,41.9C74,45,69,45,65.9,41.9L51.8,27.8
						c-3.1-3.1-3.1-8.2,0-11.3L65.9,2.5c3.1-3.1,8.2-3.1,11.3,0L91.2,16.6z"/>
				</g>
				<g id="XMLID_695_">
					<path id="XMLID_696_" class="st1" d="M91.2,16.6L77.1,2.5c-1.5-1.5-3.5-2.3-5.6-2.3v9.6l5.6,5.4l-5.6,7.9l-3,4.7l3,4.5v6.4l0,0
						c0,6.5-5.7,3.1-5.7,3.1c2.1,2.1,5.2,2.8,7.9,2c0,0,0,0,0,0c0.2-0.1,0.5-0.2,0.7-0.2c0,0,0.1,0,0.1,0c0.2-0.1,0.4-0.2,0.6-0.3
						c0.1,0,0.1-0.1,0.2-0.1c0.2-0.1,0.3-0.2,0.5-0.3c0.1-0.1,0.2-0.1,0.3-0.2c0.1-0.1,0.2-0.2,0.3-0.3c0.2-0.2,0.4-0.3,0.6-0.5
						l14.1-14.1C94.3,24.7,94.3,19.7,91.2,16.6z"/>
				</g>
				<g id="XMLID_693_">
					<path id="XMLID_694_" class="st0" d="M71.4,5.6c0-6.5,5.7-3.1,5.7-3.1C74-0.6,69-0.6,65.9,2.5L51.5,16.9L71.4,5.6z"/>
				</g>
				<g id="XMLID_689_">
					<g id="XMLID_690_">
						<path id="XMLID_691_" class="st1" d="M62.8,31.9v-2.3l6.4-8.4c2-2.3,3-4.1,3-5.4c0-1.1-0.1-2-0.7-2.5c-0.5-0.4-2.6-0.4-3.4,3
							h-5.9v-1.6c0-1.5,0.4-3,1.2-4.3c0.8-1.3,1.8-2.3,3.2-3.1c1.4-0.7,2.9-1.1,4.6-1.1c2.7,0,4.8,0.6,6.3,1.9
							c1.5,1.3,2.2,3.1,2.2,5.4c0,1-0.2,2-0.6,2.9s-0.9,1.9-1.7,3c-0.8,1-2,2.4-3.8,4.1l-3.3,3.8"/>
					</g>
				</g>
				<g id="XMLID_685_">
					<g id="XMLID_686_">
						<path id="XMLID_687_" class="st0" d="M80.4,33.5l-16.7,3.2v-6.1l8.1-8.5c2-2.3,3-4.1,3-5.4c0-1.1,2.2-7.2,3.7-5.9
							c1.5,1.3,2.2,3.1,2.2,5.4c0,1-0.2,2-0.6,2.9s-0.9,1.9-1.7,3c-0.8,1-2,2.4-3.8,4.1l-3.3,3.8l9.1-0.9V33.5z"/>
					</g>
				</g>
				<g id="XMLID_676_">
					<g id="XMLID_682_">
						
							<radialGradient id="XMLID_18_" cx="-172.9276" cy="248.3976" r="35.8876" gradientTransform="matrix(0.4949 0 0 0.4949 157.1444 -95.4633)" gradientUnits="userSpaceOnUse">
							<stop  offset="0" style="stop-color:#3C97D3"/>
							<stop  offset="0.4971" style="stop-color:#3C96D1"/>
							<stop  offset="0.6761" style="stop-color:#3B91CA"/>
							<stop  offset="0.8037" style="stop-color:#3789BF"/>
							<stop  offset="0.9061" style="stop-color:#317FB2"/>
							<stop  offset="0.9936" style="stop-color:#2872A3"/>
							<stop  offset="1" style="stop-color:#2771A2"/>
						</radialGradient>
						<path id="XMLID_683_" class="st2" d="M80.4,33.5H62.8v-3.8l8.1-8.5c2-2.3,3-4.1,3-5.4c0-1.1-0.2-1.9-0.7-2.5
							c-0.5-0.6-1.2-0.8-2.1-0.8c-0.9,0-1.6,0.4-2.2,1.1c-0.6,0.8-0.8,1.7-0.8,2.8h-5.9c0-1.5,0.4-3,1.2-4.3
							c0.8-1.3,1.8-2.3,3.2-3.1c1.4-0.7,2.9-1.1,4.6-1.1c2.7,0,4.8,0.6,6.3,1.9c1.5,1.3,2.2,3.1,2.2,5.4c0,1-0.2,2-0.6,2.9
							c-0.4,0.9-0.9,1.9-1.7,3c-0.8,1-2,2.4-3.8,4.1L70.4,29h9.9V33.5z"/>
					</g>
					<defs>
						<filter id="Adobe_OpacityMaskFilter" filterUnits="userSpaceOnUse" x="62.3" y="7.9" width="18.1" height="25.6">
							
								<feColorMatrix  type="matrix" values="-1 0 0 0 1  0 -1 0 0 1  0 0 -1 0 1  0 0 0 1 0" color-interpolation-filters="sRGB" result="source"/>
						</filter>
					</defs>
					<mask maskUnits="userSpaceOnUse" x="62.3" y="7.9" width="18.1" height="25.6" id="XMLID_104_">
						<g id="XMLID_678_" class="st3">
							
								<image style="overflow:visible;" width="93" height="124" id="XMLID_679_" xlink:href="A7924C1A01DF9B99.jpg"  transform="matrix(0.24 0 0 0.24 60.2547 5.898)">
							</image>
						</g>
					</mask>
					<g id="XMLID_677_" class="st4">
						<path id="XMLID_680_" class="st5" d="M80.4,33.5H62.8v-3.8l8.1-8.5c2-2.3,3-4.1,3-5.4c0-1.1-0.2-1.9-0.7-2.5
							c-0.5-0.6-1.2-0.8-2.1-0.8c-0.9,0-1.6,0.4-2.2,1.1c-0.6,0.8-0.8,1.7-0.8,2.8h-5.9c0-1.5,0.4-3,1.2-4.3
							c0.8-1.3,1.8-2.3,3.2-3.1c1.4-0.7,2.9-1.1,4.6-1.1c2.7,0,4.8,0.6,6.3,1.9c1.5,1.3,2.2,3.1,2.2,5.4c0,1-0.2,2-0.6,2.9
							c-0.4,0.9-0.9,1.9-1.7,3c-0.8,1-2,2.4-3.8,4.1L70.4,29h9.9V33.5z"/>
					</g>
				</g>
				<g id="XMLID_672_">
					<g id="XMLID_673_">
						<path id="XMLID_674_" class="st0" d="M41.9,19.2l3.8-9h5.4l-6.7,13.2v7.4h-5v-7.4l-6.6-13.2h5.3L41.9,19.2z"/>
					</g>
				</g>
				<g id="XMLID_670_">
					<text id="XMLID_671_" transform="matrix(1 0 0 1 148.1793 31.1178)" class="st0 st6 st7">.ua</text>
				</g>
				<polygon id="XMLID_669_" class="st8" points="173.5,14 150.8,14 150.8,18 160.7,18 165.9,18 173.5,18 				"/>
				<rect id="XMLID_668_" x="150.8" y="9.9" class="st9" width="22.8" height="4"/>
				<g id="XMLID_666_">
					<rect id="XMLID_667_" x="150.3" y="9.7" class="st0" width="1" height="19"/>
				</g>
			</g>
		</g>
	</g>
	<polygon class="st10" points="162.5,14 163.6,9.9 168.7,9.9 167.6,14 	"/>
	<polygon class="st11" points="171.5,14 172.6,9.9 173.5,9.9 173.5,14 	"/>
	<polygon class="st12" points="166.4,18 161.4,18 162.5,14 167.6,14 	"/>
	<polygon class="st11" points="173.5,18 170.4,18 171.5,14 173.5,14 	"/>
</g>
</svg>
